G04 #@! TF.GenerationSoftware,KiCad,Pcbnew,9.0.7*
G04 #@! TF.CreationDate,2026-04-28T12:13:44+02:00*
G04 #@! TF.ProjectId,Custom_ESC,43757374-6f6d-45f4-9553-432e6b696361,v2.0*
G04 #@! TF.SameCoordinates,PX5f5e100PY6422c40*
G04 #@! TF.FileFunction,Copper,L2,Inr*
G04 #@! TF.FilePolarity,Positive*
%FSLAX46Y46*%
G04 Gerber Fmt 4.6, Leading zero omitted, Abs format (unit mm)*
G04 Created by KiCad (PCBNEW 9.0.7) date 2026-04-28 12:13:44*
%MOMM*%
%LPD*%
G01*
G04 APERTURE LIST*
G04 #@! TA.AperFunction,HeatsinkPad*
%ADD10O,1.000000X2.100000*%
G04 #@! TD*
G04 #@! TA.AperFunction,HeatsinkPad*
%ADD11O,1.000000X1.800000*%
G04 #@! TD*
G04 #@! TA.AperFunction,ViaPad*
%ADD12C,0.600000*%
G04 #@! TD*
G04 #@! TA.AperFunction,ViaPad*
%ADD13C,0.700000*%
G04 #@! TD*
G04 APERTURE END LIST*
D10*
G04 #@! TO.N,unconnected-(J21-SHIELD-PadS1)_2*
G04 #@! TO.C,J21*
X17580000Y5815000D03*
D11*
G04 #@! TO.N,unconnected-(J21-SHIELD-PadS1)_1*
X17580000Y1635000D03*
D10*
G04 #@! TO.N,unconnected-(J21-SHIELD-PadS1)_3*
X26220000Y5815000D03*
D11*
G04 #@! TO.N,unconnected-(J21-SHIELD-PadS1)*
X26220000Y1635000D03*
G04 #@! TD*
D12*
G04 #@! TO.N,PWMCL*
X58800000Y26100000D03*
G04 #@! TO.N,GND*
X5800000Y3200000D03*
G04 #@! TO.N,+3V3*
X5700000Y7300000D03*
D13*
G04 #@! TO.N,+12V*
X66900000Y17800000D03*
X25700000Y24600000D03*
D12*
G04 #@! TO.N,+5V*
X70600000Y28400000D03*
X71500000Y17600000D03*
G04 #@! TO.N,SDA*
X38200931Y6071555D03*
X40700000Y1100000D03*
X60500000Y3200000D03*
G04 #@! TO.N,GND*
X16000000Y32700000D03*
X8500000Y1900000D03*
X34000000Y26200000D03*
X71000000Y14900000D03*
X30300000Y13700000D03*
X33650000Y21600000D03*
X50615428Y4591682D03*
X59600000Y20500000D03*
X28400000Y13600000D03*
X35900000Y3200000D03*
X34776543Y22775000D03*
X34600000Y1800000D03*
X47600000Y4200000D03*
X62100000Y9200000D03*
X24200000Y27000000D03*
D13*
X63300000Y16400000D03*
D12*
X33500000Y15600000D03*
X35200000Y26200000D03*
X44400000Y29500000D03*
X55300000Y23700000D03*
X58000000Y14800000D03*
X43851473Y2600000D03*
X56500000Y31200000D03*
X47200000Y30500000D03*
X26210000Y7600000D03*
X19870781Y9329219D03*
X14100000Y17600000D03*
X32700000Y31800000D03*
X48500395Y6699000D03*
X51100000Y31100000D03*
X26900000Y22400000D03*
X54500000Y20400000D03*
X31199000Y18700000D03*
X29600000Y9400000D03*
X43075735Y20724265D03*
X67100000Y20500000D03*
X46600000Y15709038D03*
X65100000Y3400000D03*
X12500000Y21300000D03*
X37700000Y22600000D03*
X30100000Y12700000D03*
X43000000Y28300000D03*
D13*
X10000000Y17900000D03*
D12*
X29600000Y14400000D03*
X39700000Y16600000D03*
X24700000Y19600000D03*
X46950764Y23749236D03*
X5100000Y31500000D03*
X24200000Y9300000D03*
X13900000Y14200000D03*
X19900000Y14600000D03*
X66900000Y6800000D03*
D13*
X58200000Y12500000D03*
D12*
X17610000Y7600000D03*
D13*
X16900000Y29100000D03*
D12*
X21600000Y1400000D03*
X13900000Y9800000D03*
X44842222Y18957778D03*
X28200000Y28500000D03*
X62100000Y19100000D03*
X14100000Y13200000D03*
X32877165Y30757086D03*
X7000000Y19000000D03*
X23600000Y13800000D03*
X31800000Y31800000D03*
X32500000Y20400000D03*
X7600000Y12000000D03*
X44600000Y28300000D03*
X55100000Y10400000D03*
X43924265Y19875735D03*
X52800000Y18300000D03*
X60880236Y19593935D03*
D13*
X6500000Y21900000D03*
D12*
X17900000Y13400000D03*
X56600000Y7099000D03*
X13000000Y4800000D03*
G04 #@! TO.N,MOTOR_FAULT*
X42970541Y11969013D03*
X64500000Y30200000D03*
G04 #@! TO.N,VBUS Sense*
X21910000Y13332722D03*
X24400000Y11800000D03*
X33400000Y3475000D03*
X28392371Y6640901D03*
X35112500Y5300000D03*
G04 #@! TO.N,SCL*
X40700000Y2000000D03*
X62800000Y4000000D03*
G04 #@! TO.N,LimitSwitch*
X49600000Y28500000D03*
X37665631Y11534369D03*
G04 #@! TO.N,DRVOFF*
X50200000Y14509038D03*
X42909466Y10906161D03*
X66450001Y26600000D03*
G04 #@! TO.N,nSCS*
X58385773Y23701000D03*
X51200000Y23395358D03*
X41607815Y12207815D03*
X54300000Y23701000D03*
X47865687Y19865687D03*
G04 #@! TO.N,SCLK*
X39000000Y9500000D03*
X39400000Y15500000D03*
G04 #@! TO.N,Net-(J2-Pin_1)*
X53900000Y31200000D03*
G04 #@! TO.N,nSLEEP*
X58060000Y5498000D03*
X45279307Y5498000D03*
X56300000Y15800000D03*
X65250001Y26421144D03*
G04 #@! TO.N,CAN_RX*
X31500000Y8400000D03*
X12000000Y6700000D03*
G04 #@! TO.N,CAN_TX*
X31159900Y7675890D03*
X12000000Y3900000D03*
G04 #@! TO.N,Net-(J6-Pin_1)*
X27500000Y20400000D03*
X71000000Y12350000D03*
G04 #@! TO.N,Net-(J7-Pin_1)*
X27507109Y19407109D03*
X70900000Y9800000D03*
G04 #@! TO.N,MISO*
X40271032Y10811695D03*
X40400000Y21254887D03*
G04 #@! TO.N,MOSI*
X41393166Y21807196D03*
X41007815Y10500000D03*
G04 #@! TO.N,PWMAH*
X59300000Y28800000D03*
X49500000Y16800000D03*
G04 #@! TO.N,PWMAL*
X54948527Y28200000D03*
X50065687Y16234313D03*
G04 #@! TO.N,PWMCH*
X51899000Y26300000D03*
X48373763Y18035280D03*
G04 #@! TO.N,PWMBH*
X52700000Y27700000D03*
X48859998Y17400000D03*
G04 #@! TO.N,PWMCL*
X33821705Y17381043D03*
X35700000Y24400000D03*
G04 #@! TO.N,PWMBL*
X36500000Y25500000D03*
X34550000Y17050000D03*
G04 #@! TO.N,BOOT0*
X44100000Y11400000D03*
X47700000Y11700000D03*
G04 #@! TO.N,NRST*
X43300000Y4601000D03*
X35000000Y10000000D03*
X11100000Y12000000D03*
X36174879Y9195087D03*
G04 #@! TO.N,LED*
X18100000Y16100000D03*
X33700000Y10800000D03*
X37900000Y14900000D03*
X36400000Y12500000D03*
G04 #@! TO.N,Net-(J9-Pin_1)*
X70825000Y7325000D03*
X27642652Y18474505D03*
G04 #@! TO.N,+3V3A*
X48100000Y22800000D03*
X41700000Y14600000D03*
G04 #@! TO.N,+3V3*
X28900000Y15400000D03*
X47300000Y19300000D03*
X49300000Y27200000D03*
X49244432Y6992959D03*
X36600000Y2500000D03*
X30100000Y11800000D03*
X64500000Y31312500D03*
X67400000Y3400000D03*
X50200000Y32900000D03*
X48400000Y13800000D03*
X52600000Y3500000D03*
X12900000Y5800000D03*
X51100000Y32500000D03*
X42400000Y24900000D03*
X55200000Y12900000D03*
X37600000Y1100000D03*
X46237176Y11085704D03*
X42300000Y2600000D03*
X46700000Y12285704D03*
X41553833Y20446167D03*
X64700000Y32812500D03*
X37600000Y2000000D03*
G04 #@! TO.N,GND*
X4700000Y8600000D03*
G04 #@! TD*
G04 #@! TA.AperFunction,Conductor*
G04 #@! TO.N,GND*
G36*
X73003234Y34799288D02*
G01*
X73228412Y34784530D01*
X73241237Y34782841D01*
X73459386Y34739449D01*
X73471886Y34736100D01*
X73682500Y34664605D01*
X73694463Y34659649D01*
X73893926Y34561285D01*
X73905142Y34554810D01*
X74090072Y34431243D01*
X74100345Y34423360D01*
X74267560Y34276718D01*
X74276717Y34267561D01*
X74423359Y34100346D01*
X74431242Y34090073D01*
X74554809Y33905143D01*
X74561284Y33893927D01*
X74659648Y33694464D01*
X74664604Y33682501D01*
X74736097Y33471892D01*
X74739449Y33459383D01*
X74782839Y33241245D01*
X74784529Y33228406D01*
X74799288Y33003235D01*
X74799500Y32996760D01*
X74799500Y2003241D01*
X74799288Y1996766D01*
X74784529Y1771595D01*
X74782839Y1758756D01*
X74739449Y1540618D01*
X74736097Y1528109D01*
X74664604Y1317500D01*
X74659648Y1305537D01*
X74561284Y1106074D01*
X74554809Y1094858D01*
X74431242Y909928D01*
X74423359Y899655D01*
X74276717Y732440D01*
X74267560Y723283D01*
X74100345Y576641D01*
X74090072Y568758D01*
X73905142Y445191D01*
X73893926Y438716D01*
X73694463Y340352D01*
X73682500Y335396D01*
X73471891Y263903D01*
X73459382Y260551D01*
X73241244Y217161D01*
X73228405Y215471D01*
X73003234Y200712D01*
X72996759Y200500D01*
X2003241Y200500D01*
X1996766Y200712D01*
X1771594Y215471D01*
X1758755Y217161D01*
X1540617Y260551D01*
X1528108Y263903D01*
X1317499Y335396D01*
X1305536Y340352D01*
X1106073Y438716D01*
X1094857Y445191D01*
X909927Y568758D01*
X899654Y576641D01*
X732439Y723283D01*
X723282Y732440D01*
X576640Y899655D01*
X568757Y909928D01*
X445190Y1094858D01*
X438715Y1106074D01*
X340351Y1305537D01*
X335395Y1317500D01*
X326349Y1344148D01*
X263900Y1528114D01*
X260550Y1540618D01*
X258684Y1550000D01*
X217159Y1758763D01*
X215470Y1771595D01*
X200712Y1996766D01*
X200500Y2003241D01*
X200500Y2103996D01*
X16879500Y2103996D01*
X16879500Y1166005D01*
X16906420Y1030673D01*
X16906420Y1030671D01*
X16959222Y903194D01*
X16959228Y903183D01*
X17035885Y788459D01*
X17133458Y690886D01*
X17248182Y614229D01*
X17248193Y614223D01*
X17283738Y599500D01*
X17375672Y561420D01*
X17511007Y534500D01*
X17511008Y534500D01*
X17648992Y534500D01*
X17648993Y534500D01*
X17784328Y561420D01*
X17911811Y614225D01*
X18026542Y690886D01*
X18124114Y788458D01*
X18200775Y903189D01*
X18253580Y1030672D01*
X18280500Y1166007D01*
X18280500Y2103993D01*
X18280499Y2103996D01*
X25519500Y2103996D01*
X25519500Y1166005D01*
X25546420Y1030673D01*
X25546420Y1030671D01*
X25599222Y903194D01*
X25599228Y903183D01*
X25675885Y788459D01*
X25773458Y690886D01*
X25888182Y614229D01*
X25888193Y614223D01*
X25923738Y599500D01*
X26015672Y561420D01*
X26151007Y534500D01*
X26151008Y534500D01*
X26288992Y534500D01*
X26288993Y534500D01*
X26424328Y561420D01*
X26551811Y614225D01*
X26666542Y690886D01*
X26764114Y788458D01*
X26840775Y903189D01*
X26893580Y1030672D01*
X26920500Y1166007D01*
X26920500Y2103993D01*
X26893580Y2239328D01*
X26875978Y2281823D01*
X26840777Y2366807D01*
X26840771Y2366818D01*
X26764114Y2481542D01*
X26679764Y2565892D01*
X36099500Y2565892D01*
X36099500Y2434108D01*
X36114717Y2377317D01*
X36133609Y2306810D01*
X36199496Y2192691D01*
X36199498Y2192689D01*
X36199500Y2192686D01*
X36292686Y2099500D01*
X36292688Y2099499D01*
X36292690Y2099497D01*
X36406810Y2033610D01*
X36406808Y2033610D01*
X36406812Y2033609D01*
X36406814Y2033608D01*
X36534108Y1999500D01*
X36534110Y1999500D01*
X36665890Y1999500D01*
X36665892Y1999500D01*
X36793186Y2033608D01*
X36793188Y2033610D01*
X36793190Y2033610D01*
X36907309Y2099497D01*
X36907309Y2099498D01*
X36907314Y2099500D01*
X36930498Y2122685D01*
X36985013Y2150460D01*
X37045445Y2140889D01*
X37088710Y2097624D01*
X37099500Y2052679D01*
X37099500Y1934108D01*
X37113984Y1880053D01*
X37133609Y1806810D01*
X37199496Y1692691D01*
X37199498Y1692689D01*
X37199500Y1692686D01*
X37272184Y1620002D01*
X37299960Y1565487D01*
X37290389Y1505055D01*
X37272185Y1480000D01*
X37199500Y1407314D01*
X37199497Y1407311D01*
X37199496Y1407310D01*
X37133609Y1293191D01*
X37133608Y1293186D01*
X37099500Y1165892D01*
X37099500Y1034108D01*
X37100421Y1030672D01*
X37133609Y906810D01*
X37199496Y792691D01*
X37199498Y792689D01*
X37199500Y792686D01*
X37292686Y699500D01*
X37292688Y699499D01*
X37292690Y699497D01*
X37406810Y633610D01*
X37406808Y633610D01*
X37406812Y633609D01*
X37406814Y633608D01*
X37534108Y599500D01*
X37534110Y599500D01*
X37665890Y599500D01*
X37665892Y599500D01*
X37793186Y633608D01*
X37793188Y633610D01*
X37793190Y633610D01*
X37907309Y699497D01*
X37907309Y699498D01*
X37907314Y699500D01*
X38000500Y792686D01*
X38066392Y906814D01*
X38100500Y1034108D01*
X38100500Y1165892D01*
X38066392Y1293186D01*
X38066390Y1293189D01*
X38066390Y1293191D01*
X38000503Y1407310D01*
X38000501Y1407312D01*
X38000500Y1407314D01*
X37927815Y1479999D01*
X37900040Y1534513D01*
X37909611Y1594945D01*
X37927814Y1620001D01*
X38000500Y1692686D01*
X38066392Y1806814D01*
X38100500Y1934108D01*
X38100500Y2065892D01*
X40199500Y2065892D01*
X40199500Y1934108D01*
X40213984Y1880053D01*
X40233609Y1806810D01*
X40299496Y1692691D01*
X40299498Y1692689D01*
X40299500Y1692686D01*
X40372184Y1620002D01*
X40399960Y1565487D01*
X40390389Y1505055D01*
X40372185Y1480000D01*
X40299500Y1407314D01*
X40299497Y1407311D01*
X40299496Y1407310D01*
X40233609Y1293191D01*
X40233608Y1293186D01*
X40199500Y1165892D01*
X40199500Y1034108D01*
X40200421Y1030672D01*
X40233609Y906810D01*
X40299496Y792691D01*
X40299498Y792689D01*
X40299500Y792686D01*
X40392686Y699500D01*
X40392688Y699499D01*
X40392690Y699497D01*
X40506810Y633610D01*
X40506808Y633610D01*
X40506812Y633609D01*
X40506814Y633608D01*
X40634108Y599500D01*
X40634110Y599500D01*
X40765890Y599500D01*
X40765892Y599500D01*
X40893186Y633608D01*
X40893188Y633610D01*
X40893190Y633610D01*
X41007309Y699497D01*
X41007309Y699498D01*
X41007314Y699500D01*
X41100500Y792686D01*
X41166392Y906814D01*
X41200500Y1034108D01*
X41200500Y1165892D01*
X41166392Y1293186D01*
X41166390Y1293189D01*
X41166390Y1293191D01*
X41100503Y1407310D01*
X41100501Y1407312D01*
X41100500Y1407314D01*
X41027815Y1479999D01*
X41000040Y1534513D01*
X41009611Y1594945D01*
X41027814Y1620001D01*
X41100500Y1692686D01*
X41166392Y1806814D01*
X41200500Y1934108D01*
X41200500Y2065892D01*
X41166392Y2193186D01*
X41166390Y2193189D01*
X41166390Y2193191D01*
X41100503Y2307310D01*
X41100501Y2307312D01*
X41100500Y2307314D01*
X41007314Y2400500D01*
X41007311Y2400502D01*
X41007309Y2400504D01*
X40893189Y2466391D01*
X40893191Y2466391D01*
X40836645Y2481542D01*
X40765892Y2500500D01*
X40634108Y2500500D01*
X40563355Y2481542D01*
X40506809Y2466391D01*
X40392690Y2400504D01*
X40299496Y2307310D01*
X40233609Y2193191D01*
X40233608Y2193186D01*
X40199500Y2065892D01*
X38100500Y2065892D01*
X38066392Y2193186D01*
X38066390Y2193189D01*
X38066390Y2193191D01*
X38000503Y2307310D01*
X38000501Y2307312D01*
X38000500Y2307314D01*
X37907314Y2400500D01*
X37907311Y2400502D01*
X37907309Y2400504D01*
X37793189Y2466391D01*
X37793191Y2466391D01*
X37736645Y2481542D01*
X37665892Y2500500D01*
X37534108Y2500500D01*
X37463355Y2481542D01*
X37406809Y2466391D01*
X37292690Y2400504D01*
X37292689Y2400503D01*
X37292686Y2400501D01*
X37292686Y2400500D01*
X37269501Y2377316D01*
X37214987Y2349540D01*
X37154555Y2359111D01*
X37111290Y2402376D01*
X37100500Y2447321D01*
X37100500Y2565891D01*
X37078832Y2646758D01*
X37076415Y2655778D01*
X37073705Y2665892D01*
X41799500Y2665892D01*
X41799500Y2534108D01*
X41813585Y2481542D01*
X41833609Y2406810D01*
X41899496Y2292691D01*
X41899498Y2292689D01*
X41899500Y2292686D01*
X41992686Y2199500D01*
X41992688Y2199499D01*
X41992690Y2199497D01*
X42106810Y2133610D01*
X42106808Y2133610D01*
X42106812Y2133609D01*
X42106814Y2133608D01*
X42234108Y2099500D01*
X42234110Y2099500D01*
X42365890Y2099500D01*
X42365892Y2099500D01*
X42493186Y2133608D01*
X42493188Y2133610D01*
X42493190Y2133610D01*
X42607309Y2199497D01*
X42607309Y2199498D01*
X42607314Y2199500D01*
X42700500Y2292686D01*
X42700503Y2292691D01*
X42766390Y2406810D01*
X42766390Y2406812D01*
X42766392Y2406814D01*
X42793130Y2506604D01*
X71245500Y2506604D01*
X71245500Y2293397D01*
X71278851Y2082826D01*
X71344736Y1880053D01*
X71441527Y1690088D01*
X71441531Y1690082D01*
X71566841Y1517609D01*
X71566843Y1517607D01*
X71566846Y1517603D01*
X71717603Y1366846D01*
X71717606Y1366844D01*
X71717608Y1366842D01*
X71818986Y1293186D01*
X71890087Y1241528D01*
X72080053Y1144736D01*
X72282821Y1078853D01*
X72282822Y1078853D01*
X72282825Y1078852D01*
X72493396Y1045500D01*
X72493399Y1045500D01*
X72706604Y1045500D01*
X72917174Y1078852D01*
X72917175Y1078853D01*
X72917179Y1078853D01*
X73119947Y1144736D01*
X73309913Y1241528D01*
X73482397Y1366846D01*
X73633154Y1517603D01*
X73758472Y1690087D01*
X73855264Y1880053D01*
X73921147Y2082821D01*
X73923788Y2099497D01*
X73954500Y2293397D01*
X73954500Y2506604D01*
X73921148Y2717175D01*
X73894399Y2799500D01*
X73855264Y2919947D01*
X73758472Y3109913D01*
X73758468Y3109919D01*
X73633158Y3282392D01*
X73633156Y3282394D01*
X73633154Y3282397D01*
X73482397Y3433154D01*
X73482393Y3433157D01*
X73482391Y3433159D01*
X73309918Y3558469D01*
X73309912Y3558473D01*
X73119947Y3655264D01*
X72917174Y3721149D01*
X72706604Y3754500D01*
X72706601Y3754500D01*
X72493399Y3754500D01*
X72493396Y3754500D01*
X72282825Y3721149D01*
X72080052Y3655264D01*
X71890087Y3558473D01*
X71890081Y3558469D01*
X71717608Y3433159D01*
X71566841Y3282392D01*
X71441531Y3109919D01*
X71441527Y3109913D01*
X71344736Y2919948D01*
X71278851Y2717175D01*
X71245500Y2506604D01*
X42793130Y2506604D01*
X42800500Y2534108D01*
X42800500Y2665892D01*
X42766392Y2793186D01*
X42766390Y2793189D01*
X42766390Y2793191D01*
X42700503Y2907310D01*
X42700501Y2907312D01*
X42700500Y2907314D01*
X42607314Y3000500D01*
X42607311Y3000502D01*
X42607309Y3000504D01*
X42493189Y3066391D01*
X42493191Y3066391D01*
X42443799Y3079625D01*
X42365892Y3100500D01*
X42234108Y3100500D01*
X42156200Y3079625D01*
X42106809Y3066391D01*
X41992690Y3000504D01*
X41899496Y2907310D01*
X41833609Y2793191D01*
X41833608Y2793186D01*
X41799500Y2665892D01*
X37073705Y2665892D01*
X37066392Y2693186D01*
X37066390Y2693189D01*
X37066390Y2693191D01*
X37000503Y2807310D01*
X37000501Y2807312D01*
X37000500Y2807314D01*
X36907314Y2900500D01*
X36907311Y2900502D01*
X36907309Y2900504D01*
X36793189Y2966391D01*
X36793191Y2966391D01*
X36743799Y2979625D01*
X36665892Y3000500D01*
X36534108Y3000500D01*
X36456200Y2979625D01*
X36406809Y2966391D01*
X36292690Y2900504D01*
X36199496Y2807310D01*
X36133609Y2693191D01*
X36123584Y2655775D01*
X36099500Y2565892D01*
X26679764Y2565892D01*
X26666541Y2579115D01*
X26551817Y2655772D01*
X26551806Y2655778D01*
X26424328Y2708580D01*
X26288995Y2735500D01*
X26288993Y2735500D01*
X26151007Y2735500D01*
X26151004Y2735500D01*
X26015672Y2708580D01*
X26015670Y2708580D01*
X25888193Y2655778D01*
X25888182Y2655772D01*
X25773458Y2579115D01*
X25675885Y2481542D01*
X25599228Y2366818D01*
X25599222Y2366807D01*
X25546420Y2239330D01*
X25546420Y2239328D01*
X25519500Y2103996D01*
X18280499Y2103996D01*
X18253580Y2239328D01*
X18235978Y2281823D01*
X18200777Y2366807D01*
X18200771Y2366818D01*
X18124114Y2481542D01*
X18026541Y2579115D01*
X17911817Y2655772D01*
X17911806Y2655778D01*
X17784328Y2708580D01*
X17648995Y2735500D01*
X17648993Y2735500D01*
X17511007Y2735500D01*
X17511004Y2735500D01*
X17375672Y2708580D01*
X17375670Y2708580D01*
X17248193Y2655778D01*
X17248182Y2655772D01*
X17133458Y2579115D01*
X17035885Y2481542D01*
X16959228Y2366818D01*
X16959222Y2366807D01*
X16906420Y2239330D01*
X16906420Y2239328D01*
X16879500Y2103996D01*
X200500Y2103996D01*
X200500Y3965892D01*
X11499500Y3965892D01*
X11499500Y3834108D01*
X11513378Y3782314D01*
X11533609Y3706810D01*
X11599496Y3592691D01*
X11599498Y3592689D01*
X11599500Y3592686D01*
X11692686Y3499500D01*
X11692688Y3499499D01*
X11692690Y3499497D01*
X11806810Y3433610D01*
X11806808Y3433610D01*
X11806812Y3433609D01*
X11806814Y3433608D01*
X11934108Y3399500D01*
X11934110Y3399500D01*
X12065890Y3399500D01*
X12065892Y3399500D01*
X12193186Y3433608D01*
X12193188Y3433610D01*
X12193190Y3433610D01*
X12307309Y3499497D01*
X12307309Y3499498D01*
X12307314Y3499500D01*
X12348706Y3540892D01*
X32899500Y3540892D01*
X32899500Y3409108D01*
X32919596Y3334108D01*
X32933609Y3281810D01*
X32999496Y3167691D01*
X32999498Y3167689D01*
X32999500Y3167686D01*
X33092686Y3074500D01*
X33092688Y3074499D01*
X33092690Y3074497D01*
X33206810Y3008610D01*
X33206808Y3008610D01*
X33206812Y3008609D01*
X33206814Y3008608D01*
X33334108Y2974500D01*
X33334110Y2974500D01*
X33465890Y2974500D01*
X33465892Y2974500D01*
X33593186Y3008608D01*
X33593188Y3008610D01*
X33593190Y3008610D01*
X33707309Y3074497D01*
X33707309Y3074498D01*
X33707314Y3074500D01*
X33800500Y3167686D01*
X33857199Y3265891D01*
X33866390Y3281810D01*
X33866390Y3281812D01*
X33866392Y3281814D01*
X33900500Y3409108D01*
X33900500Y3540892D01*
X33893801Y3565892D01*
X52099500Y3565892D01*
X52099500Y3434108D01*
X52106199Y3409108D01*
X52133609Y3306810D01*
X52199496Y3192691D01*
X52199498Y3192689D01*
X52199500Y3192686D01*
X52292686Y3099500D01*
X52292688Y3099499D01*
X52292690Y3099497D01*
X52406810Y3033610D01*
X52406808Y3033610D01*
X52406812Y3033609D01*
X52406814Y3033608D01*
X52534108Y2999500D01*
X52534110Y2999500D01*
X52665890Y2999500D01*
X52665892Y2999500D01*
X52793186Y3033608D01*
X52793188Y3033610D01*
X52793190Y3033610D01*
X52907309Y3099497D01*
X52907309Y3099498D01*
X52907314Y3099500D01*
X53000500Y3192686D01*
X53042766Y3265892D01*
X59999500Y3265892D01*
X59999500Y3134108D01*
X60008773Y3099500D01*
X60033609Y3006810D01*
X60099496Y2892691D01*
X60099498Y2892689D01*
X60099500Y2892686D01*
X60192686Y2799500D01*
X60192688Y2799499D01*
X60192690Y2799497D01*
X60306810Y2733610D01*
X60306808Y2733610D01*
X60306812Y2733609D01*
X60306814Y2733608D01*
X60434108Y2699500D01*
X60434110Y2699500D01*
X60565890Y2699500D01*
X60565892Y2699500D01*
X60693186Y2733608D01*
X60693188Y2733610D01*
X60693190Y2733610D01*
X60807309Y2799497D01*
X60807309Y2799498D01*
X60807314Y2799500D01*
X60900500Y2892686D01*
X60904434Y2899500D01*
X60966390Y3006810D01*
X60966390Y3006812D01*
X60966392Y3006814D01*
X61000500Y3134108D01*
X61000500Y3265892D01*
X60966392Y3393186D01*
X60966390Y3393189D01*
X60966390Y3393191D01*
X60924416Y3465892D01*
X66899500Y3465892D01*
X66899500Y3334108D01*
X66913356Y3282397D01*
X66933609Y3206810D01*
X66999496Y3092691D01*
X66999498Y3092689D01*
X66999500Y3092686D01*
X67092686Y2999500D01*
X67092688Y2999499D01*
X67092690Y2999497D01*
X67206810Y2933610D01*
X67206808Y2933610D01*
X67206812Y2933609D01*
X67206814Y2933608D01*
X67334108Y2899500D01*
X67334110Y2899500D01*
X67465890Y2899500D01*
X67465892Y2899500D01*
X67593186Y2933608D01*
X67593188Y2933610D01*
X67593190Y2933610D01*
X67707309Y2999497D01*
X67707309Y2999498D01*
X67707314Y2999500D01*
X67800500Y3092686D01*
X67804434Y3099500D01*
X67866390Y3206810D01*
X67866390Y3206812D01*
X67866392Y3206814D01*
X67900500Y3334108D01*
X67900500Y3465892D01*
X67866392Y3593186D01*
X67866390Y3593189D01*
X67866390Y3593191D01*
X67800503Y3707310D01*
X67800501Y3707312D01*
X67800500Y3707314D01*
X67707314Y3800500D01*
X67707311Y3800502D01*
X67707309Y3800504D01*
X67593189Y3866391D01*
X67593191Y3866391D01*
X67543799Y3879625D01*
X67465892Y3900500D01*
X67334108Y3900500D01*
X67256200Y3879625D01*
X67206809Y3866391D01*
X67092690Y3800504D01*
X66999496Y3707310D01*
X66933609Y3593191D01*
X66924306Y3558469D01*
X66899500Y3465892D01*
X60924416Y3465892D01*
X60900503Y3507310D01*
X60900501Y3507312D01*
X60900500Y3507314D01*
X60807314Y3600500D01*
X60807311Y3600502D01*
X60807309Y3600504D01*
X60693189Y3666391D01*
X60693191Y3666391D01*
X60643799Y3679625D01*
X60565892Y3700500D01*
X60434108Y3700500D01*
X60356200Y3679625D01*
X60306809Y3666391D01*
X60192690Y3600504D01*
X60099496Y3507310D01*
X60033609Y3393191D01*
X60033608Y3393186D01*
X59999500Y3265892D01*
X53042766Y3265892D01*
X53066392Y3306814D01*
X53100500Y3434108D01*
X53100500Y3565892D01*
X53066392Y3693186D01*
X53066390Y3693189D01*
X53066390Y3693191D01*
X53000503Y3807310D01*
X53000501Y3807312D01*
X53000500Y3807314D01*
X52907314Y3900500D01*
X52907311Y3900502D01*
X52907309Y3900504D01*
X52793189Y3966391D01*
X52793191Y3966391D01*
X52778722Y3970268D01*
X52665892Y4000500D01*
X52534108Y4000500D01*
X52456200Y3979625D01*
X52406809Y3966391D01*
X52292690Y3900504D01*
X52199496Y3807310D01*
X52133609Y3693191D01*
X52126428Y3666391D01*
X52099500Y3565892D01*
X33893801Y3565892D01*
X33866392Y3668186D01*
X33866390Y3668189D01*
X33866390Y3668191D01*
X33800503Y3782310D01*
X33800501Y3782312D01*
X33800500Y3782314D01*
X33707314Y3875500D01*
X33707311Y3875502D01*
X33707309Y3875504D01*
X33593189Y3941391D01*
X33593191Y3941391D01*
X33543799Y3954625D01*
X33465892Y3975500D01*
X33334108Y3975500D01*
X33256200Y3954625D01*
X33206809Y3941391D01*
X33092690Y3875504D01*
X32999496Y3782310D01*
X32933609Y3668191D01*
X32915473Y3600504D01*
X32899500Y3540892D01*
X12348706Y3540892D01*
X12400500Y3592686D01*
X12466392Y3706814D01*
X12500500Y3834108D01*
X12500500Y3965892D01*
X12473705Y4065892D01*
X62299500Y4065892D01*
X62299500Y3934108D01*
X62315203Y3875504D01*
X62333609Y3806810D01*
X62399496Y3692691D01*
X62399498Y3692689D01*
X62399500Y3692686D01*
X62492686Y3599500D01*
X62492688Y3599499D01*
X62492690Y3599497D01*
X62606810Y3533610D01*
X62606808Y3533610D01*
X62606812Y3533609D01*
X62606814Y3533608D01*
X62734108Y3499500D01*
X62734110Y3499500D01*
X62865890Y3499500D01*
X62865892Y3499500D01*
X62993186Y3533608D01*
X62993188Y3533610D01*
X62993190Y3533610D01*
X63035638Y3558117D01*
X63107309Y3599497D01*
X63107309Y3599498D01*
X63107314Y3599500D01*
X63200500Y3692686D01*
X63200792Y3693191D01*
X63266390Y3806810D01*
X63266390Y3806812D01*
X63266392Y3806814D01*
X63300500Y3934108D01*
X63300500Y4065892D01*
X63266392Y4193186D01*
X63266390Y4193189D01*
X63266390Y4193191D01*
X63200503Y4307310D01*
X63200501Y4307312D01*
X63200500Y4307314D01*
X63107314Y4400500D01*
X63107311Y4400502D01*
X63107309Y4400504D01*
X62993189Y4466391D01*
X62993191Y4466391D01*
X62943799Y4479625D01*
X62865892Y4500500D01*
X62734108Y4500500D01*
X62656200Y4479625D01*
X62606809Y4466391D01*
X62492690Y4400504D01*
X62399496Y4307310D01*
X62333609Y4193191D01*
X62333608Y4193186D01*
X62299500Y4065892D01*
X12473705Y4065892D01*
X12466392Y4093186D01*
X12466390Y4093189D01*
X12466390Y4093191D01*
X12400503Y4207310D01*
X12400501Y4207312D01*
X12400500Y4207314D01*
X12307314Y4300500D01*
X12307311Y4300502D01*
X12307309Y4300504D01*
X12193189Y4366391D01*
X12193191Y4366391D01*
X12143799Y4379625D01*
X12065892Y4400500D01*
X11934108Y4400500D01*
X11856200Y4379625D01*
X11806809Y4366391D01*
X11692690Y4300504D01*
X11599496Y4207310D01*
X11533609Y4093191D01*
X11526294Y4065891D01*
X11499500Y3965892D01*
X200500Y3965892D01*
X200500Y5865892D01*
X12399500Y5865892D01*
X12399500Y5734108D01*
X12429579Y5621849D01*
X12433609Y5606810D01*
X12499496Y5492691D01*
X12499498Y5492689D01*
X12499500Y5492686D01*
X12592686Y5399500D01*
X12592688Y5399499D01*
X12592690Y5399497D01*
X12706810Y5333610D01*
X12706808Y5333610D01*
X12706812Y5333609D01*
X12706814Y5333608D01*
X12834108Y5299500D01*
X12834110Y5299500D01*
X12965890Y5299500D01*
X12965892Y5299500D01*
X13093186Y5333608D01*
X13093188Y5333610D01*
X13093190Y5333610D01*
X13207309Y5399497D01*
X13207309Y5399498D01*
X13207314Y5399500D01*
X13300500Y5492686D01*
X13306819Y5503630D01*
X13366390Y5606810D01*
X13366390Y5606812D01*
X13366392Y5606814D01*
X13400500Y5734108D01*
X13400500Y5865892D01*
X13366392Y5993186D01*
X13366390Y5993189D01*
X13366390Y5993191D01*
X13300503Y6107310D01*
X13300501Y6107312D01*
X13300500Y6107314D01*
X13207314Y6200500D01*
X13207311Y6200502D01*
X13207309Y6200504D01*
X13093189Y6266391D01*
X13093191Y6266391D01*
X13043799Y6279625D01*
X12965892Y6300500D01*
X12834108Y6300500D01*
X12756200Y6279625D01*
X12706809Y6266391D01*
X12592690Y6200504D01*
X12499496Y6107310D01*
X12433609Y5993191D01*
X12433608Y5993186D01*
X12399500Y5865892D01*
X200500Y5865892D01*
X200500Y6765892D01*
X11499500Y6765892D01*
X11499500Y6634108D01*
X11516127Y6572055D01*
X11533609Y6506810D01*
X11599496Y6392691D01*
X11599498Y6392689D01*
X11599500Y6392686D01*
X11692686Y6299500D01*
X11692688Y6299499D01*
X11692690Y6299497D01*
X11806810Y6233610D01*
X11806808Y6233610D01*
X11806812Y6233609D01*
X11806814Y6233608D01*
X11934108Y6199500D01*
X11934110Y6199500D01*
X12065890Y6199500D01*
X12065892Y6199500D01*
X12193186Y6233608D01*
X12193188Y6233610D01*
X12193190Y6233610D01*
X12307309Y6299497D01*
X12307309Y6299498D01*
X12307314Y6299500D01*
X12400500Y6392686D01*
X12400503Y6392691D01*
X12424351Y6433996D01*
X16879500Y6433996D01*
X16879500Y6433993D01*
X16879500Y5196007D01*
X16905083Y5067391D01*
X16906420Y5060673D01*
X16906420Y5060671D01*
X16959222Y4933194D01*
X16959228Y4933183D01*
X17035885Y4818459D01*
X17133458Y4720886D01*
X17248182Y4644229D01*
X17248193Y4644223D01*
X17295283Y4624718D01*
X17375672Y4591420D01*
X17511007Y4564500D01*
X17511008Y4564500D01*
X17648992Y4564500D01*
X17648993Y4564500D01*
X17784328Y4591420D01*
X17911811Y4644225D01*
X18026542Y4720886D01*
X18124114Y4818458D01*
X18200775Y4933189D01*
X18253580Y5060672D01*
X18266451Y5125381D01*
X18296348Y5178764D01*
X18351913Y5204380D01*
X18411922Y5192443D01*
X18453455Y5147513D01*
X18459176Y5131689D01*
X18469993Y5091318D01*
X18546281Y4959184D01*
X18546283Y4959182D01*
X18546285Y4959179D01*
X18654179Y4851285D01*
X18654181Y4851284D01*
X18654183Y4851282D01*
X18786318Y4774994D01*
X18786319Y4774994D01*
X18786322Y4774992D01*
X18933707Y4735500D01*
X18933708Y4735500D01*
X19086292Y4735500D01*
X19086293Y4735500D01*
X19233678Y4774992D01*
X19233680Y4774994D01*
X19233682Y4774994D01*
X19365816Y4851282D01*
X19365816Y4851283D01*
X19365821Y4851285D01*
X19473715Y4959179D01*
X19498149Y5001500D01*
X19550006Y5091318D01*
X19550006Y5091320D01*
X19550008Y5091322D01*
X19589500Y5238707D01*
X19589500Y5391293D01*
X24210500Y5391293D01*
X24210500Y5238707D01*
X24223366Y5190691D01*
X24249993Y5091318D01*
X24326281Y4959184D01*
X24326283Y4959182D01*
X24326285Y4959179D01*
X24434179Y4851285D01*
X24434181Y4851284D01*
X24434183Y4851282D01*
X24566318Y4774994D01*
X24566319Y4774994D01*
X24566322Y4774992D01*
X24713707Y4735500D01*
X24713708Y4735500D01*
X24866292Y4735500D01*
X24866293Y4735500D01*
X25013678Y4774992D01*
X25013680Y4774994D01*
X25013682Y4774994D01*
X25145816Y4851282D01*
X25145816Y4851283D01*
X25145821Y4851285D01*
X25253715Y4959179D01*
X25330008Y5091322D01*
X25340824Y5131691D01*
X25374146Y5183002D01*
X25431267Y5204930D01*
X25490368Y5189095D01*
X25528874Y5141546D01*
X25533547Y5125381D01*
X25546417Y5060681D01*
X25546420Y5060671D01*
X25599222Y4933194D01*
X25599228Y4933183D01*
X25675885Y4818459D01*
X25773458Y4720886D01*
X25888182Y4644229D01*
X25888193Y4644223D01*
X25935283Y4624718D01*
X26015672Y4591420D01*
X26151007Y4564500D01*
X26151008Y4564500D01*
X26288992Y4564500D01*
X26288993Y4564500D01*
X26424328Y4591420D01*
X26551811Y4644225D01*
X26585734Y4666892D01*
X42799500Y4666892D01*
X42799500Y4535108D01*
X42829579Y4422849D01*
X42833609Y4407810D01*
X42899496Y4293691D01*
X42899498Y4293689D01*
X42899500Y4293686D01*
X42992686Y4200500D01*
X42992688Y4200499D01*
X42992690Y4200497D01*
X43106810Y4134610D01*
X43106808Y4134610D01*
X43106812Y4134609D01*
X43106814Y4134608D01*
X43234108Y4100500D01*
X43234110Y4100500D01*
X43365890Y4100500D01*
X43365892Y4100500D01*
X43493186Y4134608D01*
X43493188Y4134610D01*
X43493190Y4134610D01*
X43607309Y4200497D01*
X43607309Y4200498D01*
X43607314Y4200500D01*
X43700500Y4293686D01*
X43704434Y4300500D01*
X43766390Y4407810D01*
X43766390Y4407812D01*
X43766392Y4407814D01*
X43800500Y4535108D01*
X43800500Y4666892D01*
X43766392Y4794186D01*
X43766390Y4794189D01*
X43766390Y4794191D01*
X43700503Y4908310D01*
X43700501Y4908312D01*
X43700500Y4908314D01*
X43607314Y5001500D01*
X43607311Y5001502D01*
X43607309Y5001504D01*
X43493189Y5067391D01*
X43493191Y5067391D01*
X43443799Y5080625D01*
X43365892Y5101500D01*
X43234108Y5101500D01*
X43156200Y5080625D01*
X43106809Y5067391D01*
X42992690Y5001504D01*
X42899496Y4908310D01*
X42833609Y4794191D01*
X42828465Y4774992D01*
X42799500Y4666892D01*
X26585734Y4666892D01*
X26666542Y4720886D01*
X26764114Y4818458D01*
X26840775Y4933189D01*
X26893580Y5060672D01*
X26920500Y5196007D01*
X26920500Y5365892D01*
X34612000Y5365892D01*
X34612000Y5234108D01*
X34635203Y5147513D01*
X34646109Y5106810D01*
X34711996Y4992691D01*
X34711998Y4992689D01*
X34712000Y4992686D01*
X34805186Y4899500D01*
X34805188Y4899499D01*
X34805190Y4899497D01*
X34919310Y4833610D01*
X34919308Y4833610D01*
X34919312Y4833609D01*
X34919314Y4833608D01*
X35046608Y4799500D01*
X35046610Y4799500D01*
X35178390Y4799500D01*
X35178392Y4799500D01*
X35305686Y4833608D01*
X35305688Y4833610D01*
X35305690Y4833610D01*
X35419809Y4899497D01*
X35419809Y4899498D01*
X35419814Y4899500D01*
X35513000Y4992686D01*
X35552252Y5060672D01*
X35578890Y5106810D01*
X35578890Y5106812D01*
X35578892Y5106814D01*
X35613000Y5234108D01*
X35613000Y5365892D01*
X35578892Y5493186D01*
X35578890Y5493189D01*
X35578890Y5493191D01*
X35538071Y5563892D01*
X44778807Y5563892D01*
X44778807Y5432108D01*
X44796550Y5365891D01*
X44812916Y5304810D01*
X44878803Y5190691D01*
X44878805Y5190689D01*
X44878807Y5190686D01*
X44971993Y5097500D01*
X44971995Y5097499D01*
X44971997Y5097497D01*
X45086117Y5031610D01*
X45086115Y5031610D01*
X45086119Y5031609D01*
X45086121Y5031608D01*
X45213415Y4997500D01*
X45213417Y4997500D01*
X45345197Y4997500D01*
X45345199Y4997500D01*
X45472493Y5031608D01*
X45472495Y5031610D01*
X45472497Y5031610D01*
X45586616Y5097497D01*
X45586616Y5097498D01*
X45586621Y5097500D01*
X45679807Y5190686D01*
X45679810Y5190691D01*
X45745697Y5304810D01*
X45745697Y5304812D01*
X45745699Y5304814D01*
X45779807Y5432108D01*
X45779807Y5563892D01*
X57559500Y5563892D01*
X57559500Y5432108D01*
X57577243Y5365891D01*
X57593609Y5304810D01*
X57659496Y5190691D01*
X57659498Y5190689D01*
X57659500Y5190686D01*
X57752686Y5097500D01*
X57752688Y5097499D01*
X57752690Y5097497D01*
X57866810Y5031610D01*
X57866808Y5031610D01*
X57866812Y5031609D01*
X57866814Y5031608D01*
X57994108Y4997500D01*
X57994110Y4997500D01*
X58125890Y4997500D01*
X58125892Y4997500D01*
X58253186Y5031608D01*
X58253188Y5031610D01*
X58253190Y5031610D01*
X58367309Y5097497D01*
X58367309Y5097498D01*
X58367314Y5097500D01*
X58460500Y5190686D01*
X58460503Y5190691D01*
X58526390Y5304810D01*
X58526390Y5304812D01*
X58526392Y5304814D01*
X58560500Y5432108D01*
X58560500Y5563892D01*
X58526392Y5691186D01*
X58526390Y5691189D01*
X58526390Y5691191D01*
X58460503Y5805310D01*
X58460501Y5805312D01*
X58460500Y5805314D01*
X58367314Y5898500D01*
X58367311Y5898502D01*
X58367309Y5898504D01*
X58253189Y5964391D01*
X58253191Y5964391D01*
X58203799Y5977625D01*
X58125892Y5998500D01*
X57994108Y5998500D01*
X57916200Y5977625D01*
X57866809Y5964391D01*
X57752690Y5898504D01*
X57659496Y5805310D01*
X57593609Y5691191D01*
X57593608Y5691186D01*
X57559500Y5563892D01*
X45779807Y5563892D01*
X45745699Y5691186D01*
X45745697Y5691189D01*
X45745697Y5691191D01*
X45679810Y5805310D01*
X45679808Y5805312D01*
X45679807Y5805314D01*
X45586621Y5898500D01*
X45586618Y5898502D01*
X45586616Y5898504D01*
X45472496Y5964391D01*
X45472498Y5964391D01*
X45423106Y5977625D01*
X45345199Y5998500D01*
X45213415Y5998500D01*
X45135507Y5977625D01*
X45086116Y5964391D01*
X44971997Y5898504D01*
X44878803Y5805310D01*
X44812916Y5691191D01*
X44812915Y5691186D01*
X44778807Y5563892D01*
X35538071Y5563892D01*
X35513003Y5607310D01*
X35513001Y5607312D01*
X35513000Y5607314D01*
X35419814Y5700500D01*
X35419811Y5700502D01*
X35419809Y5700504D01*
X35305689Y5766391D01*
X35305691Y5766391D01*
X35256299Y5779625D01*
X35178392Y5800500D01*
X35046608Y5800500D01*
X34968700Y5779625D01*
X34919309Y5766391D01*
X34805190Y5700504D01*
X34711996Y5607310D01*
X34646109Y5493191D01*
X34629743Y5432110D01*
X34612000Y5365892D01*
X26920500Y5365892D01*
X26920500Y6137447D01*
X37700431Y6137447D01*
X37700431Y6005663D01*
X37711490Y5964391D01*
X37734540Y5878365D01*
X37800427Y5764246D01*
X37800429Y5764244D01*
X37800431Y5764241D01*
X37893617Y5671055D01*
X37893619Y5671054D01*
X37893621Y5671052D01*
X38007741Y5605165D01*
X38007739Y5605165D01*
X38007743Y5605164D01*
X38007745Y5605163D01*
X38135039Y5571055D01*
X38135041Y5571055D01*
X38266821Y5571055D01*
X38266823Y5571055D01*
X38394117Y5605163D01*
X38394119Y5605165D01*
X38394121Y5605165D01*
X38482373Y5656117D01*
X38508240Y5671052D01*
X38508240Y5671053D01*
X38508245Y5671055D01*
X38601431Y5764241D01*
X38653835Y5855007D01*
X38667321Y5878365D01*
X38667321Y5878367D01*
X38667323Y5878369D01*
X38701431Y6005663D01*
X38701431Y6137447D01*
X38667323Y6264741D01*
X38667321Y6264744D01*
X38667321Y6264746D01*
X38601434Y6378865D01*
X38601432Y6378867D01*
X38601431Y6378869D01*
X38508245Y6472055D01*
X38508242Y6472057D01*
X38508240Y6472059D01*
X38394120Y6537946D01*
X38394122Y6537946D01*
X38344730Y6551180D01*
X38266823Y6572055D01*
X38135039Y6572055D01*
X38057131Y6551180D01*
X38007740Y6537946D01*
X37893621Y6472059D01*
X37800427Y6378865D01*
X37734540Y6264746D01*
X37725140Y6229664D01*
X37700431Y6137447D01*
X26920500Y6137447D01*
X26920500Y6433993D01*
X26893580Y6569328D01*
X26840775Y6696811D01*
X26840773Y6696814D01*
X26840771Y6696818D01*
X26834106Y6706793D01*
X27891871Y6706793D01*
X27891871Y6575009D01*
X27910145Y6506810D01*
X27925980Y6447711D01*
X27991867Y6333592D01*
X27991869Y6333590D01*
X27991871Y6333587D01*
X28085057Y6240401D01*
X28085059Y6240400D01*
X28085061Y6240398D01*
X28199181Y6174511D01*
X28199179Y6174511D01*
X28199183Y6174510D01*
X28199185Y6174509D01*
X28326479Y6140401D01*
X28326481Y6140401D01*
X28458261Y6140401D01*
X28458263Y6140401D01*
X28585557Y6174509D01*
X28585559Y6174511D01*
X28585561Y6174511D01*
X28681089Y6229664D01*
X28681097Y6229670D01*
X28699685Y6240401D01*
X28792871Y6333587D01*
X28792874Y6333592D01*
X28858761Y6447711D01*
X28858761Y6447713D01*
X28858763Y6447715D01*
X28892871Y6575009D01*
X28892871Y6706793D01*
X28858763Y6834087D01*
X28858761Y6834090D01*
X28858761Y6834092D01*
X28792874Y6948211D01*
X28792872Y6948213D01*
X28792871Y6948215D01*
X28699685Y7041401D01*
X28699682Y7041403D01*
X28699680Y7041405D01*
X28669463Y7058851D01*
X48743932Y7058851D01*
X48743932Y6927067D01*
X48774011Y6814808D01*
X48778041Y6799769D01*
X48843928Y6685650D01*
X48843930Y6685648D01*
X48843932Y6685645D01*
X48937118Y6592459D01*
X48937120Y6592458D01*
X48937122Y6592456D01*
X49051242Y6526569D01*
X49051240Y6526569D01*
X49051244Y6526568D01*
X49051246Y6526567D01*
X49178540Y6492459D01*
X49178542Y6492459D01*
X49310322Y6492459D01*
X49310324Y6492459D01*
X49437618Y6526567D01*
X49437620Y6526569D01*
X49437622Y6526569D01*
X49551741Y6592456D01*
X49551741Y6592457D01*
X49551746Y6592459D01*
X49644932Y6685645D01*
X49644935Y6685650D01*
X49710822Y6799769D01*
X49710822Y6799771D01*
X49710824Y6799773D01*
X49744932Y6927067D01*
X49744932Y7058851D01*
X49710824Y7186145D01*
X49710822Y7186148D01*
X49710822Y7186150D01*
X49644935Y7300269D01*
X49644933Y7300271D01*
X49644932Y7300273D01*
X49554313Y7390892D01*
X70324500Y7390892D01*
X70324500Y7259108D01*
X70337793Y7209498D01*
X70358609Y7131810D01*
X70424496Y7017691D01*
X70424498Y7017689D01*
X70424500Y7017686D01*
X70517686Y6924500D01*
X70517688Y6924499D01*
X70517690Y6924497D01*
X70631810Y6858610D01*
X70631808Y6858610D01*
X70631812Y6858609D01*
X70631814Y6858608D01*
X70759108Y6824500D01*
X70759110Y6824500D01*
X70890890Y6824500D01*
X70890892Y6824500D01*
X71018186Y6858608D01*
X71018188Y6858610D01*
X71018190Y6858610D01*
X71132309Y6924497D01*
X71132309Y6924498D01*
X71132314Y6924500D01*
X71225500Y7017686D01*
X71249267Y7058851D01*
X71291390Y7131810D01*
X71291390Y7131812D01*
X71291392Y7131814D01*
X71325500Y7259108D01*
X71325500Y7390892D01*
X71291392Y7518186D01*
X71291390Y7518189D01*
X71291390Y7518191D01*
X71225503Y7632310D01*
X71225501Y7632312D01*
X71225500Y7632314D01*
X71132314Y7725500D01*
X71132311Y7725502D01*
X71132309Y7725504D01*
X71018189Y7791391D01*
X71018191Y7791391D01*
X70968799Y7804625D01*
X70890892Y7825500D01*
X70759108Y7825500D01*
X70681200Y7804625D01*
X70631809Y7791391D01*
X70517690Y7725504D01*
X70424496Y7632310D01*
X70358609Y7518191D01*
X70342843Y7459351D01*
X70324500Y7390892D01*
X49554313Y7390892D01*
X49551746Y7393459D01*
X49551743Y7393461D01*
X49551741Y7393463D01*
X49437621Y7459350D01*
X49437623Y7459350D01*
X49388231Y7472584D01*
X49310324Y7493459D01*
X49178540Y7493459D01*
X49100632Y7472584D01*
X49051241Y7459350D01*
X48937122Y7393463D01*
X48843928Y7300269D01*
X48778041Y7186150D01*
X48778040Y7186145D01*
X48743932Y7058851D01*
X28669463Y7058851D01*
X28585560Y7107292D01*
X28585562Y7107292D01*
X28536170Y7120526D01*
X28458263Y7141401D01*
X28326479Y7141401D01*
X28248571Y7120526D01*
X28199180Y7107292D01*
X28085061Y7041405D01*
X27991867Y6948211D01*
X27925980Y6834092D01*
X27907706Y6765892D01*
X27891871Y6706793D01*
X26834106Y6706793D01*
X26764114Y6811542D01*
X26666541Y6909115D01*
X26551817Y6985772D01*
X26551806Y6985778D01*
X26424328Y7038580D01*
X26288995Y7065500D01*
X26288993Y7065500D01*
X26151007Y7065500D01*
X26151004Y7065500D01*
X26015672Y7038580D01*
X26015670Y7038580D01*
X25888193Y6985778D01*
X25888182Y6985772D01*
X25773458Y6909115D01*
X25675885Y6811542D01*
X25599228Y6696818D01*
X25599222Y6696807D01*
X25546420Y6569330D01*
X25546420Y6569328D01*
X25519500Y6433996D01*
X25519500Y5578911D01*
X25500593Y5520720D01*
X25451093Y5484756D01*
X25389907Y5484756D01*
X25340407Y5520720D01*
X25333437Y5533166D01*
X25333253Y5533059D01*
X25253718Y5670817D01*
X25253716Y5670819D01*
X25253715Y5670821D01*
X25145821Y5778715D01*
X25145818Y5778717D01*
X25145816Y5778719D01*
X25013681Y5855007D01*
X25013682Y5855007D01*
X24926494Y5878369D01*
X24866293Y5894500D01*
X24713707Y5894500D01*
X24653506Y5878369D01*
X24566317Y5855007D01*
X24434183Y5778719D01*
X24326281Y5670817D01*
X24249993Y5538683D01*
X24234327Y5480216D01*
X24210500Y5391293D01*
X19589500Y5391293D01*
X19550008Y5538678D01*
X19550006Y5538681D01*
X19550006Y5538683D01*
X19473718Y5670817D01*
X19473716Y5670819D01*
X19473715Y5670821D01*
X19365821Y5778715D01*
X19365818Y5778717D01*
X19365816Y5778719D01*
X19233681Y5855007D01*
X19233682Y5855007D01*
X19146494Y5878369D01*
X19086293Y5894500D01*
X18933707Y5894500D01*
X18873506Y5878369D01*
X18786317Y5855007D01*
X18654183Y5778719D01*
X18546281Y5670817D01*
X18466747Y5533059D01*
X18465014Y5534060D01*
X18431228Y5494500D01*
X18371734Y5480216D01*
X18315206Y5503630D01*
X18283236Y5555799D01*
X18280500Y5578911D01*
X18280500Y6433992D01*
X18280499Y6433996D01*
X18277771Y6447711D01*
X18253580Y6569328D01*
X18200775Y6696811D01*
X18200774Y6696813D01*
X18200771Y6696818D01*
X18124114Y6811542D01*
X18026541Y6909115D01*
X17911817Y6985772D01*
X17911806Y6985778D01*
X17784328Y7038580D01*
X17648995Y7065500D01*
X17648993Y7065500D01*
X17511007Y7065500D01*
X17511004Y7065500D01*
X17375672Y7038580D01*
X17375670Y7038580D01*
X17248193Y6985778D01*
X17248182Y6985772D01*
X17133458Y6909115D01*
X17035885Y6811542D01*
X16959228Y6696818D01*
X16959222Y6696807D01*
X16906420Y6569330D01*
X16906420Y6569328D01*
X16879500Y6433996D01*
X12424351Y6433996D01*
X12455737Y6488357D01*
X12464420Y6503399D01*
X12466392Y6506814D01*
X12500500Y6634108D01*
X12500500Y6765892D01*
X12466392Y6893186D01*
X12466390Y6893189D01*
X12466390Y6893191D01*
X12400503Y7007310D01*
X12400501Y7007312D01*
X12400500Y7007314D01*
X12307314Y7100500D01*
X12307311Y7100502D01*
X12307309Y7100504D01*
X12193189Y7166391D01*
X12193191Y7166391D01*
X12143799Y7179625D01*
X12065892Y7200500D01*
X11934108Y7200500D01*
X11856200Y7179625D01*
X11806809Y7166391D01*
X11692690Y7100504D01*
X11599496Y7007310D01*
X11533609Y6893191D01*
X11533608Y6893186D01*
X11499500Y6765892D01*
X200500Y6765892D01*
X200500Y7365892D01*
X5199500Y7365892D01*
X5199500Y7234108D01*
X5217644Y7166392D01*
X5233609Y7106810D01*
X5299496Y6992691D01*
X5299498Y6992689D01*
X5299500Y6992686D01*
X5392686Y6899500D01*
X5392688Y6899499D01*
X5392690Y6899497D01*
X5506810Y6833610D01*
X5506808Y6833610D01*
X5506812Y6833609D01*
X5506814Y6833608D01*
X5634108Y6799500D01*
X5634110Y6799500D01*
X5765890Y6799500D01*
X5765892Y6799500D01*
X5893186Y6833608D01*
X5893188Y6833610D01*
X5893190Y6833610D01*
X5935638Y6858117D01*
X6007309Y6899497D01*
X6007309Y6899498D01*
X6007314Y6899500D01*
X6100500Y6992686D01*
X6138700Y7058850D01*
X6166390Y7106810D01*
X6166390Y7106812D01*
X6166392Y7106814D01*
X6200500Y7234108D01*
X6200500Y7365892D01*
X6166392Y7493186D01*
X6166390Y7493189D01*
X6166390Y7493191D01*
X6100503Y7607310D01*
X6100501Y7607312D01*
X6100500Y7607314D01*
X6007314Y7700500D01*
X6007311Y7700502D01*
X6007309Y7700504D01*
X5935813Y7741782D01*
X30659400Y7741782D01*
X30659400Y7609998D01*
X30683999Y7518191D01*
X30693509Y7482700D01*
X30759396Y7368581D01*
X30759398Y7368579D01*
X30759400Y7368576D01*
X30852586Y7275390D01*
X30852588Y7275389D01*
X30852590Y7275387D01*
X30966710Y7209500D01*
X30966708Y7209500D01*
X30966712Y7209499D01*
X30966714Y7209498D01*
X31094008Y7175390D01*
X31094010Y7175390D01*
X31225790Y7175390D01*
X31225792Y7175390D01*
X31353086Y7209498D01*
X31353088Y7209500D01*
X31353090Y7209500D01*
X31467209Y7275387D01*
X31467209Y7275388D01*
X31467214Y7275390D01*
X31560400Y7368576D01*
X31626292Y7482704D01*
X31660400Y7609998D01*
X31660400Y7741782D01*
X31639881Y7818361D01*
X31643084Y7879461D01*
X31681589Y7927011D01*
X31687658Y7930204D01*
X31687566Y7930364D01*
X31693183Y7933608D01*
X31693186Y7933608D01*
X31807314Y7999500D01*
X31900500Y8092686D01*
X31900503Y8092691D01*
X31966390Y8206810D01*
X31966390Y8206812D01*
X31966392Y8206814D01*
X32000500Y8334108D01*
X32000500Y8465892D01*
X31966392Y8593186D01*
X31966390Y8593189D01*
X31966390Y8593191D01*
X31900503Y8707310D01*
X31900501Y8707312D01*
X31900500Y8707314D01*
X31807314Y8800500D01*
X31807311Y8800502D01*
X31807309Y8800504D01*
X31693189Y8866391D01*
X31693191Y8866391D01*
X31643799Y8879625D01*
X31565892Y8900500D01*
X31434108Y8900500D01*
X31356200Y8879625D01*
X31306809Y8866391D01*
X31192690Y8800504D01*
X31099496Y8707310D01*
X31033609Y8593191D01*
X30999500Y8465891D01*
X30999500Y8334109D01*
X31020018Y8257531D01*
X31016815Y8196430D01*
X30978309Y8148880D01*
X30972241Y8145687D01*
X30972333Y8145527D01*
X30852590Y8076394D01*
X30759396Y7983200D01*
X30693509Y7869081D01*
X30675133Y7800500D01*
X30659400Y7741782D01*
X5935813Y7741782D01*
X5893189Y7766391D01*
X5893191Y7766391D01*
X5843799Y7779625D01*
X5765892Y7800500D01*
X5634108Y7800500D01*
X5556200Y7779625D01*
X5506809Y7766391D01*
X5392690Y7700504D01*
X5299496Y7607310D01*
X5233609Y7493191D01*
X5233608Y7493186D01*
X5199500Y7365892D01*
X200500Y7365892D01*
X200500Y9260979D01*
X35674379Y9260979D01*
X35674379Y9129195D01*
X35699991Y9033610D01*
X35708488Y9001897D01*
X35774375Y8887778D01*
X35774377Y8887776D01*
X35774379Y8887773D01*
X35867565Y8794587D01*
X35867567Y8794586D01*
X35867569Y8794584D01*
X35981689Y8728697D01*
X35981687Y8728697D01*
X35981691Y8728696D01*
X35981693Y8728695D01*
X36108987Y8694587D01*
X36108989Y8694587D01*
X36240769Y8694587D01*
X36240771Y8694587D01*
X36368065Y8728695D01*
X36368067Y8728697D01*
X36368069Y8728697D01*
X36482188Y8794584D01*
X36482188Y8794585D01*
X36482193Y8794587D01*
X36575379Y8887773D01*
X36641271Y9001901D01*
X36675379Y9129195D01*
X36675379Y9260979D01*
X36641271Y9388273D01*
X36641269Y9388276D01*
X36641269Y9388278D01*
X36575382Y9502397D01*
X36575380Y9502399D01*
X36575379Y9502401D01*
X36511888Y9565892D01*
X38499500Y9565892D01*
X38499500Y9434108D01*
X38526428Y9333610D01*
X38533609Y9306810D01*
X38599496Y9192691D01*
X38599498Y9192689D01*
X38599500Y9192686D01*
X38692686Y9099500D01*
X38692688Y9099499D01*
X38692690Y9099497D01*
X38806810Y9033610D01*
X38806808Y9033610D01*
X38806812Y9033609D01*
X38806814Y9033608D01*
X38934108Y8999500D01*
X38934110Y8999500D01*
X39065890Y8999500D01*
X39065892Y8999500D01*
X39193186Y9033608D01*
X39193188Y9033610D01*
X39193190Y9033610D01*
X39307309Y9099497D01*
X39307309Y9099498D01*
X39307314Y9099500D01*
X39400500Y9192686D01*
X39439929Y9260979D01*
X39466390Y9306810D01*
X39466390Y9306812D01*
X39466392Y9306814D01*
X39500500Y9434108D01*
X39500500Y9565892D01*
X39466392Y9693186D01*
X39466390Y9693189D01*
X39466390Y9693191D01*
X39400503Y9807310D01*
X39400501Y9807312D01*
X39400500Y9807314D01*
X39341922Y9865892D01*
X70399500Y9865892D01*
X70399500Y9734108D01*
X70409822Y9695587D01*
X70433609Y9606810D01*
X70499496Y9492691D01*
X70499498Y9492689D01*
X70499500Y9492686D01*
X70592686Y9399500D01*
X70592688Y9399499D01*
X70592690Y9399497D01*
X70706810Y9333610D01*
X70706808Y9333610D01*
X70706812Y9333609D01*
X70706814Y9333608D01*
X70834108Y9299500D01*
X70834110Y9299500D01*
X70965890Y9299500D01*
X70965892Y9299500D01*
X71093186Y9333608D01*
X71093188Y9333610D01*
X71093190Y9333610D01*
X71207309Y9399497D01*
X71207309Y9399498D01*
X71207314Y9399500D01*
X71300500Y9492686D01*
X71306109Y9502401D01*
X71366390Y9606810D01*
X71366390Y9606812D01*
X71366392Y9606814D01*
X71400500Y9734108D01*
X71400500Y9865892D01*
X71366392Y9993186D01*
X71366390Y9993189D01*
X71366390Y9993191D01*
X71300503Y10107310D01*
X71300501Y10107312D01*
X71300500Y10107314D01*
X71207314Y10200500D01*
X71207311Y10200502D01*
X71207309Y10200504D01*
X71093189Y10266391D01*
X71093191Y10266391D01*
X71043799Y10279625D01*
X70965892Y10300500D01*
X70834108Y10300500D01*
X70756200Y10279625D01*
X70706809Y10266391D01*
X70592690Y10200504D01*
X70499496Y10107310D01*
X70433609Y9993191D01*
X70426428Y9966391D01*
X70399500Y9865892D01*
X39341922Y9865892D01*
X39307314Y9900500D01*
X39307311Y9900502D01*
X39307309Y9900504D01*
X39193189Y9966391D01*
X39193191Y9966391D01*
X39143799Y9979625D01*
X39065892Y10000500D01*
X38934108Y10000500D01*
X38856200Y9979625D01*
X38806809Y9966391D01*
X38692690Y9900504D01*
X38599496Y9807310D01*
X38533609Y9693191D01*
X38533608Y9693186D01*
X38499500Y9565892D01*
X36511888Y9565892D01*
X36482193Y9595587D01*
X36482190Y9595589D01*
X36482188Y9595591D01*
X36368068Y9661478D01*
X36368070Y9661478D01*
X36318678Y9674712D01*
X36240771Y9695587D01*
X36108987Y9695587D01*
X36031079Y9674712D01*
X35981688Y9661478D01*
X35867569Y9595591D01*
X35774375Y9502397D01*
X35708488Y9388278D01*
X35708487Y9388273D01*
X35674379Y9260979D01*
X200500Y9260979D01*
X200500Y10065892D01*
X34499500Y10065892D01*
X34499500Y9934108D01*
X34517778Y9865892D01*
X34533609Y9806810D01*
X34599496Y9692691D01*
X34599498Y9692689D01*
X34599500Y9692686D01*
X34692686Y9599500D01*
X34692688Y9599499D01*
X34692690Y9599497D01*
X34806810Y9533610D01*
X34806808Y9533610D01*
X34806812Y9533609D01*
X34806814Y9533608D01*
X34934108Y9499500D01*
X34934110Y9499500D01*
X35065890Y9499500D01*
X35065892Y9499500D01*
X35193186Y9533608D01*
X35193188Y9533610D01*
X35193190Y9533610D01*
X35307309Y9599497D01*
X35307309Y9599498D01*
X35307314Y9599500D01*
X35400500Y9692686D01*
X35466392Y9806814D01*
X35500500Y9934108D01*
X35500500Y10065892D01*
X35466392Y10193186D01*
X35466390Y10193189D01*
X35466390Y10193191D01*
X35400503Y10307310D01*
X35400501Y10307312D01*
X35400500Y10307314D01*
X35307314Y10400500D01*
X35307311Y10400502D01*
X35307309Y10400504D01*
X35193189Y10466391D01*
X35193191Y10466391D01*
X35143799Y10479625D01*
X35065892Y10500500D01*
X34934108Y10500500D01*
X34856200Y10479625D01*
X34806809Y10466391D01*
X34692690Y10400504D01*
X34599496Y10307310D01*
X34533609Y10193191D01*
X34533608Y10193186D01*
X34499500Y10065892D01*
X200500Y10065892D01*
X200500Y10865892D01*
X33199500Y10865892D01*
X33199500Y10734108D01*
X33229579Y10621849D01*
X33233609Y10606810D01*
X33299496Y10492691D01*
X33299498Y10492689D01*
X33299500Y10492686D01*
X33392686Y10399500D01*
X33392688Y10399499D01*
X33392690Y10399497D01*
X33506810Y10333610D01*
X33506808Y10333610D01*
X33506812Y10333609D01*
X33506814Y10333608D01*
X33634108Y10299500D01*
X33634110Y10299500D01*
X33765890Y10299500D01*
X33765892Y10299500D01*
X33893186Y10333608D01*
X33893188Y10333610D01*
X33893190Y10333610D01*
X34007309Y10399497D01*
X34007309Y10399498D01*
X34007314Y10399500D01*
X34100500Y10492686D01*
X34100503Y10492691D01*
X34166390Y10606810D01*
X34166390Y10606812D01*
X34166392Y10606814D01*
X34200500Y10734108D01*
X34200500Y10865892D01*
X34197366Y10877587D01*
X39770532Y10877587D01*
X39770532Y10745803D01*
X39786770Y10685201D01*
X39804641Y10618505D01*
X39870528Y10504386D01*
X39870530Y10504384D01*
X39870532Y10504381D01*
X39963718Y10411195D01*
X39963720Y10411194D01*
X39963722Y10411192D01*
X40077842Y10345305D01*
X40077840Y10345305D01*
X40077844Y10345304D01*
X40077846Y10345303D01*
X40205140Y10311195D01*
X40205142Y10311195D01*
X40336923Y10311195D01*
X40336924Y10311195D01*
X40438458Y10338401D01*
X40499558Y10335200D01*
X40547108Y10296695D01*
X40549816Y10292275D01*
X40607311Y10192691D01*
X40607313Y10192689D01*
X40607315Y10192686D01*
X40700501Y10099500D01*
X40700503Y10099499D01*
X40700505Y10099497D01*
X40814625Y10033610D01*
X40814623Y10033610D01*
X40814627Y10033609D01*
X40814629Y10033608D01*
X40941923Y9999500D01*
X40941925Y9999500D01*
X41073705Y9999500D01*
X41073707Y9999500D01*
X41201001Y10033608D01*
X41201003Y10033610D01*
X41201005Y10033610D01*
X41315124Y10099497D01*
X41315124Y10099498D01*
X41315129Y10099500D01*
X41408315Y10192686D01*
X41408607Y10193191D01*
X41474205Y10306810D01*
X41474205Y10306812D01*
X41474207Y10306814D01*
X41508315Y10434108D01*
X41508315Y10565892D01*
X41474207Y10693186D01*
X41474205Y10693189D01*
X41474205Y10693191D01*
X41408318Y10807310D01*
X41408316Y10807312D01*
X41408315Y10807314D01*
X41315129Y10900500D01*
X41315126Y10900502D01*
X41315124Y10900504D01*
X41201004Y10966391D01*
X41201006Y10966391D01*
X41179874Y10972053D01*
X42408966Y10972053D01*
X42408966Y10840269D01*
X42439045Y10728010D01*
X42443075Y10712971D01*
X42508962Y10598852D01*
X42508964Y10598850D01*
X42508966Y10598847D01*
X42602152Y10505661D01*
X42602154Y10505660D01*
X42602156Y10505658D01*
X42716276Y10439771D01*
X42716274Y10439771D01*
X42716278Y10439770D01*
X42716280Y10439769D01*
X42843574Y10405661D01*
X42843576Y10405661D01*
X42975356Y10405661D01*
X42975358Y10405661D01*
X43102652Y10439769D01*
X43102654Y10439771D01*
X43102656Y10439771D01*
X43216775Y10505658D01*
X43216775Y10505659D01*
X43216780Y10505661D01*
X43309966Y10598847D01*
X43309969Y10598852D01*
X43375856Y10712971D01*
X43375856Y10712973D01*
X43375858Y10712975D01*
X43409966Y10840269D01*
X43409966Y10972053D01*
X43375858Y11099347D01*
X43375856Y11099350D01*
X43375856Y11099352D01*
X43309969Y11213471D01*
X43309967Y11213473D01*
X43309966Y11213475D01*
X43216780Y11306661D01*
X43216777Y11306663D01*
X43169046Y11334221D01*
X43161967Y11342084D01*
X43152303Y11346386D01*
X43141954Y11364311D01*
X43128106Y11379691D01*
X43127000Y11390211D01*
X43121710Y11399374D01*
X43123873Y11419961D01*
X43121711Y11440541D01*
X43126999Y11449702D01*
X43128106Y11460224D01*
X43133209Y11465892D01*
X43599500Y11465892D01*
X43599500Y11334108D01*
X43629579Y11221849D01*
X43633609Y11206810D01*
X43699496Y11092691D01*
X43699498Y11092689D01*
X43699500Y11092686D01*
X43792686Y10999500D01*
X43792688Y10999499D01*
X43792690Y10999497D01*
X43906810Y10933610D01*
X43906808Y10933610D01*
X43906812Y10933609D01*
X43906814Y10933608D01*
X44034108Y10899500D01*
X44034110Y10899500D01*
X44165890Y10899500D01*
X44165892Y10899500D01*
X44293186Y10933608D01*
X44293188Y10933610D01*
X44293190Y10933610D01*
X44407309Y10999497D01*
X44407309Y10999498D01*
X44407314Y10999500D01*
X44500500Y11092686D01*
X44515695Y11119005D01*
X44534512Y11151596D01*
X45736676Y11151596D01*
X45736676Y11019812D01*
X45766755Y10907553D01*
X45770785Y10892514D01*
X45836672Y10778395D01*
X45836674Y10778393D01*
X45836676Y10778390D01*
X45929862Y10685204D01*
X45929864Y10685203D01*
X45929866Y10685201D01*
X46043986Y10619314D01*
X46043984Y10619314D01*
X46043988Y10619313D01*
X46043990Y10619312D01*
X46171284Y10585204D01*
X46171286Y10585204D01*
X46303066Y10585204D01*
X46303068Y10585204D01*
X46430362Y10619312D01*
X46430364Y10619314D01*
X46430366Y10619314D01*
X46544485Y10685201D01*
X46544485Y10685202D01*
X46544490Y10685204D01*
X46637676Y10778390D01*
X46688195Y10865891D01*
X46703566Y10892514D01*
X46703566Y10892516D01*
X46703568Y10892518D01*
X46737676Y11019812D01*
X46737676Y11151596D01*
X46703568Y11278890D01*
X46703566Y11278893D01*
X46703566Y11278895D01*
X46637679Y11393014D01*
X46637677Y11393016D01*
X46637676Y11393018D01*
X46544490Y11486204D01*
X46544487Y11486206D01*
X46544485Y11486208D01*
X46430365Y11552095D01*
X46430367Y11552095D01*
X46380975Y11565329D01*
X46303068Y11586204D01*
X46171284Y11586204D01*
X46093376Y11565329D01*
X46043985Y11552095D01*
X45929866Y11486208D01*
X45836672Y11393014D01*
X45770785Y11278895D01*
X45767435Y11266392D01*
X45736676Y11151596D01*
X44534512Y11151596D01*
X44566390Y11206810D01*
X44566390Y11206812D01*
X44566392Y11206814D01*
X44600500Y11334108D01*
X44600500Y11465892D01*
X44566392Y11593186D01*
X44566390Y11593189D01*
X44566390Y11593191D01*
X44500503Y11707310D01*
X44500501Y11707312D01*
X44500500Y11707314D01*
X44407314Y11800500D01*
X44407311Y11800502D01*
X44407309Y11800504D01*
X44293189Y11866391D01*
X44293191Y11866391D01*
X44222989Y11885201D01*
X44165892Y11900500D01*
X44034108Y11900500D01*
X43977011Y11885201D01*
X43906809Y11866391D01*
X43792690Y11800504D01*
X43699496Y11707310D01*
X43633609Y11593191D01*
X43622598Y11552096D01*
X43599500Y11465892D01*
X43133209Y11465892D01*
X43141956Y11475607D01*
X43152304Y11493529D01*
X43169037Y11505687D01*
X43277855Y11568513D01*
X43371041Y11661699D01*
X43380945Y11678853D01*
X43436931Y11775823D01*
X43436931Y11775825D01*
X43436933Y11775827D01*
X43471041Y11903121D01*
X43471041Y12034905D01*
X43436933Y12162199D01*
X43436931Y12162202D01*
X43436931Y12162204D01*
X43371044Y12276323D01*
X43371042Y12276325D01*
X43371041Y12276327D01*
X43295772Y12351596D01*
X46199500Y12351596D01*
X46199500Y12219812D01*
X46213814Y12166392D01*
X46233609Y12092514D01*
X46299496Y11978395D01*
X46299498Y11978393D01*
X46299500Y11978390D01*
X46392686Y11885204D01*
X46392688Y11885203D01*
X46392690Y11885201D01*
X46506810Y11819314D01*
X46506808Y11819314D01*
X46506812Y11819313D01*
X46506814Y11819312D01*
X46634108Y11785204D01*
X46634110Y11785204D01*
X46765890Y11785204D01*
X46765892Y11785204D01*
X46893186Y11819312D01*
X46893188Y11819314D01*
X46893190Y11819314D01*
X47007309Y11885201D01*
X47007309Y11885202D01*
X47007314Y11885204D01*
X47052260Y11930151D01*
X47106774Y11957927D01*
X47167206Y11948356D01*
X47210471Y11905092D01*
X47220043Y11844660D01*
X47217889Y11834524D01*
X47202162Y11775827D01*
X47199500Y11765892D01*
X47199500Y11634108D01*
X47208773Y11599500D01*
X47233609Y11506810D01*
X47299496Y11392691D01*
X47299498Y11392689D01*
X47299500Y11392686D01*
X47392686Y11299500D01*
X47392688Y11299499D01*
X47392690Y11299497D01*
X47506810Y11233610D01*
X47506808Y11233610D01*
X47506812Y11233609D01*
X47506814Y11233608D01*
X47634108Y11199500D01*
X47634110Y11199500D01*
X47765890Y11199500D01*
X47765892Y11199500D01*
X47893186Y11233608D01*
X47893188Y11233610D01*
X47893190Y11233610D01*
X48007309Y11299497D01*
X48007309Y11299498D01*
X48007314Y11299500D01*
X48100500Y11392686D01*
X48104434Y11399500D01*
X48166390Y11506810D01*
X48166390Y11506812D01*
X48166392Y11506814D01*
X48200500Y11634108D01*
X48200500Y11765892D01*
X48166392Y11893186D01*
X48166390Y11893189D01*
X48166390Y11893191D01*
X48100503Y12007310D01*
X48100501Y12007312D01*
X48100500Y12007314D01*
X48007314Y12100500D01*
X48007311Y12100502D01*
X48007309Y12100504D01*
X47893189Y12166391D01*
X47893191Y12166391D01*
X47843799Y12179625D01*
X47765892Y12200500D01*
X47634108Y12200500D01*
X47556200Y12179625D01*
X47506809Y12166391D01*
X47392690Y12100504D01*
X47392684Y12100500D01*
X47347740Y12055555D01*
X47293223Y12027778D01*
X47232791Y12037350D01*
X47189527Y12080615D01*
X47179956Y12141047D01*
X47182106Y12151168D01*
X47200500Y12219812D01*
X47200500Y12351596D01*
X47166392Y12478890D01*
X47166390Y12478893D01*
X47166390Y12478895D01*
X47100503Y12593014D01*
X47100501Y12593016D01*
X47100500Y12593018D01*
X47007314Y12686204D01*
X47007311Y12686206D01*
X47007309Y12686208D01*
X46893189Y12752095D01*
X46893191Y12752095D01*
X46843799Y12765329D01*
X46765892Y12786204D01*
X46634108Y12786204D01*
X46556200Y12765329D01*
X46506809Y12752095D01*
X46392690Y12686208D01*
X46299496Y12593014D01*
X46233609Y12478895D01*
X46231095Y12469513D01*
X46199500Y12351596D01*
X43295772Y12351596D01*
X43277855Y12369513D01*
X43277852Y12369515D01*
X43277850Y12369517D01*
X43163730Y12435404D01*
X43163732Y12435404D01*
X43114340Y12448638D01*
X43036433Y12469513D01*
X42904649Y12469513D01*
X42826741Y12448638D01*
X42777350Y12435404D01*
X42663231Y12369517D01*
X42570037Y12276323D01*
X42504150Y12162204D01*
X42492201Y12117609D01*
X42470041Y12034905D01*
X42470041Y11903121D01*
X42492497Y11819314D01*
X42504150Y11775823D01*
X42570037Y11661704D01*
X42570039Y11661702D01*
X42570041Y11661699D01*
X42663227Y11568513D01*
X42663229Y11568512D01*
X42663231Y11568510D01*
X42710959Y11540954D01*
X42751900Y11495485D01*
X42758296Y11434634D01*
X42727703Y11381646D01*
X42710959Y11369482D01*
X42602156Y11306665D01*
X42508962Y11213471D01*
X42443075Y11099352D01*
X42425529Y11033869D01*
X42408966Y10972053D01*
X41179874Y10972053D01*
X41151614Y10979625D01*
X41073707Y11000500D01*
X40941923Y11000500D01*
X40914627Y10993186D01*
X40840387Y10973294D01*
X40779286Y10976497D01*
X40731736Y11015002D01*
X40729040Y11019402D01*
X40671532Y11119009D01*
X40578346Y11212195D01*
X40578343Y11212197D01*
X40578341Y11212199D01*
X40464221Y11278086D01*
X40464223Y11278086D01*
X40414831Y11291320D01*
X40336924Y11312195D01*
X40205140Y11312195D01*
X40127232Y11291320D01*
X40077841Y11278086D01*
X39963722Y11212199D01*
X39870528Y11119005D01*
X39804641Y11004886D01*
X39794327Y10966392D01*
X39770532Y10877587D01*
X34197366Y10877587D01*
X34166392Y10993186D01*
X34166390Y10993189D01*
X34166390Y10993191D01*
X34100503Y11107310D01*
X34100501Y11107312D01*
X34100500Y11107314D01*
X34007314Y11200500D01*
X34007311Y11200502D01*
X34007309Y11200504D01*
X33893189Y11266391D01*
X33893191Y11266391D01*
X33843799Y11279625D01*
X33765892Y11300500D01*
X33634108Y11300500D01*
X33556200Y11279625D01*
X33506809Y11266391D01*
X33392690Y11200504D01*
X33299496Y11107310D01*
X33233609Y10993191D01*
X33226428Y10966391D01*
X33199500Y10865892D01*
X200500Y10865892D01*
X200500Y13106604D01*
X945500Y13106604D01*
X945500Y12893397D01*
X978851Y12682826D01*
X1044736Y12480053D01*
X1141527Y12290088D01*
X1141531Y12290082D01*
X1266841Y12117609D01*
X1266843Y12117607D01*
X1266846Y12117603D01*
X1417603Y11966846D01*
X1417606Y11966844D01*
X1417608Y11966842D01*
X1589879Y11841679D01*
X1590087Y11841528D01*
X1780053Y11744736D01*
X1982821Y11678853D01*
X1982822Y11678853D01*
X1982825Y11678852D01*
X2193396Y11645500D01*
X2193399Y11645500D01*
X2406604Y11645500D01*
X2617174Y11678852D01*
X2617175Y11678853D01*
X2617179Y11678853D01*
X2819947Y11744736D01*
X3009913Y11841528D01*
X3182397Y11966846D01*
X3281443Y12065892D01*
X10599500Y12065892D01*
X10599500Y11934108D01*
X10624307Y11841528D01*
X10633609Y11806810D01*
X10699496Y11692691D01*
X10699498Y11692689D01*
X10699500Y11692686D01*
X10792686Y11599500D01*
X10792688Y11599499D01*
X10792690Y11599497D01*
X10906810Y11533610D01*
X10906808Y11533610D01*
X10906812Y11533609D01*
X10906814Y11533608D01*
X11034108Y11499500D01*
X11034110Y11499500D01*
X11165890Y11499500D01*
X11165892Y11499500D01*
X11293186Y11533608D01*
X11293188Y11533610D01*
X11293190Y11533610D01*
X11407309Y11599497D01*
X11407309Y11599498D01*
X11407314Y11599500D01*
X11500500Y11692686D01*
X11524416Y11734110D01*
X11566390Y11806810D01*
X11566390Y11806812D01*
X11566392Y11806814D01*
X11582222Y11865892D01*
X23899500Y11865892D01*
X23899500Y11734108D01*
X23918902Y11661699D01*
X23933609Y11606810D01*
X23999496Y11492691D01*
X23999498Y11492689D01*
X23999500Y11492686D01*
X24092686Y11399500D01*
X24092688Y11399499D01*
X24092690Y11399497D01*
X24206810Y11333610D01*
X24206808Y11333610D01*
X24206812Y11333609D01*
X24206814Y11333608D01*
X24334108Y11299500D01*
X24334110Y11299500D01*
X24465890Y11299500D01*
X24465892Y11299500D01*
X24593186Y11333608D01*
X24593188Y11333610D01*
X24593190Y11333610D01*
X24707309Y11399497D01*
X24707309Y11399498D01*
X24707314Y11399500D01*
X24800500Y11492686D01*
X24808657Y11506814D01*
X24866390Y11606810D01*
X24866390Y11606812D01*
X24866392Y11606814D01*
X24900500Y11734108D01*
X24900500Y11865892D01*
X29599500Y11865892D01*
X29599500Y11734108D01*
X29618902Y11661699D01*
X29633609Y11606810D01*
X29699496Y11492691D01*
X29699498Y11492689D01*
X29699500Y11492686D01*
X29792686Y11399500D01*
X29792688Y11399499D01*
X29792690Y11399497D01*
X29906810Y11333610D01*
X29906808Y11333610D01*
X29906812Y11333609D01*
X29906814Y11333608D01*
X30034108Y11299500D01*
X30034110Y11299500D01*
X30165890Y11299500D01*
X30165892Y11299500D01*
X30293186Y11333608D01*
X30293188Y11333610D01*
X30293190Y11333610D01*
X30407309Y11399497D01*
X30407309Y11399498D01*
X30407314Y11399500D01*
X30500500Y11492686D01*
X30508657Y11506814D01*
X30562609Y11600261D01*
X37165131Y11600261D01*
X37165131Y11468477D01*
X37183613Y11399500D01*
X37199240Y11341179D01*
X37265127Y11227060D01*
X37265129Y11227058D01*
X37265131Y11227055D01*
X37358317Y11133869D01*
X37358319Y11133868D01*
X37358321Y11133866D01*
X37472441Y11067979D01*
X37472439Y11067979D01*
X37472443Y11067978D01*
X37472445Y11067977D01*
X37599739Y11033869D01*
X37599741Y11033869D01*
X37731521Y11033869D01*
X37731523Y11033869D01*
X37858817Y11067977D01*
X37858819Y11067979D01*
X37858821Y11067979D01*
X37972940Y11133866D01*
X37972940Y11133867D01*
X37972945Y11133869D01*
X38066131Y11227055D01*
X38066134Y11227060D01*
X38132021Y11341179D01*
X38132021Y11341181D01*
X38132023Y11341183D01*
X38166131Y11468477D01*
X38166131Y11600261D01*
X38132023Y11727555D01*
X38132021Y11727558D01*
X38132021Y11727560D01*
X38066134Y11841679D01*
X38066132Y11841681D01*
X38066131Y11841683D01*
X37972945Y11934869D01*
X37972942Y11934871D01*
X37972940Y11934873D01*
X37858820Y12000760D01*
X37858822Y12000760D01*
X37807060Y12014629D01*
X37731523Y12034869D01*
X37599739Y12034869D01*
X37524202Y12014629D01*
X37472440Y12000760D01*
X37358321Y11934873D01*
X37265127Y11841679D01*
X37199240Y11727560D01*
X37199239Y11727555D01*
X37165131Y11600261D01*
X30562609Y11600261D01*
X30566390Y11606810D01*
X30566390Y11606812D01*
X30566392Y11606814D01*
X30600500Y11734108D01*
X30600500Y11865892D01*
X30566392Y11993186D01*
X30566390Y11993189D01*
X30566390Y11993191D01*
X30500503Y12107310D01*
X30500501Y12107312D01*
X30500500Y12107314D01*
X30407314Y12200500D01*
X30407311Y12200502D01*
X30407309Y12200504D01*
X30293189Y12266391D01*
X30293191Y12266391D01*
X30227068Y12284108D01*
X30165892Y12300500D01*
X30034108Y12300500D01*
X29972932Y12284108D01*
X29906809Y12266391D01*
X29792690Y12200504D01*
X29699496Y12107310D01*
X29633609Y11993191D01*
X29617778Y11934108D01*
X29599500Y11865892D01*
X24900500Y11865892D01*
X24866392Y11993186D01*
X24866390Y11993189D01*
X24866390Y11993191D01*
X24800503Y12107310D01*
X24800501Y12107312D01*
X24800500Y12107314D01*
X24707314Y12200500D01*
X24707311Y12200502D01*
X24707309Y12200504D01*
X24593189Y12266391D01*
X24593191Y12266391D01*
X24527068Y12284108D01*
X24465892Y12300500D01*
X24334108Y12300500D01*
X24272932Y12284108D01*
X24206809Y12266391D01*
X24092690Y12200504D01*
X23999496Y12107310D01*
X23933609Y11993191D01*
X23917778Y11934108D01*
X23899500Y11865892D01*
X11582222Y11865892D01*
X11600500Y11934108D01*
X11600500Y12065892D01*
X11566392Y12193186D01*
X11566390Y12193189D01*
X11566390Y12193191D01*
X11500503Y12307310D01*
X11500501Y12307312D01*
X11500500Y12307314D01*
X11407314Y12400500D01*
X11407311Y12400502D01*
X11407309Y12400504D01*
X11293189Y12466391D01*
X11293191Y12466391D01*
X11278722Y12470268D01*
X11165892Y12500500D01*
X11034108Y12500500D01*
X10957798Y12480053D01*
X10906809Y12466391D01*
X10792690Y12400504D01*
X10699496Y12307310D01*
X10633609Y12193191D01*
X10616831Y12130574D01*
X10599500Y12065892D01*
X3281443Y12065892D01*
X3333154Y12117603D01*
X3458472Y12290087D01*
X3555264Y12480053D01*
X3583155Y12565892D01*
X35899500Y12565892D01*
X35899500Y12434108D01*
X35908773Y12399500D01*
X35933609Y12306810D01*
X35999496Y12192691D01*
X35999498Y12192689D01*
X35999500Y12192686D01*
X36092686Y12099500D01*
X36092688Y12099499D01*
X36092690Y12099497D01*
X36206810Y12033610D01*
X36206808Y12033610D01*
X36206812Y12033609D01*
X36206814Y12033608D01*
X36334108Y11999500D01*
X36334110Y11999500D01*
X36465890Y11999500D01*
X36465892Y11999500D01*
X36593186Y12033608D01*
X36593188Y12033610D01*
X36593190Y12033610D01*
X36707309Y12099497D01*
X36707309Y12099498D01*
X36707314Y12099500D01*
X36800500Y12192686D01*
X36800792Y12193191D01*
X36847278Y12273707D01*
X41107315Y12273707D01*
X41107315Y12141923D01*
X41127687Y12065892D01*
X41141424Y12014625D01*
X41207311Y11900506D01*
X41207313Y11900504D01*
X41207315Y11900501D01*
X41300501Y11807315D01*
X41300503Y11807314D01*
X41300505Y11807312D01*
X41414625Y11741425D01*
X41414623Y11741425D01*
X41414627Y11741424D01*
X41414629Y11741423D01*
X41541923Y11707315D01*
X41541925Y11707315D01*
X41673705Y11707315D01*
X41673707Y11707315D01*
X41801001Y11741423D01*
X41801003Y11741425D01*
X41801005Y11741425D01*
X41915124Y11807312D01*
X41915124Y11807313D01*
X41915129Y11807315D01*
X42008315Y11900501D01*
X42027719Y11934110D01*
X42074205Y12014625D01*
X42074205Y12014627D01*
X42074207Y12014629D01*
X42108315Y12141923D01*
X42108315Y12273707D01*
X42074207Y12401001D01*
X42074205Y12401004D01*
X42074205Y12401006D01*
X42008318Y12515125D01*
X42008316Y12515127D01*
X42008315Y12515129D01*
X41915129Y12608315D01*
X41915126Y12608317D01*
X41915124Y12608319D01*
X41801004Y12674206D01*
X41801006Y12674206D01*
X41751614Y12687440D01*
X41673707Y12708315D01*
X41541923Y12708315D01*
X41464015Y12687440D01*
X41414624Y12674206D01*
X41300505Y12608319D01*
X41207311Y12515125D01*
X41141424Y12401006D01*
X41132987Y12369517D01*
X41107315Y12273707D01*
X36847278Y12273707D01*
X36866390Y12306810D01*
X36866390Y12306812D01*
X36866392Y12306814D01*
X36900500Y12434108D01*
X36900500Y12565892D01*
X36866392Y12693186D01*
X36866390Y12693189D01*
X36866390Y12693191D01*
X36800503Y12807310D01*
X36800501Y12807312D01*
X36800500Y12807314D01*
X36707314Y12900500D01*
X36707311Y12900502D01*
X36707309Y12900504D01*
X36594053Y12965892D01*
X54699500Y12965892D01*
X54699500Y12834108D01*
X54729579Y12721849D01*
X54733609Y12706810D01*
X54799496Y12592691D01*
X54799498Y12592689D01*
X54799500Y12592686D01*
X54892686Y12499500D01*
X54892688Y12499499D01*
X54892690Y12499497D01*
X55006810Y12433610D01*
X55006808Y12433610D01*
X55006812Y12433609D01*
X55006814Y12433608D01*
X55134108Y12399500D01*
X55134110Y12399500D01*
X55265890Y12399500D01*
X55265892Y12399500D01*
X55327068Y12415892D01*
X70499500Y12415892D01*
X70499500Y12284108D01*
X70523861Y12193191D01*
X70533609Y12156810D01*
X70599496Y12042691D01*
X70599498Y12042689D01*
X70599500Y12042686D01*
X70692686Y11949500D01*
X70692688Y11949499D01*
X70692690Y11949497D01*
X70806810Y11883610D01*
X70806808Y11883610D01*
X70806812Y11883609D01*
X70806814Y11883608D01*
X70934108Y11849500D01*
X70934110Y11849500D01*
X71065890Y11849500D01*
X71065892Y11849500D01*
X71193186Y11883608D01*
X71193188Y11883610D01*
X71193190Y11883610D01*
X71307309Y11949497D01*
X71307309Y11949498D01*
X71307314Y11949500D01*
X71400500Y12042686D01*
X71407930Y12055555D01*
X71466390Y12156810D01*
X71466390Y12156812D01*
X71466392Y12156814D01*
X71500500Y12284108D01*
X71500500Y12415892D01*
X71466392Y12543186D01*
X71466390Y12543189D01*
X71466390Y12543191D01*
X71400503Y12657310D01*
X71400501Y12657312D01*
X71400500Y12657314D01*
X71307314Y12750500D01*
X71307311Y12750502D01*
X71307309Y12750504D01*
X71193189Y12816391D01*
X71193191Y12816391D01*
X71127068Y12834108D01*
X71065892Y12850500D01*
X70934108Y12850500D01*
X70872932Y12834108D01*
X70806809Y12816391D01*
X70692690Y12750504D01*
X70599496Y12657310D01*
X70533609Y12543191D01*
X70533608Y12543186D01*
X70499500Y12415892D01*
X55327068Y12415892D01*
X55393186Y12433608D01*
X55393188Y12433610D01*
X55393190Y12433610D01*
X55507309Y12499497D01*
X55507309Y12499498D01*
X55507314Y12499500D01*
X55600500Y12592686D01*
X55600692Y12593018D01*
X55666390Y12706810D01*
X55666390Y12706812D01*
X55666392Y12706814D01*
X55700500Y12834108D01*
X55700500Y12965892D01*
X55666392Y13093186D01*
X55666390Y13093189D01*
X55666390Y13093191D01*
X55600503Y13207310D01*
X55600501Y13207312D01*
X55600500Y13207314D01*
X55507314Y13300500D01*
X55507311Y13300502D01*
X55507309Y13300504D01*
X55393189Y13366391D01*
X55393191Y13366391D01*
X55343799Y13379625D01*
X55265892Y13400500D01*
X55134108Y13400500D01*
X55056200Y13379625D01*
X55006809Y13366391D01*
X54892690Y13300504D01*
X54799496Y13207310D01*
X54733609Y13093191D01*
X54733608Y13093186D01*
X54699500Y12965892D01*
X36594053Y12965892D01*
X36593189Y12966391D01*
X36593191Y12966391D01*
X36543799Y12979625D01*
X36465892Y13000500D01*
X36334108Y13000500D01*
X36256200Y12979625D01*
X36206809Y12966391D01*
X36092690Y12900504D01*
X35999496Y12807310D01*
X35933609Y12693191D01*
X35928522Y12674206D01*
X35899500Y12565892D01*
X3583155Y12565892D01*
X3621147Y12682821D01*
X3621683Y12686204D01*
X3654500Y12893397D01*
X3654500Y13106604D01*
X3623947Y13299500D01*
X3621147Y13317179D01*
X3594687Y13398614D01*
X21409500Y13398614D01*
X21409500Y13266830D01*
X21425447Y13207314D01*
X21443609Y13139532D01*
X21509496Y13025413D01*
X21509498Y13025411D01*
X21509500Y13025408D01*
X21602686Y12932222D01*
X21602688Y12932221D01*
X21602690Y12932219D01*
X21716810Y12866332D01*
X21716808Y12866332D01*
X21716812Y12866331D01*
X21716814Y12866330D01*
X21844108Y12832222D01*
X21844110Y12832222D01*
X21975890Y12832222D01*
X21975892Y12832222D01*
X22103186Y12866330D01*
X22103188Y12866332D01*
X22103190Y12866332D01*
X22217309Y12932219D01*
X22217309Y12932220D01*
X22217314Y12932222D01*
X22310500Y13025408D01*
X22376392Y13139536D01*
X22410500Y13266830D01*
X22410500Y13398614D01*
X22376392Y13525908D01*
X22376390Y13525911D01*
X22376390Y13525913D01*
X22310503Y13640032D01*
X22310501Y13640034D01*
X22310500Y13640036D01*
X22217314Y13733222D01*
X22217311Y13733224D01*
X22217309Y13733226D01*
X22124784Y13786645D01*
X22124783Y13786645D01*
X22103188Y13799113D01*
X22103187Y13799114D01*
X22103186Y13799114D01*
X21975892Y13833222D01*
X21844108Y13833222D01*
X21766200Y13812347D01*
X21716809Y13799113D01*
X21602690Y13733226D01*
X21509496Y13640032D01*
X21443609Y13525913D01*
X21434706Y13492686D01*
X21409500Y13398614D01*
X3594687Y13398614D01*
X3594074Y13400500D01*
X3591453Y13408566D01*
X3555264Y13519947D01*
X3458472Y13709913D01*
X3441534Y13733226D01*
X3345146Y13865892D01*
X47899500Y13865892D01*
X47899500Y13734108D01*
X47905983Y13709913D01*
X47933609Y13606810D01*
X47999496Y13492691D01*
X47999498Y13492689D01*
X47999500Y13492686D01*
X48092686Y13399500D01*
X48092688Y13399499D01*
X48092690Y13399497D01*
X48206810Y13333610D01*
X48206808Y13333610D01*
X48206812Y13333609D01*
X48206814Y13333608D01*
X48334108Y13299500D01*
X48334110Y13299500D01*
X48465890Y13299500D01*
X48465892Y13299500D01*
X48593186Y13333608D01*
X48593188Y13333610D01*
X48593190Y13333610D01*
X48707309Y13399497D01*
X48707309Y13399498D01*
X48707314Y13399500D01*
X48800500Y13492686D01*
X48866392Y13606814D01*
X48900500Y13734108D01*
X48900500Y13865892D01*
X48866392Y13993186D01*
X48866390Y13993189D01*
X48866390Y13993191D01*
X48800503Y14107310D01*
X48800501Y14107312D01*
X48800500Y14107314D01*
X48707314Y14200500D01*
X48707311Y14200502D01*
X48707309Y14200504D01*
X48593189Y14266391D01*
X48593191Y14266391D01*
X48543799Y14279625D01*
X48465892Y14300500D01*
X48334108Y14300500D01*
X48256200Y14279625D01*
X48206809Y14266391D01*
X48092690Y14200504D01*
X47999496Y14107310D01*
X47933609Y13993191D01*
X47933608Y13993186D01*
X47899500Y13865892D01*
X3345146Y13865892D01*
X3333158Y13882392D01*
X3333156Y13882394D01*
X3333154Y13882397D01*
X3182397Y14033154D01*
X3182393Y14033157D01*
X3182391Y14033159D01*
X3009918Y14158469D01*
X3009912Y14158473D01*
X2819947Y14255264D01*
X2617174Y14321149D01*
X2406604Y14354500D01*
X2406601Y14354500D01*
X2193399Y14354500D01*
X2193396Y14354500D01*
X1982825Y14321149D01*
X1780052Y14255264D01*
X1590087Y14158473D01*
X1590081Y14158469D01*
X1417608Y14033159D01*
X1266841Y13882392D01*
X1141531Y13709919D01*
X1141527Y13709913D01*
X1044736Y13519948D01*
X978851Y13317175D01*
X945500Y13106604D01*
X200500Y13106604D01*
X200500Y15465892D01*
X28399500Y15465892D01*
X28399500Y15334108D01*
X28408773Y15299500D01*
X28433609Y15206810D01*
X28499496Y15092691D01*
X28499498Y15092689D01*
X28499500Y15092686D01*
X28592686Y14999500D01*
X28592688Y14999499D01*
X28592690Y14999497D01*
X28706810Y14933610D01*
X28706808Y14933610D01*
X28706812Y14933609D01*
X28706814Y14933608D01*
X28834108Y14899500D01*
X28834110Y14899500D01*
X28965890Y14899500D01*
X28965892Y14899500D01*
X29093186Y14933608D01*
X29093188Y14933610D01*
X29093190Y14933610D01*
X29149104Y14965892D01*
X37399500Y14965892D01*
X37399500Y14834108D01*
X37404258Y14816352D01*
X37433609Y14706810D01*
X37499496Y14592691D01*
X37499498Y14592689D01*
X37499500Y14592686D01*
X37592686Y14499500D01*
X37592688Y14499499D01*
X37592690Y14499497D01*
X37706810Y14433610D01*
X37706808Y14433610D01*
X37706812Y14433609D01*
X37706814Y14433608D01*
X37834108Y14399500D01*
X37834110Y14399500D01*
X37965890Y14399500D01*
X37965892Y14399500D01*
X38093186Y14433608D01*
X38093188Y14433610D01*
X38093190Y14433610D01*
X38207309Y14499497D01*
X38207309Y14499498D01*
X38207314Y14499500D01*
X38300500Y14592686D01*
X38342766Y14665892D01*
X41199500Y14665892D01*
X41199500Y14534108D01*
X41223873Y14443146D01*
X41233609Y14406810D01*
X41299496Y14292691D01*
X41299498Y14292689D01*
X41299500Y14292686D01*
X41392686Y14199500D01*
X41392688Y14199499D01*
X41392690Y14199497D01*
X41506810Y14133610D01*
X41506808Y14133610D01*
X41506812Y14133609D01*
X41506814Y14133608D01*
X41634108Y14099500D01*
X41634110Y14099500D01*
X41765890Y14099500D01*
X41765892Y14099500D01*
X41893186Y14133608D01*
X41893188Y14133610D01*
X41893190Y14133610D01*
X42007309Y14199497D01*
X42007309Y14199498D01*
X42007314Y14199500D01*
X42100500Y14292686D01*
X42100503Y14292691D01*
X42166390Y14406810D01*
X42166390Y14406812D01*
X42166392Y14406814D01*
X42200500Y14534108D01*
X42200500Y14574930D01*
X49699500Y14574930D01*
X49699500Y14443146D01*
X49729579Y14330887D01*
X49733609Y14315848D01*
X49799496Y14201729D01*
X49799498Y14201727D01*
X49799500Y14201724D01*
X49892686Y14108538D01*
X49892688Y14108537D01*
X49892690Y14108535D01*
X50006810Y14042648D01*
X50006808Y14042648D01*
X50006812Y14042647D01*
X50006814Y14042646D01*
X50134108Y14008538D01*
X50134110Y14008538D01*
X50265890Y14008538D01*
X50265892Y14008538D01*
X50393186Y14042646D01*
X50393188Y14042648D01*
X50393190Y14042648D01*
X50507309Y14108535D01*
X50507309Y14108536D01*
X50507314Y14108538D01*
X50600500Y14201724D01*
X50600503Y14201729D01*
X50666390Y14315848D01*
X50666390Y14315850D01*
X50666392Y14315852D01*
X50700500Y14443146D01*
X50700500Y14574930D01*
X50666392Y14702224D01*
X50666390Y14702227D01*
X50666390Y14702229D01*
X50600503Y14816348D01*
X50600501Y14816350D01*
X50600500Y14816352D01*
X50507314Y14909538D01*
X50507311Y14909540D01*
X50507309Y14909542D01*
X50393189Y14975429D01*
X50393191Y14975429D01*
X50343799Y14988663D01*
X50265892Y15009538D01*
X50134108Y15009538D01*
X50056200Y14988663D01*
X50006809Y14975429D01*
X49892690Y14909542D01*
X49799496Y14816348D01*
X49733609Y14702229D01*
X49733608Y14702224D01*
X49699500Y14574930D01*
X42200500Y14574930D01*
X42200500Y14665892D01*
X42166392Y14793186D01*
X42166390Y14793189D01*
X42166390Y14793191D01*
X42100503Y14907310D01*
X42100501Y14907312D01*
X42100500Y14907314D01*
X42007314Y15000500D01*
X42007311Y15000502D01*
X42007309Y15000504D01*
X41893189Y15066391D01*
X41893191Y15066391D01*
X41843799Y15079625D01*
X41765892Y15100500D01*
X41634108Y15100500D01*
X41556200Y15079625D01*
X41506809Y15066391D01*
X41392690Y15000504D01*
X41299496Y14907310D01*
X41233609Y14793191D01*
X41233608Y14793186D01*
X41199500Y14665892D01*
X38342766Y14665892D01*
X38366392Y14706814D01*
X38400500Y14834108D01*
X38400500Y14965892D01*
X38366392Y15093186D01*
X38366390Y15093189D01*
X38366390Y15093191D01*
X38300503Y15207310D01*
X38300501Y15207312D01*
X38300500Y15207314D01*
X38207314Y15300500D01*
X38207311Y15300502D01*
X38207309Y15300504D01*
X38093189Y15366391D01*
X38093191Y15366391D01*
X38043799Y15379625D01*
X37965892Y15400500D01*
X37834108Y15400500D01*
X37756200Y15379625D01*
X37706809Y15366391D01*
X37592690Y15300504D01*
X37499496Y15207310D01*
X37433609Y15093191D01*
X37426428Y15066391D01*
X37399500Y14965892D01*
X29149104Y14965892D01*
X29207309Y14999497D01*
X29207309Y14999498D01*
X29207314Y14999500D01*
X29300500Y15092686D01*
X29304434Y15099500D01*
X29366390Y15206810D01*
X29366390Y15206812D01*
X29366392Y15206814D01*
X29400500Y15334108D01*
X29400500Y15465892D01*
X29373705Y15565892D01*
X38899500Y15565892D01*
X38899500Y15434108D01*
X38908773Y15399500D01*
X38933609Y15306810D01*
X38999496Y15192691D01*
X38999498Y15192689D01*
X38999500Y15192686D01*
X39092686Y15099500D01*
X39092688Y15099499D01*
X39092690Y15099497D01*
X39206810Y15033610D01*
X39206808Y15033610D01*
X39206812Y15033609D01*
X39206814Y15033608D01*
X39334108Y14999500D01*
X39334110Y14999500D01*
X39465890Y14999500D01*
X39465892Y14999500D01*
X39593186Y15033608D01*
X39593188Y15033610D01*
X39593190Y15033610D01*
X39707309Y15099497D01*
X39707309Y15099498D01*
X39707314Y15099500D01*
X39800500Y15192686D01*
X39808946Y15207314D01*
X39866390Y15306810D01*
X39866390Y15306812D01*
X39866392Y15306814D01*
X39900500Y15434108D01*
X39900500Y15565892D01*
X39866392Y15693186D01*
X39866390Y15693189D01*
X39866390Y15693191D01*
X39800503Y15807310D01*
X39800501Y15807312D01*
X39800500Y15807314D01*
X39707314Y15900500D01*
X39707311Y15900502D01*
X39707309Y15900504D01*
X39593189Y15966391D01*
X39593191Y15966391D01*
X39543799Y15979625D01*
X39465892Y16000500D01*
X39334108Y16000500D01*
X39256200Y15979625D01*
X39206809Y15966391D01*
X39092690Y15900504D01*
X38999496Y15807310D01*
X38933609Y15693191D01*
X38933608Y15693186D01*
X38899500Y15565892D01*
X29373705Y15565892D01*
X29366392Y15593186D01*
X29366390Y15593189D01*
X29366390Y15593191D01*
X29300503Y15707310D01*
X29300501Y15707312D01*
X29300500Y15707314D01*
X29207314Y15800500D01*
X29207311Y15800502D01*
X29207309Y15800504D01*
X29093189Y15866391D01*
X29093191Y15866391D01*
X29043799Y15879625D01*
X28965892Y15900500D01*
X28834108Y15900500D01*
X28756200Y15879625D01*
X28706809Y15866391D01*
X28592690Y15800504D01*
X28499496Y15707310D01*
X28433609Y15593191D01*
X28426294Y15565891D01*
X28399500Y15465892D01*
X200500Y15465892D01*
X200500Y16165892D01*
X17599500Y16165892D01*
X17599500Y16034108D01*
X17629579Y15921849D01*
X17633609Y15906810D01*
X17699496Y15792691D01*
X17699498Y15792689D01*
X17699500Y15792686D01*
X17792686Y15699500D01*
X17792688Y15699499D01*
X17792690Y15699497D01*
X17906810Y15633610D01*
X17906808Y15633610D01*
X17906812Y15633609D01*
X17906814Y15633608D01*
X18034108Y15599500D01*
X18034110Y15599500D01*
X18165890Y15599500D01*
X18165892Y15599500D01*
X18293186Y15633608D01*
X18293188Y15633610D01*
X18293190Y15633610D01*
X18407309Y15699497D01*
X18407309Y15699498D01*
X18407314Y15699500D01*
X18500500Y15792686D01*
X18500503Y15792691D01*
X18566390Y15906810D01*
X18566390Y15906812D01*
X18566392Y15906814D01*
X18600500Y16034108D01*
X18600500Y16165892D01*
X18566392Y16293186D01*
X18566390Y16293189D01*
X18566390Y16293191D01*
X18500503Y16407310D01*
X18500501Y16407312D01*
X18500500Y16407314D01*
X18407314Y16500500D01*
X18407311Y16500502D01*
X18407309Y16500504D01*
X18293189Y16566391D01*
X18293191Y16566391D01*
X18228927Y16583610D01*
X18165892Y16600500D01*
X18034108Y16600500D01*
X17971073Y16583610D01*
X17906809Y16566391D01*
X17792690Y16500504D01*
X17699496Y16407310D01*
X17633609Y16293191D01*
X17626428Y16266391D01*
X17599500Y16165892D01*
X200500Y16165892D01*
X200500Y17446935D01*
X33321205Y17446935D01*
X33321205Y17315151D01*
X33340488Y17243186D01*
X33355314Y17187853D01*
X33421201Y17073734D01*
X33421203Y17073732D01*
X33421205Y17073729D01*
X33514391Y16980543D01*
X33514393Y16980542D01*
X33514395Y16980540D01*
X33628515Y16914653D01*
X33628513Y16914653D01*
X33628517Y16914652D01*
X33628519Y16914651D01*
X33755813Y16880543D01*
X33755815Y16880543D01*
X33887596Y16880543D01*
X33887597Y16880543D01*
X33972105Y16903187D01*
X34033206Y16899986D01*
X34080756Y16861481D01*
X34083464Y16857061D01*
X34149496Y16742691D01*
X34149498Y16742689D01*
X34149500Y16742686D01*
X34242686Y16649500D01*
X34242688Y16649499D01*
X34242690Y16649497D01*
X34356810Y16583610D01*
X34356808Y16583610D01*
X34356812Y16583609D01*
X34356814Y16583608D01*
X34484108Y16549500D01*
X34484110Y16549500D01*
X34615890Y16549500D01*
X34615892Y16549500D01*
X34743186Y16583608D01*
X34743188Y16583610D01*
X34743190Y16583610D01*
X34857309Y16649497D01*
X34857309Y16649498D01*
X34857314Y16649500D01*
X34950500Y16742686D01*
X34950503Y16742691D01*
X35016390Y16856810D01*
X35016390Y16856812D01*
X35016392Y16856814D01*
X35050500Y16984108D01*
X35050500Y17115892D01*
X35016392Y17243186D01*
X35016390Y17243189D01*
X35016390Y17243191D01*
X34950503Y17357310D01*
X34950501Y17357312D01*
X34950500Y17357314D01*
X34857314Y17450500D01*
X34857311Y17450502D01*
X34857309Y17450504D01*
X34743189Y17516391D01*
X34743191Y17516391D01*
X34677068Y17534108D01*
X34615892Y17550500D01*
X34484108Y17550500D01*
X34447194Y17540609D01*
X34399598Y17527856D01*
X34338497Y17531059D01*
X34290947Y17569564D01*
X34288240Y17573983D01*
X34222208Y17688353D01*
X34222206Y17688355D01*
X34222205Y17688357D01*
X34129019Y17781543D01*
X34129016Y17781545D01*
X34129014Y17781547D01*
X34014894Y17847434D01*
X34014896Y17847434D01*
X33965504Y17860668D01*
X33887597Y17881543D01*
X33755813Y17881543D01*
X33677905Y17860668D01*
X33628514Y17847434D01*
X33514395Y17781547D01*
X33421201Y17688353D01*
X33355314Y17574234D01*
X33337376Y17507285D01*
X33321205Y17446935D01*
X200500Y17446935D01*
X200500Y20465892D01*
X26999500Y20465892D01*
X26999500Y20334108D01*
X27000044Y20332079D01*
X27033609Y20206810D01*
X27099496Y20092691D01*
X27099498Y20092689D01*
X27099500Y20092686D01*
X27192686Y19999500D01*
X27192688Y19999499D01*
X27213921Y19987240D01*
X27254863Y19941771D01*
X27261259Y19880921D01*
X27230667Y19827932D01*
X27213925Y19815768D01*
X27199798Y19807612D01*
X27106605Y19714419D01*
X27040718Y19600300D01*
X27040717Y19600295D01*
X27006609Y19473001D01*
X27006609Y19341217D01*
X27036688Y19228958D01*
X27040718Y19213919D01*
X27106605Y19099800D01*
X27106607Y19099798D01*
X27106609Y19099795D01*
X27199795Y19006609D01*
X27257426Y18973336D01*
X27298366Y18927867D01*
X27304762Y18867017D01*
X27277929Y18817597D01*
X27242153Y18781821D01*
X27242148Y18781815D01*
X27176261Y18667696D01*
X27176260Y18667691D01*
X27142152Y18540397D01*
X27142152Y18408613D01*
X27167776Y18312983D01*
X27176261Y18281315D01*
X27242148Y18167196D01*
X27242150Y18167194D01*
X27242152Y18167191D01*
X27335338Y18074005D01*
X27335340Y18074004D01*
X27335342Y18074002D01*
X27449462Y18008115D01*
X27449460Y18008115D01*
X27449464Y18008114D01*
X27449466Y18008113D01*
X27576760Y17974005D01*
X27576762Y17974005D01*
X27708542Y17974005D01*
X27708544Y17974005D01*
X27835838Y18008113D01*
X27835840Y18008115D01*
X27835842Y18008115D01*
X27949961Y18074002D01*
X27949961Y18074003D01*
X27949966Y18074005D01*
X27977133Y18101172D01*
X47873263Y18101172D01*
X47873263Y17969388D01*
X47893283Y17894672D01*
X47907372Y17842090D01*
X47973259Y17727971D01*
X47973261Y17727969D01*
X47973263Y17727966D01*
X48066449Y17634780D01*
X48066451Y17634779D01*
X48066453Y17634777D01*
X48180573Y17568890D01*
X48180574Y17568890D01*
X48180577Y17568888D01*
X48286122Y17540608D01*
X48337435Y17507285D01*
X48359362Y17450164D01*
X48359498Y17444982D01*
X48359498Y17334108D01*
X48383859Y17243191D01*
X48393607Y17206810D01*
X48459494Y17092691D01*
X48459496Y17092689D01*
X48459498Y17092686D01*
X48552684Y16999500D01*
X48552686Y16999499D01*
X48552688Y16999497D01*
X48666808Y16933610D01*
X48666806Y16933610D01*
X48666810Y16933609D01*
X48666812Y16933608D01*
X48794106Y16899500D01*
X48794108Y16899500D01*
X48900500Y16899500D01*
X48958691Y16880593D01*
X48994655Y16831093D01*
X48999500Y16800500D01*
X48999500Y16734108D01*
X49022171Y16649497D01*
X49033609Y16606810D01*
X49099496Y16492691D01*
X49099498Y16492689D01*
X49099500Y16492686D01*
X49192686Y16399500D01*
X49192688Y16399499D01*
X49192690Y16399497D01*
X49306810Y16333610D01*
X49306808Y16333610D01*
X49306812Y16333609D01*
X49306814Y16333608D01*
X49434108Y16299500D01*
X49466187Y16299500D01*
X49524378Y16280593D01*
X49560342Y16231093D01*
X49565187Y16200500D01*
X49565187Y16168421D01*
X49595266Y16056162D01*
X49599296Y16041123D01*
X49665183Y15927004D01*
X49665185Y15927002D01*
X49665187Y15926999D01*
X49758373Y15833813D01*
X49758375Y15833812D01*
X49758377Y15833810D01*
X49872497Y15767923D01*
X49872495Y15767923D01*
X49872499Y15767922D01*
X49872501Y15767921D01*
X49999795Y15733813D01*
X49999797Y15733813D01*
X50131577Y15733813D01*
X50131579Y15733813D01*
X50258873Y15767921D01*
X50258875Y15767923D01*
X50258877Y15767923D01*
X50372996Y15833810D01*
X50372996Y15833811D01*
X50373001Y15833813D01*
X50405080Y15865892D01*
X55799500Y15865892D01*
X55799500Y15734108D01*
X55808773Y15699500D01*
X55833609Y15606810D01*
X55899496Y15492691D01*
X55899498Y15492689D01*
X55899500Y15492686D01*
X55992686Y15399500D01*
X55992688Y15399499D01*
X55992690Y15399497D01*
X56106810Y15333610D01*
X56106808Y15333610D01*
X56106812Y15333609D01*
X56106814Y15333608D01*
X56234108Y15299500D01*
X56234110Y15299500D01*
X56365890Y15299500D01*
X56365892Y15299500D01*
X56493186Y15333608D01*
X56493188Y15333610D01*
X56493190Y15333610D01*
X56607309Y15399497D01*
X56607309Y15399498D01*
X56607314Y15399500D01*
X56700500Y15492686D01*
X56758527Y15593191D01*
X56766390Y15606810D01*
X56766390Y15606812D01*
X56766392Y15606814D01*
X56800500Y15734108D01*
X56800500Y15865892D01*
X56766392Y15993186D01*
X56766390Y15993189D01*
X56766390Y15993191D01*
X56700503Y16107310D01*
X56700501Y16107312D01*
X56700500Y16107314D01*
X56607314Y16200500D01*
X56607311Y16200502D01*
X56607309Y16200504D01*
X56493189Y16266391D01*
X56493191Y16266391D01*
X56440187Y16280593D01*
X56365892Y16300500D01*
X56234108Y16300500D01*
X56159813Y16280593D01*
X56106809Y16266391D01*
X55992690Y16200504D01*
X55899496Y16107310D01*
X55833609Y15993191D01*
X55826428Y15966391D01*
X55799500Y15865892D01*
X50405080Y15865892D01*
X50466187Y15926999D01*
X50466189Y15927004D01*
X50466191Y15927005D01*
X50532077Y16041123D01*
X50532077Y16041125D01*
X50532079Y16041127D01*
X50566187Y16168421D01*
X50566187Y16300205D01*
X50532079Y16427499D01*
X50532077Y16427502D01*
X50532077Y16427504D01*
X50466190Y16541623D01*
X50466188Y16541625D01*
X50466187Y16541627D01*
X50373001Y16634813D01*
X50372998Y16634815D01*
X50372996Y16634817D01*
X50258876Y16700704D01*
X50258878Y16700704D01*
X50209486Y16713938D01*
X50131579Y16734813D01*
X50131577Y16734813D01*
X50099500Y16734813D01*
X50041309Y16753720D01*
X50005345Y16803220D01*
X50000500Y16833813D01*
X50000500Y16865891D01*
X49996561Y16880593D01*
X49966392Y16993186D01*
X49966390Y16993189D01*
X49966390Y16993191D01*
X49900503Y17107310D01*
X49900501Y17107312D01*
X49900500Y17107314D01*
X49807314Y17200500D01*
X49807311Y17200502D01*
X49807309Y17200504D01*
X49693189Y17266391D01*
X49693191Y17266391D01*
X49616215Y17287016D01*
X49565892Y17300500D01*
X49459498Y17300500D01*
X49401307Y17319407D01*
X49365343Y17368907D01*
X49360498Y17399500D01*
X49360498Y17465891D01*
X49354096Y17489783D01*
X49326390Y17593186D01*
X49326388Y17593189D01*
X49326388Y17593191D01*
X49260501Y17707310D01*
X49260499Y17707312D01*
X49260498Y17707314D01*
X49167312Y17800500D01*
X49167309Y17800502D01*
X49167307Y17800504D01*
X49167308Y17800504D01*
X49053187Y17866391D01*
X49053189Y17866391D01*
X49030483Y17872475D01*
X66349500Y17872475D01*
X66349500Y17727526D01*
X66387017Y17587511D01*
X66459487Y17461990D01*
X66459489Y17461988D01*
X66459491Y17461985D01*
X66561985Y17359491D01*
X66561987Y17359490D01*
X66561989Y17359488D01*
X66687511Y17287018D01*
X66687512Y17287018D01*
X66687515Y17287016D01*
X66827525Y17249500D01*
X66827526Y17249500D01*
X66972474Y17249500D01*
X66972475Y17249500D01*
X67112485Y17287016D01*
X67112487Y17287018D01*
X67112489Y17287018D01*
X67238010Y17359488D01*
X67238010Y17359489D01*
X67238015Y17359491D01*
X67340509Y17461985D01*
X67366663Y17507285D01*
X67412982Y17587511D01*
X67412982Y17587513D01*
X67412984Y17587515D01*
X67433985Y17665892D01*
X70999500Y17665892D01*
X70999500Y17534108D01*
X71021993Y17450164D01*
X71033609Y17406810D01*
X71099496Y17292691D01*
X71099498Y17292689D01*
X71099500Y17292686D01*
X71192686Y17199500D01*
X71192688Y17199499D01*
X71192690Y17199497D01*
X71306810Y17133610D01*
X71306808Y17133610D01*
X71306812Y17133609D01*
X71306814Y17133608D01*
X71434108Y17099500D01*
X71434110Y17099500D01*
X71565890Y17099500D01*
X71565892Y17099500D01*
X71693186Y17133608D01*
X71693188Y17133610D01*
X71693190Y17133610D01*
X71807309Y17199497D01*
X71807309Y17199498D01*
X71807314Y17199500D01*
X71900500Y17292686D01*
X71900503Y17292691D01*
X71966390Y17406810D01*
X71966390Y17406812D01*
X71966392Y17406814D01*
X72000500Y17534108D01*
X72000500Y17665892D01*
X71966392Y17793186D01*
X71966390Y17793189D01*
X71966390Y17793191D01*
X71900503Y17907310D01*
X71900501Y17907312D01*
X71900500Y17907314D01*
X71807314Y18000500D01*
X71807311Y18000502D01*
X71807309Y18000504D01*
X71693189Y18066391D01*
X71693191Y18066391D01*
X71643799Y18079625D01*
X71565892Y18100500D01*
X71434108Y18100500D01*
X71356200Y18079625D01*
X71306809Y18066391D01*
X71192690Y18000504D01*
X71099496Y17907310D01*
X71033609Y17793191D01*
X71016015Y17727526D01*
X70999500Y17665892D01*
X67433985Y17665892D01*
X67450500Y17727525D01*
X67450500Y17872475D01*
X67412984Y18012485D01*
X67412982Y18012488D01*
X67412982Y18012490D01*
X67340512Y18138011D01*
X67340510Y18138013D01*
X67340509Y18138015D01*
X67238015Y18240509D01*
X67238012Y18240511D01*
X67238010Y18240513D01*
X67112488Y18312983D01*
X67112489Y18312983D01*
X67082896Y18320913D01*
X66972475Y18350500D01*
X66827525Y18350500D01*
X66798020Y18342594D01*
X66687510Y18312983D01*
X66561989Y18240513D01*
X66459487Y18138011D01*
X66387017Y18012490D01*
X66349500Y17872475D01*
X49030483Y17872475D01*
X48981506Y17885598D01*
X48947639Y17894673D01*
X48896326Y17927996D01*
X48874399Y17985118D01*
X48874263Y17990299D01*
X48874263Y18101171D01*
X48856572Y18167196D01*
X48840155Y18228466D01*
X48840153Y18228469D01*
X48840153Y18228471D01*
X48774266Y18342590D01*
X48774264Y18342592D01*
X48774263Y18342594D01*
X48681077Y18435780D01*
X48681074Y18435782D01*
X48681072Y18435784D01*
X48566952Y18501671D01*
X48566954Y18501671D01*
X48517562Y18514905D01*
X48439655Y18535780D01*
X48307871Y18535780D01*
X48229963Y18514905D01*
X48180572Y18501671D01*
X48066453Y18435784D01*
X47973259Y18342590D01*
X47907372Y18228471D01*
X47907371Y18228466D01*
X47873263Y18101172D01*
X27977133Y18101172D01*
X28043152Y18167191D01*
X28078532Y18228471D01*
X28109042Y18281315D01*
X28109042Y18281317D01*
X28109044Y18281319D01*
X28143152Y18408613D01*
X28143152Y18540397D01*
X28109044Y18667691D01*
X28109042Y18667694D01*
X28109042Y18667696D01*
X28043155Y18781815D01*
X28043153Y18781817D01*
X28043152Y18781819D01*
X27949966Y18875005D01*
X27892334Y18908279D01*
X27851394Y18953748D01*
X27844998Y19014598D01*
X27871830Y19064017D01*
X27907609Y19099795D01*
X27911659Y19106810D01*
X27973499Y19213919D01*
X27973499Y19213921D01*
X27973501Y19213923D01*
X28007609Y19341217D01*
X28007609Y19365892D01*
X46799500Y19365892D01*
X46799500Y19234108D01*
X46804909Y19213923D01*
X46833609Y19106810D01*
X46899496Y18992691D01*
X46899498Y18992689D01*
X46899500Y18992686D01*
X46992686Y18899500D01*
X46992688Y18899499D01*
X46992690Y18899497D01*
X47106810Y18833610D01*
X47106808Y18833610D01*
X47106812Y18833609D01*
X47106814Y18833608D01*
X47234108Y18799500D01*
X47234110Y18799500D01*
X47365890Y18799500D01*
X47365892Y18799500D01*
X47493186Y18833608D01*
X47493188Y18833610D01*
X47493190Y18833610D01*
X47607309Y18899497D01*
X47607309Y18899498D01*
X47607314Y18899500D01*
X47700500Y18992686D01*
X47700503Y18992691D01*
X47766390Y19106810D01*
X47766390Y19106812D01*
X47766392Y19106814D01*
X47800500Y19234108D01*
X47800500Y19266187D01*
X47819407Y19324378D01*
X47868907Y19360342D01*
X47899500Y19365187D01*
X47931577Y19365187D01*
X47931579Y19365187D01*
X48058873Y19399295D01*
X48058875Y19399297D01*
X48058877Y19399297D01*
X48172996Y19465184D01*
X48172996Y19465185D01*
X48173001Y19465187D01*
X48266187Y19558373D01*
X48332079Y19672501D01*
X48366187Y19799795D01*
X48366187Y19931579D01*
X48332079Y20058873D01*
X48332077Y20058876D01*
X48332077Y20058878D01*
X48266190Y20172997D01*
X48266188Y20172999D01*
X48266187Y20173001D01*
X48173001Y20266187D01*
X48172998Y20266189D01*
X48172996Y20266191D01*
X48058876Y20332078D01*
X48058878Y20332078D01*
X48009486Y20345312D01*
X47931579Y20366187D01*
X47799795Y20366187D01*
X47721887Y20345312D01*
X47672496Y20332078D01*
X47558377Y20266191D01*
X47465183Y20172997D01*
X47399296Y20058878D01*
X47383386Y19999500D01*
X47378102Y19979777D01*
X47365187Y19931578D01*
X47365187Y19899500D01*
X47346280Y19841309D01*
X47296780Y19805345D01*
X47266187Y19800500D01*
X47234108Y19800500D01*
X47156200Y19779625D01*
X47106809Y19766391D01*
X46992690Y19700504D01*
X46899496Y19607310D01*
X46833609Y19493191D01*
X46833608Y19493186D01*
X46799500Y19365892D01*
X28007609Y19365892D01*
X28007609Y19473001D01*
X27973501Y19600295D01*
X27973499Y19600298D01*
X27973499Y19600300D01*
X27907612Y19714419D01*
X27907610Y19714421D01*
X27907609Y19714423D01*
X27814423Y19807609D01*
X27814420Y19807611D01*
X27814418Y19807613D01*
X27793186Y19819871D01*
X27752245Y19865340D01*
X27745849Y19926191D01*
X27776442Y19979179D01*
X27793188Y19991344D01*
X27807309Y19999497D01*
X27807309Y19999498D01*
X27807314Y19999500D01*
X27900500Y20092686D01*
X27927155Y20138853D01*
X27966390Y20206810D01*
X27966390Y20206812D01*
X27966392Y20206814D01*
X28000500Y20334108D01*
X28000500Y20465892D01*
X27988130Y20512059D01*
X41053333Y20512059D01*
X41053333Y20380275D01*
X41083412Y20268016D01*
X41087442Y20252977D01*
X41153329Y20138858D01*
X41153331Y20138856D01*
X41153333Y20138853D01*
X41246519Y20045667D01*
X41246521Y20045666D01*
X41246523Y20045664D01*
X41360643Y19979777D01*
X41360641Y19979777D01*
X41360645Y19979776D01*
X41360647Y19979775D01*
X41487941Y19945667D01*
X41487943Y19945667D01*
X41619723Y19945667D01*
X41619725Y19945667D01*
X41747019Y19979775D01*
X41747021Y19979777D01*
X41747023Y19979777D01*
X41861142Y20045664D01*
X41861142Y20045665D01*
X41861147Y20045667D01*
X41954333Y20138853D01*
X41974046Y20172997D01*
X42020223Y20252977D01*
X42020223Y20252979D01*
X42020225Y20252981D01*
X42054333Y20380275D01*
X42054333Y20512059D01*
X42020225Y20639353D01*
X42020223Y20639356D01*
X42020223Y20639358D01*
X41954336Y20753477D01*
X41954334Y20753479D01*
X41954333Y20753481D01*
X41861147Y20846667D01*
X41861144Y20846669D01*
X41861142Y20846671D01*
X41747022Y20912558D01*
X41747024Y20912558D01*
X41697632Y20925792D01*
X41619725Y20946667D01*
X41487941Y20946667D01*
X41410033Y20925792D01*
X41360642Y20912558D01*
X41246523Y20846671D01*
X41153329Y20753477D01*
X41087442Y20639358D01*
X41087441Y20639353D01*
X41053333Y20512059D01*
X27988130Y20512059D01*
X27966392Y20593186D01*
X27966390Y20593189D01*
X27966390Y20593191D01*
X27900503Y20707310D01*
X27900501Y20707312D01*
X27900500Y20707314D01*
X27807314Y20800500D01*
X27807311Y20800502D01*
X27807309Y20800504D01*
X27693189Y20866391D01*
X27693191Y20866391D01*
X27643799Y20879625D01*
X27565892Y20900500D01*
X27434108Y20900500D01*
X27356200Y20879625D01*
X27306809Y20866391D01*
X27192690Y20800504D01*
X27099496Y20707310D01*
X27033609Y20593191D01*
X27033608Y20593186D01*
X26999500Y20465892D01*
X200500Y20465892D01*
X200500Y21320779D01*
X39899500Y21320779D01*
X39899500Y21188995D01*
X39929579Y21076736D01*
X39933609Y21061697D01*
X39999496Y20947578D01*
X39999498Y20947576D01*
X39999500Y20947573D01*
X40092686Y20854387D01*
X40092688Y20854386D01*
X40092690Y20854384D01*
X40206810Y20788497D01*
X40206808Y20788497D01*
X40206812Y20788496D01*
X40206814Y20788495D01*
X40334108Y20754387D01*
X40334110Y20754387D01*
X40465890Y20754387D01*
X40465892Y20754387D01*
X40593186Y20788495D01*
X40593188Y20788497D01*
X40593190Y20788497D01*
X40707309Y20854384D01*
X40707309Y20854385D01*
X40707314Y20854387D01*
X40800500Y20947573D01*
X40866392Y21061701D01*
X40900500Y21188995D01*
X40900500Y21320779D01*
X40896835Y21334457D01*
X40900036Y21395556D01*
X40938540Y21443107D01*
X40997640Y21458944D01*
X41054762Y21437019D01*
X41062454Y21430094D01*
X41085852Y21406696D01*
X41085854Y21406695D01*
X41085856Y21406693D01*
X41199976Y21340806D01*
X41199974Y21340806D01*
X41199978Y21340805D01*
X41199980Y21340804D01*
X41327274Y21306696D01*
X41327276Y21306696D01*
X41459056Y21306696D01*
X41459058Y21306696D01*
X41586352Y21340804D01*
X41586354Y21340806D01*
X41586356Y21340806D01*
X41700475Y21406693D01*
X41700475Y21406694D01*
X41700480Y21406696D01*
X41793666Y21499882D01*
X41859558Y21614010D01*
X41893666Y21741304D01*
X41893666Y21873088D01*
X41859558Y22000382D01*
X41859556Y22000385D01*
X41859556Y22000387D01*
X41793669Y22114506D01*
X41793667Y22114508D01*
X41793666Y22114510D01*
X41700480Y22207696D01*
X41700477Y22207698D01*
X41700475Y22207700D01*
X41586355Y22273587D01*
X41586357Y22273587D01*
X41536965Y22286821D01*
X41459058Y22307696D01*
X41327274Y22307696D01*
X41249366Y22286821D01*
X41199975Y22273587D01*
X41085856Y22207700D01*
X40992662Y22114506D01*
X40926775Y22000387D01*
X40892666Y21873087D01*
X40892666Y21741305D01*
X40896331Y21727626D01*
X40893128Y21666525D01*
X40854622Y21618975D01*
X40795522Y21603140D01*
X40738400Y21625067D01*
X40730710Y21631991D01*
X40707314Y21655387D01*
X40707311Y21655389D01*
X40707309Y21655391D01*
X40593189Y21721278D01*
X40593191Y21721278D01*
X40543799Y21734512D01*
X40465892Y21755387D01*
X40334108Y21755387D01*
X40256200Y21734512D01*
X40206809Y21721278D01*
X40092690Y21655391D01*
X39999496Y21562197D01*
X39933609Y21448078D01*
X39933608Y21448073D01*
X39899500Y21320779D01*
X200500Y21320779D01*
X200500Y22865892D01*
X47599500Y22865892D01*
X47599500Y22734108D01*
X47629579Y22621849D01*
X47633609Y22606810D01*
X47699496Y22492691D01*
X47699498Y22492689D01*
X47699500Y22492686D01*
X47792686Y22399500D01*
X47792688Y22399499D01*
X47792690Y22399497D01*
X47906810Y22333610D01*
X47906808Y22333610D01*
X47906812Y22333609D01*
X47906814Y22333608D01*
X48034108Y22299500D01*
X48034110Y22299500D01*
X48165890Y22299500D01*
X48165892Y22299500D01*
X48293186Y22333608D01*
X48293188Y22333610D01*
X48293190Y22333610D01*
X48407309Y22399497D01*
X48407309Y22399498D01*
X48407314Y22399500D01*
X48500500Y22492686D01*
X48566392Y22606814D01*
X48600500Y22734108D01*
X48600500Y22865892D01*
X48566392Y22993186D01*
X48566390Y22993189D01*
X48566390Y22993191D01*
X48500503Y23107310D01*
X48500501Y23107312D01*
X48500500Y23107314D01*
X48407314Y23200500D01*
X48407311Y23200502D01*
X48407309Y23200504D01*
X48293189Y23266391D01*
X48293191Y23266391D01*
X48243799Y23279625D01*
X48165892Y23300500D01*
X48034108Y23300500D01*
X47956200Y23279625D01*
X47906809Y23266391D01*
X47792690Y23200504D01*
X47699496Y23107310D01*
X47633609Y22993191D01*
X47633608Y22993186D01*
X47599500Y22865892D01*
X200500Y22865892D01*
X200500Y23461250D01*
X50699500Y23461250D01*
X50699500Y23329466D01*
X50716401Y23266391D01*
X50733609Y23202168D01*
X50799496Y23088049D01*
X50799498Y23088047D01*
X50799500Y23088044D01*
X50892686Y22994858D01*
X50892688Y22994857D01*
X50892690Y22994855D01*
X51006810Y22928968D01*
X51006808Y22928968D01*
X51006812Y22928967D01*
X51006814Y22928966D01*
X51134108Y22894858D01*
X51134110Y22894858D01*
X51265890Y22894858D01*
X51265892Y22894858D01*
X51393186Y22928966D01*
X51393188Y22928968D01*
X51393190Y22928968D01*
X51507309Y22994855D01*
X51507309Y22994856D01*
X51507314Y22994858D01*
X51600500Y23088044D01*
X51666392Y23202172D01*
X51700500Y23329466D01*
X51700500Y23461250D01*
X51666392Y23588544D01*
X51666390Y23588547D01*
X51666390Y23588549D01*
X51600503Y23702668D01*
X51600501Y23702670D01*
X51600500Y23702672D01*
X51536280Y23766892D01*
X53799500Y23766892D01*
X53799500Y23635108D01*
X53811977Y23588544D01*
X53833609Y23507810D01*
X53899496Y23393691D01*
X53899498Y23393689D01*
X53899500Y23393686D01*
X53992686Y23300500D01*
X53992688Y23300499D01*
X53992690Y23300497D01*
X54106810Y23234610D01*
X54106808Y23234610D01*
X54106812Y23234609D01*
X54106814Y23234608D01*
X54234108Y23200500D01*
X54234110Y23200500D01*
X54365890Y23200500D01*
X54365892Y23200500D01*
X54493186Y23234608D01*
X54493188Y23234610D01*
X54493190Y23234610D01*
X54607309Y23300497D01*
X54607309Y23300498D01*
X54607314Y23300500D01*
X54700500Y23393686D01*
X54766392Y23507814D01*
X54800500Y23635108D01*
X54800500Y23766892D01*
X57885273Y23766892D01*
X57885273Y23635108D01*
X57897750Y23588544D01*
X57919382Y23507810D01*
X57985269Y23393691D01*
X57985271Y23393689D01*
X57985273Y23393686D01*
X58078459Y23300500D01*
X58078461Y23300499D01*
X58078463Y23300497D01*
X58192583Y23234610D01*
X58192581Y23234610D01*
X58192585Y23234609D01*
X58192587Y23234608D01*
X58319881Y23200500D01*
X58319883Y23200500D01*
X58451663Y23200500D01*
X58451665Y23200500D01*
X58578959Y23234608D01*
X58578961Y23234610D01*
X58578963Y23234610D01*
X58693082Y23300497D01*
X58693082Y23300498D01*
X58693087Y23300500D01*
X58786273Y23393686D01*
X58852165Y23507814D01*
X58886273Y23635108D01*
X58886273Y23766892D01*
X58852165Y23894186D01*
X58852163Y23894189D01*
X58852163Y23894191D01*
X58786276Y24008310D01*
X58786274Y24008312D01*
X58786273Y24008314D01*
X58693087Y24101500D01*
X58693084Y24101502D01*
X58693082Y24101504D01*
X58578962Y24167391D01*
X58578964Y24167391D01*
X58529572Y24180625D01*
X58451665Y24201500D01*
X58319881Y24201500D01*
X58241973Y24180625D01*
X58192582Y24167391D01*
X58078463Y24101504D01*
X57985269Y24008310D01*
X57919382Y23894191D01*
X57900312Y23823022D01*
X57885273Y23766892D01*
X54800500Y23766892D01*
X54766392Y23894186D01*
X54766390Y23894189D01*
X54766390Y23894191D01*
X54700503Y24008310D01*
X54700501Y24008312D01*
X54700500Y24008314D01*
X54607314Y24101500D01*
X54607311Y24101502D01*
X54607309Y24101504D01*
X54493189Y24167391D01*
X54493191Y24167391D01*
X54443799Y24180625D01*
X54365892Y24201500D01*
X54234108Y24201500D01*
X54156200Y24180625D01*
X54106809Y24167391D01*
X53992690Y24101504D01*
X53899496Y24008310D01*
X53833609Y23894191D01*
X53814539Y23823022D01*
X53799500Y23766892D01*
X51536280Y23766892D01*
X51507314Y23795858D01*
X51507311Y23795860D01*
X51507309Y23795862D01*
X51393189Y23861749D01*
X51393191Y23861749D01*
X51343799Y23874983D01*
X51265892Y23895858D01*
X51134108Y23895858D01*
X51056200Y23874983D01*
X51006809Y23861749D01*
X50892690Y23795862D01*
X50799496Y23702668D01*
X50733609Y23588549D01*
X50733608Y23588544D01*
X50699500Y23461250D01*
X200500Y23461250D01*
X200500Y24672475D01*
X25149500Y24672475D01*
X25149500Y24527525D01*
X25157010Y24499497D01*
X25187017Y24387511D01*
X25259487Y24261990D01*
X25259489Y24261988D01*
X25259491Y24261985D01*
X25361985Y24159491D01*
X25361987Y24159490D01*
X25361989Y24159488D01*
X25487511Y24087018D01*
X25487512Y24087018D01*
X25487515Y24087016D01*
X25627525Y24049500D01*
X25627526Y24049500D01*
X25772474Y24049500D01*
X25772475Y24049500D01*
X25912485Y24087016D01*
X25912487Y24087018D01*
X25912489Y24087018D01*
X26038010Y24159488D01*
X26038010Y24159489D01*
X26038015Y24159491D01*
X26140509Y24261985D01*
X26140512Y24261990D01*
X26212982Y24387511D01*
X26212982Y24387513D01*
X26212984Y24387515D01*
X26233985Y24465892D01*
X35199500Y24465892D01*
X35199500Y24334108D01*
X35218824Y24261990D01*
X35233609Y24206810D01*
X35299496Y24092691D01*
X35299498Y24092689D01*
X35299500Y24092686D01*
X35392686Y23999500D01*
X35392688Y23999499D01*
X35392690Y23999497D01*
X35506810Y23933610D01*
X35506808Y23933610D01*
X35506812Y23933609D01*
X35506814Y23933608D01*
X35634108Y23899500D01*
X35634110Y23899500D01*
X35765890Y23899500D01*
X35765892Y23899500D01*
X35893186Y23933608D01*
X35893188Y23933610D01*
X35893190Y23933610D01*
X36007309Y23999497D01*
X36007309Y23999498D01*
X36007314Y23999500D01*
X36100500Y24092686D01*
X36166392Y24206814D01*
X36200500Y24334108D01*
X36200500Y24465892D01*
X36166392Y24593186D01*
X36166390Y24593189D01*
X36166390Y24593191D01*
X36100503Y24707310D01*
X36100501Y24707312D01*
X36100500Y24707314D01*
X36007314Y24800500D01*
X36007311Y24800502D01*
X36007309Y24800504D01*
X35893189Y24866391D01*
X35893191Y24866391D01*
X35843799Y24879625D01*
X35765892Y24900500D01*
X35634108Y24900500D01*
X35556200Y24879625D01*
X35506809Y24866391D01*
X35392690Y24800504D01*
X35299496Y24707310D01*
X35233609Y24593191D01*
X35233608Y24593186D01*
X35199500Y24465892D01*
X26233985Y24465892D01*
X26250500Y24527525D01*
X26250500Y24672475D01*
X26212984Y24812485D01*
X26212982Y24812488D01*
X26212982Y24812490D01*
X26140512Y24938011D01*
X26140510Y24938013D01*
X26140509Y24938015D01*
X26112632Y24965892D01*
X41899500Y24965892D01*
X41899500Y24834108D01*
X41929579Y24721849D01*
X41933609Y24706810D01*
X41999496Y24592691D01*
X41999498Y24592689D01*
X41999500Y24592686D01*
X42092686Y24499500D01*
X42092688Y24499499D01*
X42092690Y24499497D01*
X42206810Y24433610D01*
X42206808Y24433610D01*
X42206812Y24433609D01*
X42206814Y24433608D01*
X42334108Y24399500D01*
X42334110Y24399500D01*
X42465890Y24399500D01*
X42465892Y24399500D01*
X42593186Y24433608D01*
X42593188Y24433610D01*
X42593190Y24433610D01*
X42707309Y24499497D01*
X42707309Y24499498D01*
X42707314Y24499500D01*
X42800500Y24592686D01*
X42800792Y24593191D01*
X42866390Y24706810D01*
X42866390Y24706812D01*
X42866392Y24706814D01*
X42900500Y24834108D01*
X42900500Y24965892D01*
X42866392Y25093186D01*
X42866390Y25093189D01*
X42866390Y25093191D01*
X42800503Y25207310D01*
X42800501Y25207312D01*
X42800500Y25207314D01*
X42707314Y25300500D01*
X42707311Y25300502D01*
X42707309Y25300504D01*
X42593189Y25366391D01*
X42593191Y25366391D01*
X42543799Y25379625D01*
X42465892Y25400500D01*
X42334108Y25400500D01*
X42256200Y25379625D01*
X42206809Y25366391D01*
X42092690Y25300504D01*
X41999496Y25207310D01*
X41933609Y25093191D01*
X41933608Y25093186D01*
X41899500Y24965892D01*
X26112632Y24965892D01*
X26038015Y25040509D01*
X26038012Y25040511D01*
X26038010Y25040513D01*
X25912488Y25112983D01*
X25912489Y25112983D01*
X25882896Y25120913D01*
X25772475Y25150500D01*
X25627525Y25150500D01*
X25565790Y25133959D01*
X25487510Y25112983D01*
X25361989Y25040513D01*
X25259487Y24938011D01*
X25187017Y24812490D01*
X25158835Y24707314D01*
X25149500Y24672475D01*
X200500Y24672475D01*
X200500Y25565892D01*
X35999500Y25565892D01*
X35999500Y25434108D01*
X36017644Y25366392D01*
X36033609Y25306810D01*
X36099496Y25192691D01*
X36099498Y25192689D01*
X36099500Y25192686D01*
X36192686Y25099500D01*
X36192688Y25099499D01*
X36192690Y25099497D01*
X36306810Y25033610D01*
X36306808Y25033610D01*
X36306812Y25033609D01*
X36306814Y25033608D01*
X36434108Y24999500D01*
X36434110Y24999500D01*
X36565890Y24999500D01*
X36565892Y24999500D01*
X36693186Y25033608D01*
X36693188Y25033610D01*
X36693190Y25033610D01*
X36735638Y25058117D01*
X36807309Y25099497D01*
X36807309Y25099498D01*
X36807314Y25099500D01*
X36900500Y25192686D01*
X36966392Y25306814D01*
X37000500Y25434108D01*
X37000500Y25565892D01*
X36966392Y25693186D01*
X36966390Y25693189D01*
X36966390Y25693191D01*
X36900503Y25807310D01*
X36900501Y25807312D01*
X36900500Y25807314D01*
X36807314Y25900500D01*
X36807311Y25900502D01*
X36807309Y25900504D01*
X36693189Y25966391D01*
X36693191Y25966391D01*
X36643799Y25979625D01*
X36565892Y26000500D01*
X36434108Y26000500D01*
X36356200Y25979625D01*
X36306809Y25966391D01*
X36192690Y25900504D01*
X36099496Y25807310D01*
X36033609Y25693191D01*
X36033608Y25693186D01*
X35999500Y25565892D01*
X200500Y25565892D01*
X200500Y26365892D01*
X51398500Y26365892D01*
X51398500Y26234108D01*
X51400148Y26227958D01*
X51432609Y26106810D01*
X51498496Y25992691D01*
X51498498Y25992689D01*
X51498500Y25992686D01*
X51591686Y25899500D01*
X51591688Y25899499D01*
X51591690Y25899497D01*
X51705810Y25833610D01*
X51705808Y25833610D01*
X51705812Y25833609D01*
X51705814Y25833608D01*
X51833108Y25799500D01*
X51833110Y25799500D01*
X51964890Y25799500D01*
X51964892Y25799500D01*
X52092186Y25833608D01*
X52092188Y25833610D01*
X52092190Y25833610D01*
X52206309Y25899497D01*
X52206309Y25899498D01*
X52206314Y25899500D01*
X52299500Y25992686D01*
X52299503Y25992691D01*
X52365390Y26106810D01*
X52365390Y26106812D01*
X52365392Y26106814D01*
X52381222Y26165892D01*
X58299500Y26165892D01*
X58299500Y26034108D01*
X58310598Y25992691D01*
X58333609Y25906810D01*
X58399496Y25792691D01*
X58399498Y25792689D01*
X58399500Y25792686D01*
X58492686Y25699500D01*
X58492688Y25699499D01*
X58492690Y25699497D01*
X58606810Y25633610D01*
X58606808Y25633610D01*
X58606812Y25633609D01*
X58606814Y25633608D01*
X58734108Y25599500D01*
X58734110Y25599500D01*
X58865890Y25599500D01*
X58865892Y25599500D01*
X58993186Y25633608D01*
X58993188Y25633610D01*
X58993190Y25633610D01*
X59107309Y25699497D01*
X59107309Y25699498D01*
X59107314Y25699500D01*
X59200500Y25792686D01*
X59208946Y25807314D01*
X59266390Y25906810D01*
X59266390Y25906812D01*
X59266392Y25906814D01*
X59300500Y26034108D01*
X59300500Y26165892D01*
X59266392Y26293186D01*
X59266390Y26293189D01*
X59266390Y26293191D01*
X59200503Y26407310D01*
X59200501Y26407312D01*
X59200500Y26407314D01*
X59120778Y26487036D01*
X64749501Y26487036D01*
X64749501Y26355252D01*
X64779580Y26242993D01*
X64783610Y26227954D01*
X64849497Y26113835D01*
X64849499Y26113833D01*
X64849501Y26113830D01*
X64942687Y26020644D01*
X64942689Y26020643D01*
X64942691Y26020641D01*
X65056811Y25954754D01*
X65056809Y25954754D01*
X65056813Y25954753D01*
X65056815Y25954752D01*
X65184109Y25920644D01*
X65184111Y25920644D01*
X65315891Y25920644D01*
X65315893Y25920644D01*
X65443187Y25954752D01*
X65443189Y25954754D01*
X65443191Y25954754D01*
X65557310Y26020641D01*
X65557310Y26020642D01*
X65557315Y26020644D01*
X65650501Y26113830D01*
X65716393Y26227958D01*
X65750501Y26355252D01*
X65750501Y26487036D01*
X65716393Y26614330D01*
X65711455Y26622882D01*
X65711455Y26622884D01*
X65686624Y26665892D01*
X65949501Y26665892D01*
X65949501Y26534108D01*
X65960465Y26493191D01*
X65983610Y26406810D01*
X66049497Y26292691D01*
X66049499Y26292689D01*
X66049501Y26292686D01*
X66142687Y26199500D01*
X66142689Y26199499D01*
X66142691Y26199497D01*
X66256811Y26133610D01*
X66256809Y26133610D01*
X66256813Y26133609D01*
X66256815Y26133608D01*
X66384109Y26099500D01*
X66384111Y26099500D01*
X66515891Y26099500D01*
X66515893Y26099500D01*
X66643187Y26133608D01*
X66643189Y26133610D01*
X66643191Y26133610D01*
X66757310Y26199497D01*
X66757310Y26199498D01*
X66757315Y26199500D01*
X66850501Y26292686D01*
X66916393Y26406814D01*
X66950501Y26534108D01*
X66950501Y26665892D01*
X66916393Y26793186D01*
X66916391Y26793189D01*
X66916391Y26793191D01*
X66850504Y26907310D01*
X66850502Y26907312D01*
X66850501Y26907314D01*
X66757315Y27000500D01*
X66757312Y27000502D01*
X66757310Y27000504D01*
X66643190Y27066391D01*
X66643192Y27066391D01*
X66593800Y27079625D01*
X66515893Y27100500D01*
X66384109Y27100500D01*
X66306201Y27079625D01*
X66256810Y27066391D01*
X66142691Y27000504D01*
X66049497Y26907310D01*
X65983610Y26793191D01*
X65976429Y26766391D01*
X65949501Y26665892D01*
X65686624Y26665892D01*
X65650504Y26728454D01*
X65650502Y26728456D01*
X65650501Y26728458D01*
X65557315Y26821644D01*
X65557312Y26821646D01*
X65557310Y26821648D01*
X65443190Y26887535D01*
X65443192Y26887535D01*
X65393800Y26900769D01*
X65315893Y26921644D01*
X65184109Y26921644D01*
X65106201Y26900769D01*
X65056810Y26887535D01*
X64942691Y26821648D01*
X64849497Y26728454D01*
X64783610Y26614335D01*
X64783609Y26614330D01*
X64749501Y26487036D01*
X59120778Y26487036D01*
X59107314Y26500500D01*
X59107311Y26500502D01*
X59107309Y26500504D01*
X58993189Y26566391D01*
X58993191Y26566391D01*
X58943799Y26579625D01*
X58865892Y26600500D01*
X58734108Y26600500D01*
X58656200Y26579625D01*
X58606809Y26566391D01*
X58492690Y26500504D01*
X58399496Y26407310D01*
X58333609Y26293191D01*
X58317778Y26234108D01*
X58299500Y26165892D01*
X52381222Y26165892D01*
X52399500Y26234108D01*
X52399500Y26365892D01*
X52365392Y26493186D01*
X52365390Y26493189D01*
X52365390Y26493191D01*
X52299503Y26607310D01*
X52299501Y26607312D01*
X52299500Y26607314D01*
X52206314Y26700500D01*
X52206311Y26700502D01*
X52206309Y26700504D01*
X52092189Y26766391D01*
X52092191Y26766391D01*
X52042799Y26779625D01*
X51964892Y26800500D01*
X51833108Y26800500D01*
X51755200Y26779625D01*
X51705809Y26766391D01*
X51591690Y26700504D01*
X51498496Y26607310D01*
X51432609Y26493191D01*
X51432608Y26493186D01*
X51398500Y26365892D01*
X200500Y26365892D01*
X200500Y27265892D01*
X48799500Y27265892D01*
X48799500Y27134108D01*
X48817644Y27066392D01*
X48833609Y27006810D01*
X48899496Y26892691D01*
X48899498Y26892689D01*
X48899500Y26892686D01*
X48992686Y26799500D01*
X48992688Y26799499D01*
X48992690Y26799497D01*
X49106810Y26733610D01*
X49106808Y26733610D01*
X49106812Y26733609D01*
X49106814Y26733608D01*
X49234108Y26699500D01*
X49234110Y26699500D01*
X49365890Y26699500D01*
X49365892Y26699500D01*
X49493186Y26733608D01*
X49493188Y26733610D01*
X49493190Y26733610D01*
X49607309Y26799497D01*
X49607309Y26799498D01*
X49607314Y26799500D01*
X49700500Y26892686D01*
X49766392Y27006814D01*
X49800500Y27134108D01*
X49800500Y27265892D01*
X49766392Y27393186D01*
X49766390Y27393189D01*
X49766390Y27393191D01*
X49700503Y27507310D01*
X49700501Y27507312D01*
X49700500Y27507314D01*
X49607314Y27600500D01*
X49607311Y27600502D01*
X49607309Y27600504D01*
X49493189Y27666391D01*
X49493191Y27666391D01*
X49478722Y27670268D01*
X49365892Y27700500D01*
X49234108Y27700500D01*
X49156200Y27679625D01*
X49106809Y27666391D01*
X48992690Y27600504D01*
X48899496Y27507310D01*
X48833609Y27393191D01*
X48833608Y27393186D01*
X48799500Y27265892D01*
X200500Y27265892D01*
X200500Y27765892D01*
X52199500Y27765892D01*
X52199500Y27634108D01*
X52229579Y27521849D01*
X52233609Y27506810D01*
X52299496Y27392691D01*
X52299498Y27392689D01*
X52299500Y27392686D01*
X52392686Y27299500D01*
X52392688Y27299499D01*
X52392690Y27299497D01*
X52506810Y27233610D01*
X52506808Y27233610D01*
X52506812Y27233609D01*
X52506814Y27233608D01*
X52634108Y27199500D01*
X52634110Y27199500D01*
X52765890Y27199500D01*
X52765892Y27199500D01*
X52893186Y27233608D01*
X52893188Y27233610D01*
X52893190Y27233610D01*
X53007309Y27299497D01*
X53007309Y27299498D01*
X53007314Y27299500D01*
X53100500Y27392686D01*
X53166392Y27506814D01*
X53200500Y27634108D01*
X53200500Y27765892D01*
X53166392Y27893186D01*
X53166390Y27893189D01*
X53166390Y27893191D01*
X53100503Y28007310D01*
X53100501Y28007312D01*
X53100500Y28007314D01*
X53007314Y28100500D01*
X53007311Y28100502D01*
X53007309Y28100504D01*
X52893189Y28166391D01*
X52893191Y28166391D01*
X52878722Y28170268D01*
X52765892Y28200500D01*
X52634108Y28200500D01*
X52556200Y28179625D01*
X52506809Y28166391D01*
X52392690Y28100504D01*
X52299496Y28007310D01*
X52233609Y27893191D01*
X52233608Y27893186D01*
X52199500Y27765892D01*
X200500Y27765892D01*
X200500Y28565892D01*
X49099500Y28565892D01*
X49099500Y28434108D01*
X49108773Y28399500D01*
X49133609Y28306810D01*
X49199496Y28192691D01*
X49199498Y28192689D01*
X49199500Y28192686D01*
X49292686Y28099500D01*
X49292688Y28099499D01*
X49292690Y28099497D01*
X49406810Y28033610D01*
X49406808Y28033610D01*
X49406812Y28033609D01*
X49406814Y28033608D01*
X49534108Y27999500D01*
X49534110Y27999500D01*
X49665890Y27999500D01*
X49665892Y27999500D01*
X49793186Y28033608D01*
X49793188Y28033610D01*
X49793190Y28033610D01*
X49907309Y28099497D01*
X49907309Y28099498D01*
X49907314Y28099500D01*
X50000500Y28192686D01*
X50000503Y28192691D01*
X50042766Y28265892D01*
X54448027Y28265892D01*
X54448027Y28134108D01*
X54457300Y28099500D01*
X54482136Y28006810D01*
X54548023Y27892691D01*
X54548025Y27892689D01*
X54548027Y27892686D01*
X54641213Y27799500D01*
X54641215Y27799499D01*
X54641217Y27799497D01*
X54755337Y27733610D01*
X54755335Y27733610D01*
X54755339Y27733609D01*
X54755341Y27733608D01*
X54882635Y27699500D01*
X54882637Y27699500D01*
X55014417Y27699500D01*
X55014419Y27699500D01*
X55141713Y27733608D01*
X55141715Y27733610D01*
X55141717Y27733610D01*
X55255836Y27799497D01*
X55255836Y27799498D01*
X55255841Y27799500D01*
X55349027Y27892686D01*
X55352961Y27899500D01*
X55414917Y28006810D01*
X55414917Y28006812D01*
X55414919Y28006814D01*
X55449027Y28134108D01*
X55449027Y28265892D01*
X55414919Y28393186D01*
X55414917Y28393189D01*
X55414917Y28393191D01*
X55349030Y28507310D01*
X55349028Y28507312D01*
X55349027Y28507314D01*
X55255841Y28600500D01*
X55255838Y28600502D01*
X55255836Y28600504D01*
X55141716Y28666391D01*
X55141718Y28666391D01*
X55092326Y28679625D01*
X55014419Y28700500D01*
X54882635Y28700500D01*
X54804727Y28679625D01*
X54755336Y28666391D01*
X54641217Y28600504D01*
X54548023Y28507310D01*
X54482136Y28393191D01*
X54482135Y28393186D01*
X54448027Y28265892D01*
X50042766Y28265892D01*
X50066390Y28306810D01*
X50066390Y28306812D01*
X50066392Y28306814D01*
X50100500Y28434108D01*
X50100500Y28565892D01*
X50066392Y28693186D01*
X50066390Y28693189D01*
X50066390Y28693191D01*
X50000503Y28807310D01*
X50000501Y28807312D01*
X50000500Y28807314D01*
X49941922Y28865892D01*
X58799500Y28865892D01*
X58799500Y28734108D01*
X58810464Y28693191D01*
X58833609Y28606810D01*
X58899496Y28492691D01*
X58899498Y28492689D01*
X58899500Y28492686D01*
X58992686Y28399500D01*
X58992688Y28399499D01*
X58992690Y28399497D01*
X59106810Y28333610D01*
X59106808Y28333610D01*
X59106812Y28333609D01*
X59106814Y28333608D01*
X59234108Y28299500D01*
X59234110Y28299500D01*
X59365890Y28299500D01*
X59365892Y28299500D01*
X59493186Y28333608D01*
X59493188Y28333610D01*
X59493190Y28333610D01*
X59607309Y28399497D01*
X59607309Y28399498D01*
X59607314Y28399500D01*
X59673706Y28465892D01*
X70099500Y28465892D01*
X70099500Y28334108D01*
X70108773Y28299500D01*
X70133609Y28206810D01*
X70199496Y28092691D01*
X70199498Y28092689D01*
X70199500Y28092686D01*
X70292686Y27999500D01*
X70292688Y27999499D01*
X70292690Y27999497D01*
X70406810Y27933610D01*
X70406808Y27933610D01*
X70406812Y27933609D01*
X70406814Y27933608D01*
X70534108Y27899500D01*
X70534110Y27899500D01*
X70665890Y27899500D01*
X70665892Y27899500D01*
X70793186Y27933608D01*
X70793188Y27933610D01*
X70793190Y27933610D01*
X70907309Y27999497D01*
X70907309Y27999498D01*
X70907314Y27999500D01*
X71000500Y28092686D01*
X71004434Y28099500D01*
X71066390Y28206810D01*
X71066390Y28206812D01*
X71066392Y28206814D01*
X71100500Y28334108D01*
X71100500Y28465892D01*
X71066392Y28593186D01*
X71066390Y28593189D01*
X71066390Y28593191D01*
X71000503Y28707310D01*
X71000501Y28707312D01*
X71000500Y28707314D01*
X70907314Y28800500D01*
X70907311Y28800502D01*
X70907309Y28800504D01*
X70793189Y28866391D01*
X70793191Y28866391D01*
X70743799Y28879625D01*
X70665892Y28900500D01*
X70534108Y28900500D01*
X70456200Y28879625D01*
X70406809Y28866391D01*
X70292690Y28800504D01*
X70199496Y28707310D01*
X70133609Y28593191D01*
X70126294Y28565891D01*
X70099500Y28465892D01*
X59673706Y28465892D01*
X59700500Y28492686D01*
X59709504Y28508283D01*
X59717357Y28521882D01*
X59758524Y28593186D01*
X59766392Y28606814D01*
X59800500Y28734108D01*
X59800500Y28865892D01*
X59766392Y28993186D01*
X59766390Y28993189D01*
X59766390Y28993191D01*
X59700503Y29107310D01*
X59700501Y29107312D01*
X59700500Y29107314D01*
X59607314Y29200500D01*
X59607311Y29200502D01*
X59607309Y29200504D01*
X59493189Y29266391D01*
X59493191Y29266391D01*
X59443799Y29279625D01*
X59365892Y29300500D01*
X59234108Y29300500D01*
X59156200Y29279625D01*
X59106809Y29266391D01*
X58992690Y29200504D01*
X58899496Y29107310D01*
X58833609Y28993191D01*
X58826428Y28966391D01*
X58799500Y28865892D01*
X49941922Y28865892D01*
X49907314Y28900500D01*
X49907311Y28900502D01*
X49907309Y28900504D01*
X49793189Y28966391D01*
X49793191Y28966391D01*
X49743799Y28979625D01*
X49665892Y29000500D01*
X49534108Y29000500D01*
X49456200Y28979625D01*
X49406809Y28966391D01*
X49292690Y28900504D01*
X49199496Y28807310D01*
X49133609Y28693191D01*
X49126428Y28666391D01*
X49099500Y28565892D01*
X200500Y28565892D01*
X200500Y32706604D01*
X19945500Y32706604D01*
X19945500Y32493397D01*
X19978851Y32282826D01*
X20044736Y32080053D01*
X20141527Y31890088D01*
X20141531Y31890082D01*
X20266841Y31717609D01*
X20266843Y31717607D01*
X20266846Y31717603D01*
X20417603Y31566846D01*
X20417606Y31566844D01*
X20417608Y31566842D01*
X20590081Y31441532D01*
X20590087Y31441528D01*
X20780053Y31344736D01*
X20982821Y31278853D01*
X20982822Y31278853D01*
X20982825Y31278852D01*
X21193396Y31245500D01*
X21193399Y31245500D01*
X21406604Y31245500D01*
X21535350Y31265892D01*
X53399500Y31265892D01*
X53399500Y31134108D01*
X53429579Y31021849D01*
X53433609Y31006810D01*
X53499496Y30892691D01*
X53499498Y30892689D01*
X53499500Y30892686D01*
X53592686Y30799500D01*
X53592688Y30799499D01*
X53592690Y30799497D01*
X53706810Y30733610D01*
X53706808Y30733610D01*
X53706812Y30733609D01*
X53706814Y30733608D01*
X53834108Y30699500D01*
X53834110Y30699500D01*
X53965890Y30699500D01*
X53965892Y30699500D01*
X54093186Y30733608D01*
X54093188Y30733610D01*
X54093190Y30733610D01*
X54207309Y30799497D01*
X54207309Y30799498D01*
X54207314Y30799500D01*
X54300500Y30892686D01*
X54366392Y31006814D01*
X54400500Y31134108D01*
X54400500Y31265892D01*
X54370356Y31378392D01*
X63999500Y31378392D01*
X63999500Y31246608D01*
X63999797Y31245500D01*
X64033609Y31119310D01*
X64099496Y31005191D01*
X64099498Y31005189D01*
X64099500Y31005186D01*
X64192686Y30912000D01*
X64192688Y30911999D01*
X64192690Y30911997D01*
X64312433Y30842863D01*
X64311172Y30840681D01*
X64349464Y30807974D01*
X64363744Y30748478D01*
X64340327Y30691951D01*
X64311599Y30671080D01*
X64312433Y30669637D01*
X64192690Y30600504D01*
X64099496Y30507310D01*
X64033609Y30393191D01*
X64033608Y30393186D01*
X63999500Y30265892D01*
X63999500Y30134108D01*
X64029579Y30021849D01*
X64033609Y30006810D01*
X64099496Y29892691D01*
X64099498Y29892689D01*
X64099500Y29892686D01*
X64192686Y29799500D01*
X64192688Y29799499D01*
X64192690Y29799497D01*
X64306810Y29733610D01*
X64306808Y29733610D01*
X64306812Y29733609D01*
X64306814Y29733608D01*
X64434108Y29699500D01*
X64434110Y29699500D01*
X64565890Y29699500D01*
X64565892Y29699500D01*
X64693186Y29733608D01*
X64693188Y29733610D01*
X64693190Y29733610D01*
X64807309Y29799497D01*
X64807309Y29799498D01*
X64807314Y29799500D01*
X64900500Y29892686D01*
X64966392Y30006814D01*
X65000500Y30134108D01*
X65000500Y30265892D01*
X64966392Y30393186D01*
X64966390Y30393189D01*
X64966390Y30393191D01*
X64900503Y30507310D01*
X64900501Y30507312D01*
X64900500Y30507314D01*
X64807314Y30600500D01*
X64807311Y30600502D01*
X64807309Y30600504D01*
X64687567Y30669637D01*
X64688828Y30671823D01*
X64650544Y30704512D01*
X64636253Y30764005D01*
X64659661Y30820536D01*
X64688401Y30841418D01*
X64687567Y30842863D01*
X64807309Y30911997D01*
X64807309Y30911998D01*
X64807314Y30912000D01*
X64900500Y31005186D01*
X64966392Y31119314D01*
X65000500Y31246608D01*
X65000500Y31378392D01*
X64966392Y31505686D01*
X64966390Y31505689D01*
X64966390Y31505691D01*
X64900503Y31619810D01*
X64900501Y31619812D01*
X64900500Y31619814D01*
X64807314Y31713000D01*
X64807311Y31713002D01*
X64807309Y31713004D01*
X64693189Y31778891D01*
X64693191Y31778891D01*
X64643799Y31792125D01*
X64565892Y31813000D01*
X64434108Y31813000D01*
X64356200Y31792125D01*
X64306809Y31778891D01*
X64192690Y31713004D01*
X64099496Y31619810D01*
X64033609Y31505691D01*
X64033608Y31505686D01*
X63999500Y31378392D01*
X54370356Y31378392D01*
X54366392Y31393186D01*
X54338482Y31441528D01*
X54300503Y31507310D01*
X54300501Y31507312D01*
X54300500Y31507314D01*
X54207314Y31600500D01*
X54207311Y31600502D01*
X54207309Y31600504D01*
X54093189Y31666391D01*
X54093191Y31666391D01*
X54043799Y31679625D01*
X53965892Y31700500D01*
X53834108Y31700500D01*
X53756200Y31679625D01*
X53706809Y31666391D01*
X53592690Y31600504D01*
X53499496Y31507310D01*
X53433609Y31393191D01*
X53424874Y31360591D01*
X53399500Y31265892D01*
X21535350Y31265892D01*
X21617174Y31278852D01*
X21617175Y31278853D01*
X21617179Y31278853D01*
X21819947Y31344736D01*
X22009913Y31441528D01*
X22182397Y31566846D01*
X22333154Y31717603D01*
X22458472Y31890087D01*
X22555264Y32080053D01*
X22621147Y32282821D01*
X22641607Y32411997D01*
X22654500Y32493397D01*
X22654500Y32706604D01*
X22634304Y32834110D01*
X22621147Y32917179D01*
X22605319Y32965892D01*
X49699500Y32965892D01*
X49699500Y32834108D01*
X49712031Y32787343D01*
X49733609Y32706810D01*
X49799496Y32592691D01*
X49799498Y32592689D01*
X49799500Y32592686D01*
X49892686Y32499500D01*
X49892688Y32499499D01*
X49892690Y32499497D01*
X50006810Y32433610D01*
X50006808Y32433610D01*
X50006812Y32433609D01*
X50006814Y32433608D01*
X50134108Y32399500D01*
X50134110Y32399500D01*
X50265890Y32399500D01*
X50265892Y32399500D01*
X50393186Y32433608D01*
X50460240Y32472323D01*
X50520089Y32485044D01*
X50575984Y32460158D01*
X50605368Y32412209D01*
X50633609Y32306810D01*
X50699496Y32192691D01*
X50699498Y32192689D01*
X50699500Y32192686D01*
X50792686Y32099500D01*
X50792688Y32099499D01*
X50792690Y32099497D01*
X50906810Y32033610D01*
X50906808Y32033610D01*
X50906812Y32033609D01*
X50906814Y32033608D01*
X51034108Y31999500D01*
X51034110Y31999500D01*
X51165890Y31999500D01*
X51165892Y31999500D01*
X51293186Y32033608D01*
X51293188Y32033610D01*
X51293190Y32033610D01*
X51407309Y32099497D01*
X51407309Y32099498D01*
X51407314Y32099500D01*
X51500500Y32192686D01*
X51552540Y32282821D01*
X51566390Y32306810D01*
X51566390Y32306812D01*
X51566392Y32306814D01*
X51600500Y32434108D01*
X51600500Y32565892D01*
X51566392Y32693186D01*
X51566390Y32693189D01*
X51566390Y32693191D01*
X51500503Y32807310D01*
X51500501Y32807312D01*
X51500500Y32807314D01*
X51429422Y32878392D01*
X64199500Y32878392D01*
X64199500Y32746608D01*
X64229579Y32634349D01*
X64233609Y32619310D01*
X64299496Y32505191D01*
X64299498Y32505189D01*
X64299500Y32505186D01*
X64392686Y32412000D01*
X64392688Y32411999D01*
X64392690Y32411997D01*
X64506810Y32346110D01*
X64506808Y32346110D01*
X64506812Y32346109D01*
X64506814Y32346108D01*
X64634108Y32312000D01*
X64634110Y32312000D01*
X64765890Y32312000D01*
X64765892Y32312000D01*
X64893186Y32346108D01*
X64893188Y32346110D01*
X64893190Y32346110D01*
X65007309Y32411997D01*
X65007309Y32411998D01*
X65007314Y32412000D01*
X65100500Y32505186D01*
X65135549Y32565892D01*
X65166390Y32619310D01*
X65166390Y32619312D01*
X65166392Y32619314D01*
X65189781Y32706604D01*
X71245500Y32706604D01*
X71245500Y32493397D01*
X71278851Y32282826D01*
X71344736Y32080053D01*
X71441527Y31890088D01*
X71441531Y31890082D01*
X71566841Y31717609D01*
X71566843Y31717607D01*
X71566846Y31717603D01*
X71717603Y31566846D01*
X71717606Y31566844D01*
X71717608Y31566842D01*
X71890081Y31441532D01*
X71890087Y31441528D01*
X72080053Y31344736D01*
X72282821Y31278853D01*
X72282822Y31278853D01*
X72282825Y31278852D01*
X72493396Y31245500D01*
X72493399Y31245500D01*
X72706604Y31245500D01*
X72917174Y31278852D01*
X72917175Y31278853D01*
X72917179Y31278853D01*
X73119947Y31344736D01*
X73309913Y31441528D01*
X73482397Y31566846D01*
X73633154Y31717603D01*
X73758472Y31890087D01*
X73855264Y32080053D01*
X73921147Y32282821D01*
X73941607Y32411997D01*
X73954500Y32493397D01*
X73954500Y32706604D01*
X73921148Y32917175D01*
X73921147Y32917179D01*
X73855264Y33119947D01*
X73758472Y33309913D01*
X73758468Y33309919D01*
X73633158Y33482392D01*
X73633156Y33482394D01*
X73633154Y33482397D01*
X73482397Y33633154D01*
X73482393Y33633157D01*
X73482391Y33633159D01*
X73309918Y33758469D01*
X73309912Y33758473D01*
X73119947Y33855264D01*
X72917174Y33921149D01*
X72706604Y33954500D01*
X72706601Y33954500D01*
X72493399Y33954500D01*
X72493396Y33954500D01*
X72282825Y33921149D01*
X72080052Y33855264D01*
X71890087Y33758473D01*
X71890081Y33758469D01*
X71717608Y33633159D01*
X71566841Y33482392D01*
X71441531Y33309919D01*
X71441527Y33309913D01*
X71344736Y33119948D01*
X71278851Y32917175D01*
X71245500Y32706604D01*
X65189781Y32706604D01*
X65200500Y32746608D01*
X65200500Y32878392D01*
X65166392Y33005686D01*
X65166390Y33005689D01*
X65166390Y33005691D01*
X65100503Y33119810D01*
X65100501Y33119812D01*
X65100500Y33119814D01*
X65007314Y33213000D01*
X65007311Y33213002D01*
X65007309Y33213004D01*
X64893189Y33278891D01*
X64893191Y33278891D01*
X64843799Y33292125D01*
X64765892Y33313000D01*
X64634108Y33313000D01*
X64556200Y33292125D01*
X64506809Y33278891D01*
X64392690Y33213004D01*
X64299496Y33119810D01*
X64233609Y33005691D01*
X64223079Y32966392D01*
X64199500Y32878392D01*
X51429422Y32878392D01*
X51407314Y32900500D01*
X51407311Y32900502D01*
X51407309Y32900504D01*
X51293189Y32966391D01*
X51293191Y32966391D01*
X51243799Y32979625D01*
X51165892Y33000500D01*
X51034108Y33000500D01*
X50921848Y32970421D01*
X50906810Y32966391D01*
X50839757Y32927678D01*
X50779909Y32914957D01*
X50724013Y32939844D01*
X50694632Y32987791D01*
X50666392Y33093186D01*
X50651021Y33119810D01*
X50600503Y33207310D01*
X50600501Y33207312D01*
X50600500Y33207314D01*
X50507314Y33300500D01*
X50507311Y33300502D01*
X50507309Y33300504D01*
X50393189Y33366391D01*
X50393191Y33366391D01*
X50343799Y33379625D01*
X50265892Y33400500D01*
X50134108Y33400500D01*
X50056200Y33379625D01*
X50006809Y33366391D01*
X49892690Y33300504D01*
X49799496Y33207310D01*
X49733609Y33093191D01*
X49733608Y33093186D01*
X49699500Y32965892D01*
X22605319Y32965892D01*
X22555264Y33119947D01*
X22458472Y33309913D01*
X22458468Y33309919D01*
X22333158Y33482392D01*
X22333156Y33482394D01*
X22333154Y33482397D01*
X22182397Y33633154D01*
X22182393Y33633157D01*
X22182391Y33633159D01*
X22009918Y33758469D01*
X22009912Y33758473D01*
X21819947Y33855264D01*
X21617174Y33921149D01*
X21406604Y33954500D01*
X21406601Y33954500D01*
X21193399Y33954500D01*
X21193396Y33954500D01*
X20982825Y33921149D01*
X20780052Y33855264D01*
X20590087Y33758473D01*
X20590081Y33758469D01*
X20417608Y33633159D01*
X20266841Y33482392D01*
X20141531Y33309919D01*
X20141527Y33309913D01*
X20044736Y33119948D01*
X19978851Y32917175D01*
X19945500Y32706604D01*
X200500Y32706604D01*
X200500Y32996760D01*
X200712Y33003235D01*
X206608Y33093191D01*
X215471Y33228415D01*
X217158Y33241236D01*
X260552Y33459391D01*
X263899Y33471883D01*
X335397Y33682507D01*
X340348Y33694457D01*
X438717Y33893933D01*
X445186Y33905138D01*
X568760Y34090078D01*
X576635Y34100341D01*
X723291Y34267571D01*
X732429Y34276709D01*
X899659Y34423365D01*
X909922Y34431240D01*
X1094862Y34554814D01*
X1106067Y34561283D01*
X1305543Y34659652D01*
X1317493Y34664603D01*
X1528117Y34736101D01*
X1540609Y34739448D01*
X1758764Y34782842D01*
X1771585Y34784529D01*
X1996766Y34799288D01*
X2003241Y34799500D01*
X2039882Y34799500D01*
X72960118Y34799500D01*
X72996759Y34799500D01*
X73003234Y34799288D01*
G37*
G04 #@! TD.AperFunction*
G04 #@! TD*
M02*
