G04 #@! TF.GenerationSoftware,KiCad,Pcbnew,9.0.7*
G04 #@! TF.CreationDate,2026-04-28T12:13:44+02:00*
G04 #@! TF.ProjectId,Custom_ESC,43757374-6f6d-45f4-9553-432e6b696361,v2.0*
G04 #@! TF.SameCoordinates,PX5f5e100PY6422c40*
G04 #@! TF.FileFunction,Legend,Bot*
G04 #@! TF.FilePolarity,Positive*
%FSLAX46Y46*%
G04 Gerber Fmt 4.6, Leading zero omitted, Abs format (unit mm)*
G04 Created by KiCad (PCBNEW 9.0.7) date 2026-04-28 12:13:44*
%MOMM*%
%LPD*%
G01*
G04 APERTURE LIST*
%ADD10C,0.160000*%
%ADD11C,0.120000*%
%ADD12C,2.200000*%
%ADD13C,0.650000*%
%ADD14O,1.000000X2.100000*%
%ADD15O,1.000000X1.800000*%
%ADD16C,1.000000*%
G04 APERTURE END LIST*
D10*
X42730700Y2019549D02*
X42730700Y2638596D01*
X42730700Y2638596D02*
X42349748Y2305263D01*
X42349748Y2305263D02*
X42349748Y2448120D01*
X42349748Y2448120D02*
X42302129Y2543358D01*
X42302129Y2543358D02*
X42254510Y2590977D01*
X42254510Y2590977D02*
X42159272Y2638596D01*
X42159272Y2638596D02*
X41921177Y2638596D01*
X41921177Y2638596D02*
X41825939Y2590977D01*
X41825939Y2590977D02*
X41778320Y2543358D01*
X41778320Y2543358D02*
X41730700Y2448120D01*
X41730700Y2448120D02*
X41730700Y2162406D01*
X41730700Y2162406D02*
X41778320Y2067168D01*
X41778320Y2067168D02*
X41825939Y2019549D01*
X42730700Y2924311D02*
X41730700Y3257644D01*
X41730700Y3257644D02*
X42730700Y3590977D01*
X42730700Y3829073D02*
X42730700Y4448120D01*
X42730700Y4448120D02*
X42349748Y4114787D01*
X42349748Y4114787D02*
X42349748Y4257644D01*
X42349748Y4257644D02*
X42302129Y4352882D01*
X42302129Y4352882D02*
X42254510Y4400501D01*
X42254510Y4400501D02*
X42159272Y4448120D01*
X42159272Y4448120D02*
X41921177Y4448120D01*
X41921177Y4448120D02*
X41825939Y4400501D01*
X41825939Y4400501D02*
X41778320Y4352882D01*
X41778320Y4352882D02*
X41730700Y4257644D01*
X41730700Y4257644D02*
X41730700Y3971930D01*
X41730700Y3971930D02*
X41778320Y3876692D01*
X41778320Y3876692D02*
X41825939Y3829073D01*
X3298546Y5825940D02*
X3346165Y5778320D01*
X3346165Y5778320D02*
X3489022Y5730701D01*
X3489022Y5730701D02*
X3584260Y5730701D01*
X3584260Y5730701D02*
X3727117Y5778320D01*
X3727117Y5778320D02*
X3822355Y5873559D01*
X3822355Y5873559D02*
X3869974Y5968797D01*
X3869974Y5968797D02*
X3917593Y6159273D01*
X3917593Y6159273D02*
X3917593Y6302130D01*
X3917593Y6302130D02*
X3869974Y6492606D01*
X3869974Y6492606D02*
X3822355Y6587844D01*
X3822355Y6587844D02*
X3727117Y6683082D01*
X3727117Y6683082D02*
X3584260Y6730701D01*
X3584260Y6730701D02*
X3489022Y6730701D01*
X3489022Y6730701D02*
X3346165Y6683082D01*
X3346165Y6683082D02*
X3298546Y6635463D01*
X2917593Y6016416D02*
X2441403Y6016416D01*
X3012831Y5730701D02*
X2679498Y6730701D01*
X2679498Y6730701D02*
X2346165Y5730701D01*
X2012831Y5730701D02*
X2012831Y6730701D01*
X2012831Y6730701D02*
X1441403Y5730701D01*
X1441403Y5730701D02*
X1441403Y6730701D01*
X489022Y5730701D02*
X965212Y5730701D01*
X965212Y5730701D02*
X965212Y6730701D01*
X3417594Y3525940D02*
X3465213Y3478320D01*
X3465213Y3478320D02*
X3608070Y3430701D01*
X3608070Y3430701D02*
X3703308Y3430701D01*
X3703308Y3430701D02*
X3846165Y3478320D01*
X3846165Y3478320D02*
X3941403Y3573559D01*
X3941403Y3573559D02*
X3989022Y3668797D01*
X3989022Y3668797D02*
X4036641Y3859273D01*
X4036641Y3859273D02*
X4036641Y4002130D01*
X4036641Y4002130D02*
X3989022Y4192606D01*
X3989022Y4192606D02*
X3941403Y4287844D01*
X3941403Y4287844D02*
X3846165Y4383082D01*
X3846165Y4383082D02*
X3703308Y4430701D01*
X3703308Y4430701D02*
X3608070Y4430701D01*
X3608070Y4430701D02*
X3465213Y4383082D01*
X3465213Y4383082D02*
X3417594Y4335463D01*
X3036641Y3716416D02*
X2560451Y3716416D01*
X3131879Y3430701D02*
X2798546Y4430701D01*
X2798546Y4430701D02*
X2465213Y3430701D01*
X2131879Y3430701D02*
X2131879Y4430701D01*
X2131879Y4430701D02*
X1560451Y3430701D01*
X1560451Y3430701D02*
X1560451Y4430701D01*
X1084260Y3430701D02*
X1084260Y4430701D01*
X1084260Y3954511D02*
X512832Y3954511D01*
X512832Y3430701D02*
X512832Y4430701D01*
X3032832Y8983082D02*
X3128070Y9030701D01*
X3128070Y9030701D02*
X3270927Y9030701D01*
X3270927Y9030701D02*
X3413784Y8983082D01*
X3413784Y8983082D02*
X3509022Y8887844D01*
X3509022Y8887844D02*
X3556641Y8792606D01*
X3556641Y8792606D02*
X3604260Y8602130D01*
X3604260Y8602130D02*
X3604260Y8459273D01*
X3604260Y8459273D02*
X3556641Y8268797D01*
X3556641Y8268797D02*
X3509022Y8173559D01*
X3509022Y8173559D02*
X3413784Y8078320D01*
X3413784Y8078320D02*
X3270927Y8030701D01*
X3270927Y8030701D02*
X3175689Y8030701D01*
X3175689Y8030701D02*
X3032832Y8078320D01*
X3032832Y8078320D02*
X2985213Y8125940D01*
X2985213Y8125940D02*
X2985213Y8459273D01*
X2985213Y8459273D02*
X3175689Y8459273D01*
X2556641Y8030701D02*
X2556641Y9030701D01*
X2556641Y9030701D02*
X1985213Y8030701D01*
X1985213Y8030701D02*
X1985213Y9030701D01*
X1509022Y8030701D02*
X1509022Y9030701D01*
X1509022Y9030701D02*
X1270927Y9030701D01*
X1270927Y9030701D02*
X1128070Y8983082D01*
X1128070Y8983082D02*
X1032832Y8887844D01*
X1032832Y8887844D02*
X985213Y8792606D01*
X985213Y8792606D02*
X937594Y8602130D01*
X937594Y8602130D02*
X937594Y8459273D01*
X937594Y8459273D02*
X985213Y8268797D01*
X985213Y8268797D02*
X1032832Y8173559D01*
X1032832Y8173559D02*
X1128070Y8078320D01*
X1128070Y8078320D02*
X1270927Y8030701D01*
X1270927Y8030701D02*
X1509022Y8030701D01*
X52556641Y3197368D02*
X52556641Y2530701D01*
X52556641Y3102130D02*
X52509022Y3149749D01*
X52509022Y3149749D02*
X52413784Y3197368D01*
X52413784Y3197368D02*
X52270927Y3197368D01*
X52270927Y3197368D02*
X52175689Y3149749D01*
X52175689Y3149749D02*
X52128070Y3054511D01*
X52128070Y3054511D02*
X52128070Y2530701D01*
X51080451Y2530701D02*
X51413784Y3006892D01*
X51651879Y2530701D02*
X51651879Y3530701D01*
X51651879Y3530701D02*
X51270927Y3530701D01*
X51270927Y3530701D02*
X51175689Y3483082D01*
X51175689Y3483082D02*
X51128070Y3435463D01*
X51128070Y3435463D02*
X51080451Y3340225D01*
X51080451Y3340225D02*
X51080451Y3197368D01*
X51080451Y3197368D02*
X51128070Y3102130D01*
X51128070Y3102130D02*
X51175689Y3054511D01*
X51175689Y3054511D02*
X51270927Y3006892D01*
X51270927Y3006892D02*
X51651879Y3006892D01*
X50699498Y2578320D02*
X50556641Y2530701D01*
X50556641Y2530701D02*
X50318546Y2530701D01*
X50318546Y2530701D02*
X50223308Y2578320D01*
X50223308Y2578320D02*
X50175689Y2625940D01*
X50175689Y2625940D02*
X50128070Y2721178D01*
X50128070Y2721178D02*
X50128070Y2816416D01*
X50128070Y2816416D02*
X50175689Y2911654D01*
X50175689Y2911654D02*
X50223308Y2959273D01*
X50223308Y2959273D02*
X50318546Y3006892D01*
X50318546Y3006892D02*
X50509022Y3054511D01*
X50509022Y3054511D02*
X50604260Y3102130D01*
X50604260Y3102130D02*
X50651879Y3149749D01*
X50651879Y3149749D02*
X50699498Y3244987D01*
X50699498Y3244987D02*
X50699498Y3340225D01*
X50699498Y3340225D02*
X50651879Y3435463D01*
X50651879Y3435463D02*
X50604260Y3483082D01*
X50604260Y3483082D02*
X50509022Y3530701D01*
X50509022Y3530701D02*
X50270927Y3530701D01*
X50270927Y3530701D02*
X50128070Y3483082D01*
X49842355Y3530701D02*
X49270927Y3530701D01*
X49556641Y2530701D02*
X49556641Y3530701D01*
X47978320Y495740D02*
X47930700Y638597D01*
X47930700Y638597D02*
X47930700Y876692D01*
X47930700Y876692D02*
X47978320Y971930D01*
X47978320Y971930D02*
X48025939Y1019549D01*
X48025939Y1019549D02*
X48121177Y1067168D01*
X48121177Y1067168D02*
X48216415Y1067168D01*
X48216415Y1067168D02*
X48311653Y1019549D01*
X48311653Y1019549D02*
X48359272Y971930D01*
X48359272Y971930D02*
X48406891Y876692D01*
X48406891Y876692D02*
X48454510Y686216D01*
X48454510Y686216D02*
X48502129Y590978D01*
X48502129Y590978D02*
X48549748Y543359D01*
X48549748Y543359D02*
X48644986Y495740D01*
X48644986Y495740D02*
X48740224Y495740D01*
X48740224Y495740D02*
X48835462Y543359D01*
X48835462Y543359D02*
X48883081Y590978D01*
X48883081Y590978D02*
X48930700Y686216D01*
X48930700Y686216D02*
X48930700Y924311D01*
X48930700Y924311D02*
X48883081Y1067168D01*
X48930700Y1400502D02*
X47930700Y1638597D01*
X47930700Y1638597D02*
X48644986Y1829073D01*
X48644986Y1829073D02*
X47930700Y2019549D01*
X47930700Y2019549D02*
X48930700Y2257644D01*
X47930700Y2638597D02*
X48930700Y2638597D01*
X48930700Y2638597D02*
X48930700Y2876692D01*
X48930700Y2876692D02*
X48883081Y3019549D01*
X48883081Y3019549D02*
X48787843Y3114787D01*
X48787843Y3114787D02*
X48692605Y3162406D01*
X48692605Y3162406D02*
X48502129Y3210025D01*
X48502129Y3210025D02*
X48359272Y3210025D01*
X48359272Y3210025D02*
X48168796Y3162406D01*
X48168796Y3162406D02*
X48073558Y3114787D01*
X48073558Y3114787D02*
X47978320Y3019549D01*
X47978320Y3019549D02*
X47930700Y2876692D01*
X47930700Y2876692D02*
X47930700Y2638597D01*
X48025939Y4210025D02*
X47978320Y4162406D01*
X47978320Y4162406D02*
X47930700Y4019549D01*
X47930700Y4019549D02*
X47930700Y3924311D01*
X47930700Y3924311D02*
X47978320Y3781454D01*
X47978320Y3781454D02*
X48073558Y3686216D01*
X48073558Y3686216D02*
X48168796Y3638597D01*
X48168796Y3638597D02*
X48359272Y3590978D01*
X48359272Y3590978D02*
X48502129Y3590978D01*
X48502129Y3590978D02*
X48692605Y3638597D01*
X48692605Y3638597D02*
X48787843Y3686216D01*
X48787843Y3686216D02*
X48883081Y3781454D01*
X48883081Y3781454D02*
X48930700Y3924311D01*
X48930700Y3924311D02*
X48930700Y4019549D01*
X48930700Y4019549D02*
X48883081Y4162406D01*
X48883081Y4162406D02*
X48835462Y4210025D01*
X47930700Y5114787D02*
X47930700Y4638597D01*
X47930700Y4638597D02*
X48930700Y4638597D01*
X47930700Y5448121D02*
X48930700Y5448121D01*
X47930700Y6019549D02*
X48502129Y5590978D01*
X48930700Y6019549D02*
X48359272Y5448121D01*
X52551879Y31530701D02*
X51932832Y31530701D01*
X51932832Y31530701D02*
X52266165Y31149749D01*
X52266165Y31149749D02*
X52123308Y31149749D01*
X52123308Y31149749D02*
X52028070Y31102130D01*
X52028070Y31102130D02*
X51980451Y31054511D01*
X51980451Y31054511D02*
X51932832Y30959273D01*
X51932832Y30959273D02*
X51932832Y30721178D01*
X51932832Y30721178D02*
X51980451Y30625940D01*
X51980451Y30625940D02*
X52028070Y30578320D01*
X52028070Y30578320D02*
X52123308Y30530701D01*
X52123308Y30530701D02*
X52409022Y30530701D01*
X52409022Y30530701D02*
X52504260Y30578320D01*
X52504260Y30578320D02*
X52551879Y30625940D01*
X51647117Y31530701D02*
X51313784Y30530701D01*
X51313784Y30530701D02*
X50980451Y31530701D01*
X50742355Y31530701D02*
X50123308Y31530701D01*
X50123308Y31530701D02*
X50456641Y31149749D01*
X50456641Y31149749D02*
X50313784Y31149749D01*
X50313784Y31149749D02*
X50218546Y31102130D01*
X50218546Y31102130D02*
X50170927Y31054511D01*
X50170927Y31054511D02*
X50123308Y30959273D01*
X50123308Y30959273D02*
X50123308Y30721178D01*
X50123308Y30721178D02*
X50170927Y30625940D01*
X50170927Y30625940D02*
X50218546Y30578320D01*
X50218546Y30578320D02*
X50313784Y30530701D01*
X50313784Y30530701D02*
X50599498Y30530701D01*
X50599498Y30530701D02*
X50694736Y30578320D01*
X50694736Y30578320D02*
X50742355Y30625940D01*
X57395238Y27640940D02*
X57442857Y27593320D01*
X57442857Y27593320D02*
X57585714Y27545701D01*
X57585714Y27545701D02*
X57680952Y27545701D01*
X57680952Y27545701D02*
X57823809Y27593320D01*
X57823809Y27593320D02*
X57919047Y27688559D01*
X57919047Y27688559D02*
X57966666Y27783797D01*
X57966666Y27783797D02*
X58014285Y27974273D01*
X58014285Y27974273D02*
X58014285Y28117130D01*
X58014285Y28117130D02*
X57966666Y28307606D01*
X57966666Y28307606D02*
X57919047Y28402844D01*
X57919047Y28402844D02*
X57823809Y28498082D01*
X57823809Y28498082D02*
X57680952Y28545701D01*
X57680952Y28545701D02*
X57585714Y28545701D01*
X57585714Y28545701D02*
X57442857Y28498082D01*
X57442857Y28498082D02*
X57395238Y28450463D01*
X56490476Y27545701D02*
X56966666Y27545701D01*
X56966666Y27545701D02*
X56966666Y28545701D01*
X44811481Y2495739D02*
X44859100Y2400501D01*
X44859100Y2400501D02*
X44859100Y2257644D01*
X44859100Y2257644D02*
X44811481Y2114787D01*
X44811481Y2114787D02*
X44716243Y2019549D01*
X44716243Y2019549D02*
X44621005Y1971930D01*
X44621005Y1971930D02*
X44430529Y1924311D01*
X44430529Y1924311D02*
X44287672Y1924311D01*
X44287672Y1924311D02*
X44097196Y1971930D01*
X44097196Y1971930D02*
X44001958Y2019549D01*
X44001958Y2019549D02*
X43906720Y2114787D01*
X43906720Y2114787D02*
X43859100Y2257644D01*
X43859100Y2257644D02*
X43859100Y2352882D01*
X43859100Y2352882D02*
X43906720Y2495739D01*
X43906720Y2495739D02*
X43954339Y2543358D01*
X43954339Y2543358D02*
X44287672Y2543358D01*
X44287672Y2543358D02*
X44287672Y2352882D01*
X43859100Y2971930D02*
X44859100Y2971930D01*
X44859100Y2971930D02*
X43859100Y3543358D01*
X43859100Y3543358D02*
X44859100Y3543358D01*
X43859100Y4019549D02*
X44859100Y4019549D01*
X44859100Y4019549D02*
X44859100Y4257644D01*
X44859100Y4257644D02*
X44811481Y4400501D01*
X44811481Y4400501D02*
X44716243Y4495739D01*
X44716243Y4495739D02*
X44621005Y4543358D01*
X44621005Y4543358D02*
X44430529Y4590977D01*
X44430529Y4590977D02*
X44287672Y4590977D01*
X44287672Y4590977D02*
X44097196Y4543358D01*
X44097196Y4543358D02*
X44001958Y4495739D01*
X44001958Y4495739D02*
X43906720Y4400501D01*
X43906720Y4400501D02*
X43859100Y4257644D01*
X43859100Y4257644D02*
X43859100Y4019549D01*
X53823308Y29154511D02*
X53680451Y29106892D01*
X53680451Y29106892D02*
X53632832Y29059273D01*
X53632832Y29059273D02*
X53585213Y28964035D01*
X53585213Y28964035D02*
X53585213Y28821178D01*
X53585213Y28821178D02*
X53632832Y28725940D01*
X53632832Y28725940D02*
X53680451Y28678320D01*
X53680451Y28678320D02*
X53775689Y28630701D01*
X53775689Y28630701D02*
X54156641Y28630701D01*
X54156641Y28630701D02*
X54156641Y29630701D01*
X54156641Y29630701D02*
X53823308Y29630701D01*
X53823308Y29630701D02*
X53728070Y29583082D01*
X53728070Y29583082D02*
X53680451Y29535463D01*
X53680451Y29535463D02*
X53632832Y29440225D01*
X53632832Y29440225D02*
X53632832Y29344987D01*
X53632832Y29344987D02*
X53680451Y29249749D01*
X53680451Y29249749D02*
X53728070Y29202130D01*
X53728070Y29202130D02*
X53823308Y29154511D01*
X53823308Y29154511D02*
X54156641Y29154511D01*
X53156641Y28630701D02*
X53156641Y29630701D01*
X53156641Y29154511D02*
X52585213Y29154511D01*
X52585213Y28630701D02*
X52585213Y29630701D01*
X64056641Y33811654D02*
X63294737Y33811654D01*
X63675689Y33430701D02*
X63675689Y34192606D01*
X62294737Y33430701D02*
X62866165Y33430701D01*
X62580451Y33430701D02*
X62580451Y34430701D01*
X62580451Y34430701D02*
X62675689Y34287844D01*
X62675689Y34287844D02*
X62770927Y34192606D01*
X62770927Y34192606D02*
X62866165Y34144987D01*
X61913784Y34335463D02*
X61866165Y34383082D01*
X61866165Y34383082D02*
X61770927Y34430701D01*
X61770927Y34430701D02*
X61532832Y34430701D01*
X61532832Y34430701D02*
X61437594Y34383082D01*
X61437594Y34383082D02*
X61389975Y34335463D01*
X61389975Y34335463D02*
X61342356Y34240225D01*
X61342356Y34240225D02*
X61342356Y34144987D01*
X61342356Y34144987D02*
X61389975Y34002130D01*
X61389975Y34002130D02*
X61961403Y33430701D01*
X61961403Y33430701D02*
X61342356Y33430701D01*
X61056641Y34430701D02*
X60723308Y33430701D01*
X60723308Y33430701D02*
X60389975Y34430701D01*
X45878320Y1138597D02*
X45830700Y1281454D01*
X45830700Y1281454D02*
X45830700Y1519549D01*
X45830700Y1519549D02*
X45878320Y1614787D01*
X45878320Y1614787D02*
X45925939Y1662406D01*
X45925939Y1662406D02*
X46021177Y1710025D01*
X46021177Y1710025D02*
X46116415Y1710025D01*
X46116415Y1710025D02*
X46211653Y1662406D01*
X46211653Y1662406D02*
X46259272Y1614787D01*
X46259272Y1614787D02*
X46306891Y1519549D01*
X46306891Y1519549D02*
X46354510Y1329073D01*
X46354510Y1329073D02*
X46402129Y1233835D01*
X46402129Y1233835D02*
X46449748Y1186216D01*
X46449748Y1186216D02*
X46544986Y1138597D01*
X46544986Y1138597D02*
X46640224Y1138597D01*
X46640224Y1138597D02*
X46735462Y1186216D01*
X46735462Y1186216D02*
X46783081Y1233835D01*
X46783081Y1233835D02*
X46830700Y1329073D01*
X46830700Y1329073D02*
X46830700Y1567168D01*
X46830700Y1567168D02*
X46783081Y1710025D01*
X46830700Y2043359D02*
X45830700Y2281454D01*
X45830700Y2281454D02*
X46544986Y2471930D01*
X46544986Y2471930D02*
X45830700Y2662406D01*
X45830700Y2662406D02*
X46830700Y2900501D01*
X45830700Y3281454D02*
X46830700Y3281454D01*
X46830700Y3281454D02*
X46830700Y3519549D01*
X46830700Y3519549D02*
X46783081Y3662406D01*
X46783081Y3662406D02*
X46687843Y3757644D01*
X46687843Y3757644D02*
X46592605Y3805263D01*
X46592605Y3805263D02*
X46402129Y3852882D01*
X46402129Y3852882D02*
X46259272Y3852882D01*
X46259272Y3852882D02*
X46068796Y3805263D01*
X46068796Y3805263D02*
X45973558Y3757644D01*
X45973558Y3757644D02*
X45878320Y3662406D01*
X45878320Y3662406D02*
X45830700Y3519549D01*
X45830700Y3519549D02*
X45830700Y3281454D01*
X45830700Y4281454D02*
X46830700Y4281454D01*
X46830700Y4948120D02*
X46830700Y5138596D01*
X46830700Y5138596D02*
X46783081Y5233834D01*
X46783081Y5233834D02*
X46687843Y5329072D01*
X46687843Y5329072D02*
X46497367Y5376691D01*
X46497367Y5376691D02*
X46164034Y5376691D01*
X46164034Y5376691D02*
X45973558Y5329072D01*
X45973558Y5329072D02*
X45878320Y5233834D01*
X45878320Y5233834D02*
X45830700Y5138596D01*
X45830700Y5138596D02*
X45830700Y4948120D01*
X45830700Y4948120D02*
X45878320Y4852882D01*
X45878320Y4852882D02*
X45973558Y4757644D01*
X45973558Y4757644D02*
X46164034Y4710025D01*
X46164034Y4710025D02*
X46497367Y4710025D01*
X46497367Y4710025D02*
X46687843Y4757644D01*
X46687843Y4757644D02*
X46783081Y4852882D01*
X46783081Y4852882D02*
X46830700Y4948120D01*
X58532832Y31483082D02*
X58628070Y31530701D01*
X58628070Y31530701D02*
X58770927Y31530701D01*
X58770927Y31530701D02*
X58913784Y31483082D01*
X58913784Y31483082D02*
X59009022Y31387844D01*
X59009022Y31387844D02*
X59056641Y31292606D01*
X59056641Y31292606D02*
X59104260Y31102130D01*
X59104260Y31102130D02*
X59104260Y30959273D01*
X59104260Y30959273D02*
X59056641Y30768797D01*
X59056641Y30768797D02*
X59009022Y30673559D01*
X59009022Y30673559D02*
X58913784Y30578320D01*
X58913784Y30578320D02*
X58770927Y30530701D01*
X58770927Y30530701D02*
X58675689Y30530701D01*
X58675689Y30530701D02*
X58532832Y30578320D01*
X58532832Y30578320D02*
X58485213Y30625940D01*
X58485213Y30625940D02*
X58485213Y30959273D01*
X58485213Y30959273D02*
X58675689Y30959273D01*
X58056641Y30530701D02*
X58056641Y31530701D01*
X58056641Y31530701D02*
X57485213Y30530701D01*
X57485213Y30530701D02*
X57485213Y31530701D01*
X57009022Y30530701D02*
X57009022Y31530701D01*
X57009022Y31530701D02*
X56770927Y31530701D01*
X56770927Y31530701D02*
X56628070Y31483082D01*
X56628070Y31483082D02*
X56532832Y31387844D01*
X56532832Y31387844D02*
X56485213Y31292606D01*
X56485213Y31292606D02*
X56437594Y31102130D01*
X56437594Y31102130D02*
X56437594Y30959273D01*
X56437594Y30959273D02*
X56485213Y30768797D01*
X56485213Y30768797D02*
X56532832Y30673559D01*
X56532832Y30673559D02*
X56628070Y30578320D01*
X56628070Y30578320D02*
X56770927Y30530701D01*
X56770927Y30530701D02*
X57009022Y30530701D01*
X55285213Y30625940D02*
X55332832Y30578320D01*
X55332832Y30578320D02*
X55475689Y30530701D01*
X55475689Y30530701D02*
X55570927Y30530701D01*
X55570927Y30530701D02*
X55713784Y30578320D01*
X55713784Y30578320D02*
X55809022Y30673559D01*
X55809022Y30673559D02*
X55856641Y30768797D01*
X55856641Y30768797D02*
X55904260Y30959273D01*
X55904260Y30959273D02*
X55904260Y31102130D01*
X55904260Y31102130D02*
X55856641Y31292606D01*
X55856641Y31292606D02*
X55809022Y31387844D01*
X55809022Y31387844D02*
X55713784Y31483082D01*
X55713784Y31483082D02*
X55570927Y31530701D01*
X55570927Y31530701D02*
X55475689Y31530701D01*
X55475689Y31530701D02*
X55332832Y31483082D01*
X55332832Y31483082D02*
X55285213Y31435463D01*
X54666165Y31530701D02*
X54475689Y31530701D01*
X54475689Y31530701D02*
X54380451Y31483082D01*
X54380451Y31483082D02*
X54285213Y31387844D01*
X54285213Y31387844D02*
X54237594Y31197368D01*
X54237594Y31197368D02*
X54237594Y30864035D01*
X54237594Y30864035D02*
X54285213Y30673559D01*
X54285213Y30673559D02*
X54380451Y30578320D01*
X54380451Y30578320D02*
X54475689Y30530701D01*
X54475689Y30530701D02*
X54666165Y30530701D01*
X54666165Y30530701D02*
X54761403Y30578320D01*
X54761403Y30578320D02*
X54856641Y30673559D01*
X54856641Y30673559D02*
X54904260Y30864035D01*
X54904260Y30864035D02*
X54904260Y31197368D01*
X54904260Y31197368D02*
X54856641Y31387844D01*
X54856641Y31387844D02*
X54761403Y31483082D01*
X54761403Y31483082D02*
X54666165Y31530701D01*
X53809022Y30530701D02*
X53809022Y31530701D01*
X53809022Y31530701D02*
X53475689Y30816416D01*
X53475689Y30816416D02*
X53142356Y31530701D01*
X53142356Y31530701D02*
X53142356Y30530701D01*
D11*
G04 #@! TO.C,J3*
X57200000Y32500000D02*
G75*
G02*
X55800000Y32500000I-700000J0D01*
G01*
X55800000Y32500000D02*
G75*
G02*
X57200000Y32500000I700000J0D01*
G01*
G04 #@! TO.C,J2*
X55200000Y32500000D02*
G75*
G02*
X53800000Y32500000I-700000J0D01*
G01*
X53800000Y32500000D02*
G75*
G02*
X55200000Y32500000I700000J0D01*
G01*
G04 #@! TO.C,J1*
X53200000Y32500000D02*
G75*
G02*
X51800000Y32500000I-700000J0D01*
G01*
X51800000Y32500000D02*
G75*
G02*
X53200000Y32500000I700000J0D01*
G01*
D10*
G04 #@! TO.C,TP1*
X62600000Y32300000D02*
G75*
G02*
X61200000Y32300000I-700000J0D01*
G01*
X61200000Y32300000D02*
G75*
G02*
X62600000Y32300000I700000J0D01*
G01*
G04 #@! TO.C,TP3*
X55900000Y30200000D02*
G75*
G02*
X54500000Y30200000I-700000J0D01*
G01*
X54500000Y30200000D02*
G75*
G02*
X55900000Y30200000I700000J0D01*
G01*
G04 #@! TO.C,TP4*
X58000000Y26300000D02*
G75*
G02*
X56600000Y26300000I-700000J0D01*
G01*
X56600000Y26300000D02*
G75*
G02*
X58000000Y26300000I700000J0D01*
G01*
G04 #@! TD*
%LPC*%
D12*
G04 #@! TO.C,H4*
X2300000Y13000000D03*
G04 #@! TD*
G04 #@! TO.C,H3*
X72600000Y2400000D03*
G04 #@! TD*
G04 #@! TO.C,H2*
X72600000Y32600000D03*
G04 #@! TD*
G04 #@! TO.C,H1*
X21300000Y32600000D03*
G04 #@! TD*
D13*
G04 #@! TO.C,J21*
X19010000Y5315000D03*
X24790000Y5315000D03*
D14*
X17580000Y5815000D03*
D15*
X17580000Y1635000D03*
D14*
X26220000Y5815000D03*
D15*
X26220000Y1635000D03*
G04 #@! TD*
D16*
G04 #@! TO.C,J3*
X56500000Y32500000D03*
G04 #@! TD*
G04 #@! TO.C,J2*
X54500000Y32500000D03*
G04 #@! TD*
G04 #@! TO.C,J1*
X52500000Y32500000D03*
G04 #@! TD*
G04 #@! TO.C,TP1*
X61900000Y32300000D03*
G04 #@! TD*
G04 #@! TO.C,TP3*
X55200000Y30200000D03*
G04 #@! TD*
G04 #@! TO.C,TP4*
X57300000Y26300000D03*
G04 #@! TD*
%LPD*%
M02*
