M48
; DRILL file {KiCad 9.0.7} date 2026-04-28T12:13:44+0200
; FORMAT={-:-/ absolute / metric / decimal}
; #@! TF.CreationDate,2026-04-28T12:13:44+02:00
; #@! TF.GenerationSoftware,Kicad,Pcbnew,9.0.7
; #@! TF.FileFunction,Plated,1,4,PTH
FMAT,2
METRIC
; #@! TA.AperFunction,Plated,PTH,ViaDrill
T1C0.300
; #@! TA.AperFunction,Plated,PTH,ViaDrill
T2C0.500
; #@! TA.AperFunction,Plated,PTH,ComponentDrill
T3C0.600
%
G90
G05
T1
X4.7Y8.6
X5.1Y31.5
X5.7Y7.3
X5.8Y3.2
X7.0Y19.0
X7.6Y12.0
X8.5Y1.9
X11.1Y12.0
X12.0Y6.7
X12.0Y3.9
X12.5Y21.3
X12.9Y5.8
X13.0Y4.8
X13.9Y14.2
X13.9Y9.8
X14.1Y17.6
X14.1Y13.2
X16.0Y32.7
X17.61Y7.6
X17.9Y13.4
X18.1Y16.1
X19.871Y9.329
X19.9Y14.6
X21.6Y1.4
X21.91Y13.333
X23.6Y13.8
X24.2Y27.0
X24.2Y9.3
X24.4Y11.8
X24.7Y19.6
X26.21Y7.6
X26.9Y22.4
X27.5Y20.4
X27.507Y19.407
X27.643Y18.475
X28.2Y28.5
X28.392Y6.641
X28.4Y13.6
X28.9Y15.4
X29.6Y14.4
X29.6Y9.4
X30.1Y12.7
X30.1Y11.8
X30.3Y13.7
X31.16Y7.676
X31.199Y18.7
X31.5Y8.4
X31.8Y31.8
X32.5Y20.4
X32.7Y31.8
X32.877Y30.757
X33.4Y3.475
X33.5Y15.6
X33.65Y21.6
X33.7Y10.8
X33.822Y17.381
X34.0Y26.2
X34.55Y17.05
X34.6Y1.8
X34.777Y22.775
X35.0Y10.0
X35.112Y5.3
X35.2Y26.2
X35.7Y24.4
X35.9Y3.2
X36.175Y9.195
X36.4Y12.5
X36.5Y25.5
X36.6Y2.5
X37.6Y2.0
X37.6Y1.1
X37.666Y11.534
X37.7Y22.6
X37.9Y14.9
X38.201Y6.072
X39.0Y9.5
X39.4Y15.5
X39.7Y16.6
X40.271Y10.812
X40.4Y21.255
X40.7Y2.0
X40.7Y1.1
X41.008Y10.5
X41.393Y21.807
X41.554Y20.446
X41.608Y12.208
X41.7Y14.6
X42.3Y2.6
X42.4Y24.9
X42.909Y10.906
X42.971Y11.969
X43.0Y28.3
X43.076Y20.724
X43.3Y4.601
X43.851Y2.6
X43.924Y19.876
X44.1Y11.4
X44.4Y29.5
X44.6Y28.3
X44.842Y18.958
X45.279Y5.498
X46.237Y11.086
X46.6Y15.709
X46.7Y12.286
X46.951Y23.749
X47.2Y30.5
X47.3Y19.3
X47.6Y4.2
X47.7Y11.7
X47.866Y19.866
X48.1Y22.8
X48.374Y18.035
X48.4Y13.8
X48.5Y6.699
X48.86Y17.4
X49.244Y6.993
X49.3Y27.2
X49.5Y16.8
X49.6Y28.5
X50.066Y16.234
X50.2Y32.9
X50.2Y14.509
X50.615Y4.592
X51.1Y32.5
X51.1Y31.1
X51.2Y23.395
X51.899Y26.3
X52.6Y3.5
X52.7Y27.7
X52.8Y18.3
X53.9Y31.2
X54.3Y23.701
X54.5Y20.4
X54.949Y28.2
X55.1Y10.4
X55.2Y12.9
X55.3Y23.7
X56.3Y15.8
X56.5Y31.2
X56.6Y7.099
X58.0Y14.8
X58.06Y5.498
X58.386Y23.701
X58.8Y26.1
X59.3Y28.8
X59.6Y20.5
X60.5Y3.2
X60.88Y19.594
X62.1Y19.1
X62.1Y9.2
X62.8Y4.0
X64.5Y31.312
X64.5Y30.2
X64.7Y32.812
X65.1Y3.4
X65.25Y26.421
X66.45Y26.6
X66.9Y6.8
X67.1Y20.5
X67.4Y3.4
X70.6Y28.4
X70.825Y7.325
X70.9Y9.8
X71.0Y14.9
X71.0Y12.35
X71.5Y17.6
T2
X6.5Y21.9
X10.0Y17.9
X16.9Y29.1
X25.7Y24.6
X58.2Y12.5
X63.3Y16.4
X66.9Y17.8
T3
G00X17.58Y6.365
M15
G01X17.58Y5.265
M16
G05
G00X17.58Y2.035
M15
G01X17.58Y1.235
M16
G05
G00X26.22Y6.365
M15
G01X26.22Y5.265
M16
G05
G00X26.22Y2.035
M15
G01X26.22Y1.235
M16
G05
M30
