%TF.GenerationSoftware,KiCad,Pcbnew,9.0.7*%
%TF.CreationDate,2026-04-28T12:13:44+02:00*%
%TF.ProjectId,Custom_ESC,43757374-6f6d-45f4-9553-432e6b696361,v2.0*%
%TF.SameCoordinates,PX5f5e100PY6422c40*%
%TF.FileFunction,Drillmap*%
%TF.FilePolarity,Positive*%
%FSLAX45Y45*%
G04 Gerber Fmt 4.5, Leading zero omitted, Abs format (unit mm)*
G04 Created by KiCad (PCBNEW 9.0.7) date 2026-04-28 12:13:44*
%MOMM*%
%LPD*%
G01*
G04 APERTURE LIST*
%ADD10C,0.160000*%
%ADD11C,0.200000*%
%ADD12C,0.100000*%
G04 APERTURE END LIST*
D10*
X7500000Y3300000D02*
X7500000Y200000D01*
X7300000Y0D02*
X200000Y0D01*
X200000Y3500000D02*
X7300000Y3500000D01*
X7300000Y3500000D02*
G75*
G02*
X7500000Y3300000I0J-200000D01*
G01*
X0Y3300000D02*
G75*
G02*
X200000Y3500000I200000J0D01*
G01*
X0Y200000D02*
X0Y3300000D01*
X200000Y0D02*
G75*
G02*
X0Y200000I0J200000D01*
G01*
X7500000Y200000D02*
G75*
G02*
X7300000Y0I-200000J0D01*
G01*
D11*
D12*
X455000Y875000D02*
X485000Y845000D01*
X485000Y875000D02*
X455000Y845000D01*
X495000Y3165000D02*
X525000Y3135000D01*
X525000Y3165000D02*
X495000Y3135000D01*
X555000Y745000D02*
X585000Y715000D01*
X585000Y745000D02*
X555000Y715000D01*
X565000Y335000D02*
X595000Y305000D01*
X595000Y335000D02*
X565000Y305000D01*
X685000Y1915000D02*
X715000Y1885000D01*
X715000Y1915000D02*
X685000Y1885000D01*
X745000Y1215000D02*
X775000Y1185000D01*
X775000Y1215000D02*
X745000Y1185000D01*
X835000Y205000D02*
X865000Y175000D01*
X865000Y205000D02*
X835000Y175000D01*
X1095000Y1215000D02*
X1125000Y1185000D01*
X1125000Y1215000D02*
X1095000Y1185000D01*
X1185000Y685000D02*
X1215000Y655000D01*
X1215000Y685000D02*
X1185000Y655000D01*
X1185000Y405000D02*
X1215000Y375000D01*
X1215000Y405000D02*
X1185000Y375000D01*
X1235000Y2145000D02*
X1265000Y2115000D01*
X1265000Y2145000D02*
X1235000Y2115000D01*
X1275000Y595000D02*
X1305000Y565000D01*
X1305000Y595000D02*
X1275000Y565000D01*
X1285000Y495000D02*
X1315000Y465000D01*
X1315000Y495000D02*
X1285000Y465000D01*
X1375000Y1435000D02*
X1405000Y1405000D01*
X1405000Y1435000D02*
X1375000Y1405000D01*
X1375000Y995000D02*
X1405000Y965000D01*
X1405000Y995000D02*
X1375000Y965000D01*
X1395000Y1775000D02*
X1425000Y1745000D01*
X1425000Y1775000D02*
X1395000Y1745000D01*
X1395000Y1335000D02*
X1425000Y1305000D01*
X1425000Y1335000D02*
X1395000Y1305000D01*
X1585000Y3285000D02*
X1615000Y3255000D01*
X1615000Y3285000D02*
X1585000Y3255000D01*
X1746000Y775000D02*
X1776000Y745000D01*
X1776000Y775000D02*
X1746000Y745000D01*
X1775000Y1355000D02*
X1805000Y1325000D01*
X1805000Y1355000D02*
X1775000Y1325000D01*
X1795000Y1625000D02*
X1825000Y1595000D01*
X1825000Y1625000D02*
X1795000Y1595000D01*
X1972078Y947922D02*
X2002078Y917922D01*
X2002078Y947922D02*
X1972078Y917922D01*
X1975000Y1475000D02*
X2005000Y1445000D01*
X2005000Y1475000D02*
X1975000Y1445000D01*
X2145000Y155000D02*
X2175000Y125000D01*
X2175000Y155000D02*
X2145000Y125000D01*
X2176000Y1348272D02*
X2206000Y1318272D01*
X2206000Y1348272D02*
X2176000Y1318272D01*
X2345000Y1395000D02*
X2375000Y1365000D01*
X2375000Y1395000D02*
X2345000Y1365000D01*
X2405000Y2715000D02*
X2435000Y2685000D01*
X2435000Y2715000D02*
X2405000Y2685000D01*
X2405000Y945000D02*
X2435000Y915000D01*
X2435000Y945000D02*
X2405000Y915000D01*
X2425000Y1195000D02*
X2455000Y1165000D01*
X2455000Y1195000D02*
X2425000Y1165000D01*
X2455000Y1975000D02*
X2485000Y1945000D01*
X2485000Y1975000D02*
X2455000Y1945000D01*
X2606000Y775000D02*
X2636000Y745000D01*
X2636000Y775000D02*
X2606000Y745000D01*
X2675000Y2255000D02*
X2705000Y2225000D01*
X2705000Y2255000D02*
X2675000Y2225000D01*
X2735000Y2055000D02*
X2765000Y2025000D01*
X2765000Y2055000D02*
X2735000Y2025000D01*
X2735711Y1955711D02*
X2765711Y1925711D01*
X2765711Y1955711D02*
X2735711Y1925711D01*
X2749265Y1862450D02*
X2779265Y1832450D01*
X2779265Y1862450D02*
X2749265Y1832450D01*
X2805000Y2865000D02*
X2835000Y2835000D01*
X2835000Y2865000D02*
X2805000Y2835000D01*
X2824237Y679090D02*
X2854237Y649090D01*
X2854237Y679090D02*
X2824237Y649090D01*
X2825000Y1375000D02*
X2855000Y1345000D01*
X2855000Y1375000D02*
X2825000Y1345000D01*
X2875000Y1555000D02*
X2905000Y1525000D01*
X2905000Y1555000D02*
X2875000Y1525000D01*
X2945000Y1455000D02*
X2975000Y1425000D01*
X2975000Y1455000D02*
X2945000Y1425000D01*
X2945000Y955000D02*
X2975000Y925000D01*
X2975000Y955000D02*
X2945000Y925000D01*
X2995000Y1285000D02*
X3025000Y1255000D01*
X3025000Y1285000D02*
X2995000Y1255000D01*
X2995000Y1195000D02*
X3025000Y1165000D01*
X3025000Y1195000D02*
X2995000Y1165000D01*
X3015000Y1385000D02*
X3045000Y1355000D01*
X3045000Y1385000D02*
X3015000Y1355000D01*
X3100990Y782589D02*
X3130990Y752589D01*
X3130990Y782589D02*
X3100990Y752589D01*
X3104900Y1885000D02*
X3134900Y1855000D01*
X3134900Y1885000D02*
X3104900Y1855000D01*
X3135000Y855000D02*
X3165000Y825000D01*
X3165000Y855000D02*
X3135000Y825000D01*
X3165000Y3195000D02*
X3195000Y3165000D01*
X3195000Y3195000D02*
X3165000Y3165000D01*
X3235000Y2055000D02*
X3265000Y2025000D01*
X3265000Y2055000D02*
X3235000Y2025000D01*
X3255000Y3195000D02*
X3285000Y3165000D01*
X3285000Y3195000D02*
X3255000Y3165000D01*
X3272716Y3090709D02*
X3302716Y3060709D01*
X3302716Y3090709D02*
X3272716Y3060709D01*
X3325000Y362500D02*
X3355000Y332500D01*
X3355000Y362500D02*
X3325000Y332500D01*
X3335000Y1575000D02*
X3365000Y1545000D01*
X3365000Y1575000D02*
X3335000Y1545000D01*
X3350000Y2175000D02*
X3380000Y2145000D01*
X3380000Y2175000D02*
X3350000Y2145000D01*
X3355000Y1095000D02*
X3385000Y1065000D01*
X3385000Y1095000D02*
X3355000Y1065000D01*
X3367170Y1753104D02*
X3397170Y1723104D01*
X3397170Y1753104D02*
X3367170Y1723104D01*
X3385000Y2635000D02*
X3415000Y2605000D01*
X3415000Y2635000D02*
X3385000Y2605000D01*
X3440000Y1720000D02*
X3470000Y1690000D01*
X3470000Y1720000D02*
X3440000Y1690000D01*
X3445000Y195000D02*
X3475000Y165000D01*
X3475000Y195000D02*
X3445000Y165000D01*
X3462654Y2292500D02*
X3492654Y2262500D01*
X3492654Y2292500D02*
X3462654Y2262500D01*
X3485000Y1015000D02*
X3515000Y985000D01*
X3515000Y1015000D02*
X3485000Y985000D01*
X3496250Y545000D02*
X3526250Y515000D01*
X3526250Y545000D02*
X3496250Y515000D01*
X3505000Y2635000D02*
X3535000Y2605000D01*
X3535000Y2635000D02*
X3505000Y2605000D01*
X3555000Y2455000D02*
X3585000Y2425000D01*
X3585000Y2455000D02*
X3555000Y2425000D01*
X3575000Y335000D02*
X3605000Y305000D01*
X3605000Y335000D02*
X3575000Y305000D01*
X3602488Y934509D02*
X3632488Y904509D01*
X3632488Y934509D02*
X3602488Y904509D01*
X3625000Y1265000D02*
X3655000Y1235000D01*
X3655000Y1265000D02*
X3625000Y1235000D01*
X3635000Y2565000D02*
X3665000Y2535000D01*
X3665000Y2565000D02*
X3635000Y2535000D01*
X3645000Y265000D02*
X3675000Y235000D01*
X3675000Y265000D02*
X3645000Y235000D01*
X3745000Y215000D02*
X3775000Y185000D01*
X3775000Y215000D02*
X3745000Y185000D01*
X3745000Y125000D02*
X3775000Y95000D01*
X3775000Y125000D02*
X3745000Y95000D01*
X3751563Y1168437D02*
X3781563Y1138437D01*
X3781563Y1168437D02*
X3751563Y1138437D01*
X3755000Y2275000D02*
X3785000Y2245000D01*
X3785000Y2275000D02*
X3755000Y2245000D01*
X3775000Y1505000D02*
X3805000Y1475000D01*
X3805000Y1505000D02*
X3775000Y1475000D01*
X3805093Y622156D02*
X3835093Y592156D01*
X3835093Y622156D02*
X3805093Y592156D01*
X3885000Y965000D02*
X3915000Y935000D01*
X3915000Y965000D02*
X3885000Y935000D01*
X3925000Y1565000D02*
X3955000Y1535000D01*
X3955000Y1565000D02*
X3925000Y1535000D01*
X3955000Y1675000D02*
X3985000Y1645000D01*
X3985000Y1675000D02*
X3955000Y1645000D01*
X4012103Y1096170D02*
X4042103Y1066170D01*
X4042103Y1096170D02*
X4012103Y1066170D01*
X4025000Y2140489D02*
X4055000Y2110489D01*
X4055000Y2140489D02*
X4025000Y2110489D01*
X4055000Y215000D02*
X4085000Y185000D01*
X4085000Y215000D02*
X4055000Y185000D01*
X4055000Y125000D02*
X4085000Y95000D01*
X4085000Y125000D02*
X4055000Y95000D01*
X4085781Y1065000D02*
X4115781Y1035000D01*
X4115781Y1065000D02*
X4085781Y1035000D01*
X4124317Y2195720D02*
X4154317Y2165720D01*
X4154317Y2195720D02*
X4124317Y2165720D01*
X4140383Y2059617D02*
X4170383Y2029617D01*
X4170383Y2059617D02*
X4140383Y2029617D01*
X4145781Y1235782D02*
X4175781Y1205782D01*
X4175781Y1235782D02*
X4145781Y1205782D01*
X4155000Y1475000D02*
X4185000Y1445000D01*
X4185000Y1475000D02*
X4155000Y1445000D01*
X4215000Y275000D02*
X4245000Y245000D01*
X4245000Y275000D02*
X4215000Y245000D01*
X4225000Y2505000D02*
X4255000Y2475000D01*
X4255000Y2505000D02*
X4225000Y2475000D01*
X4275947Y1105616D02*
X4305947Y1075616D01*
X4305947Y1105616D02*
X4275947Y1075616D01*
X4282054Y1211901D02*
X4312054Y1181901D01*
X4312054Y1211901D02*
X4282054Y1181901D01*
X4285000Y2845000D02*
X4315000Y2815000D01*
X4315000Y2845000D02*
X4285000Y2815000D01*
X4292574Y2087426D02*
X4322574Y2057426D01*
X4322574Y2087426D02*
X4292574Y2057426D01*
X4315000Y475100D02*
X4345000Y445100D01*
X4345000Y475100D02*
X4315000Y445100D01*
X4370147Y275000D02*
X4400147Y245000D01*
X4400147Y275000D02*
X4370147Y245000D01*
X4377427Y2002573D02*
X4407427Y1972573D01*
X4407427Y2002573D02*
X4377427Y1972573D01*
X4395000Y1155000D02*
X4425000Y1125000D01*
X4425000Y1155000D02*
X4395000Y1125000D01*
X4425000Y2965000D02*
X4455000Y2935000D01*
X4455000Y2965000D02*
X4425000Y2935000D01*
X4445000Y2845000D02*
X4475000Y2815000D01*
X4475000Y2845000D02*
X4445000Y2815000D01*
X4469222Y1910778D02*
X4499222Y1880778D01*
X4499222Y1910778D02*
X4469222Y1880778D01*
X4512931Y564800D02*
X4542931Y534800D01*
X4542931Y564800D02*
X4512931Y534800D01*
X4608718Y1123570D02*
X4638718Y1093570D01*
X4638718Y1123570D02*
X4608718Y1093570D01*
X4645000Y1585904D02*
X4675000Y1555904D01*
X4675000Y1585904D02*
X4645000Y1555904D01*
X4655000Y1243570D02*
X4685000Y1213570D01*
X4685000Y1243570D02*
X4655000Y1213570D01*
X4680076Y2389924D02*
X4710076Y2359924D01*
X4710076Y2389924D02*
X4680076Y2359924D01*
X4705000Y3065000D02*
X4735000Y3035000D01*
X4735000Y3065000D02*
X4705000Y3035000D01*
X4715000Y1945000D02*
X4745000Y1915000D01*
X4745000Y1945000D02*
X4715000Y1915000D01*
X4745000Y435000D02*
X4775000Y405000D01*
X4775000Y435000D02*
X4745000Y405000D01*
X4755000Y1185000D02*
X4785000Y1155000D01*
X4785000Y1185000D02*
X4755000Y1155000D01*
X4771569Y2001569D02*
X4801569Y1971569D01*
X4801569Y2001569D02*
X4771569Y1971569D01*
X4795000Y2295000D02*
X4825000Y2265000D01*
X4825000Y2295000D02*
X4795000Y2265000D01*
X4822376Y1818528D02*
X4852376Y1788528D01*
X4852376Y1818528D02*
X4822376Y1788528D01*
X4825000Y1395000D02*
X4855000Y1365000D01*
X4855000Y1395000D02*
X4825000Y1365000D01*
X4835040Y684900D02*
X4865040Y654900D01*
X4865040Y684900D02*
X4835040Y654900D01*
X4871000Y1755000D02*
X4901000Y1725000D01*
X4901000Y1755000D02*
X4871000Y1725000D01*
X4909443Y714296D02*
X4939443Y684296D01*
X4939443Y714296D02*
X4909443Y684296D01*
X4915000Y2735000D02*
X4945000Y2705000D01*
X4945000Y2735000D02*
X4915000Y2705000D01*
X4935000Y1695000D02*
X4965000Y1665000D01*
X4965000Y1695000D02*
X4935000Y1665000D01*
X4945000Y2865000D02*
X4975000Y2835000D01*
X4975000Y2865000D02*
X4945000Y2835000D01*
X4991569Y1638431D02*
X5021569Y1608431D01*
X5021569Y1638431D02*
X4991569Y1608431D01*
X5005000Y3305000D02*
X5035000Y3275000D01*
X5035000Y3305000D02*
X5005000Y3275000D01*
X5005000Y1465904D02*
X5035000Y1435904D01*
X5035000Y1465904D02*
X5005000Y1435904D01*
X5046543Y474168D02*
X5076543Y444168D01*
X5076543Y474168D02*
X5046543Y444168D01*
X5095000Y3265000D02*
X5125000Y3235000D01*
X5125000Y3265000D02*
X5095000Y3235000D01*
X5095000Y3125000D02*
X5125000Y3095000D01*
X5125000Y3125000D02*
X5095000Y3095000D01*
X5105000Y2354536D02*
X5135000Y2324536D01*
X5135000Y2354536D02*
X5105000Y2324536D01*
X5174900Y2645000D02*
X5204900Y2615000D01*
X5204900Y2645000D02*
X5174900Y2615000D01*
X5245000Y365000D02*
X5275000Y335000D01*
X5275000Y365000D02*
X5245000Y335000D01*
X5255000Y2785000D02*
X5285000Y2755000D01*
X5285000Y2785000D02*
X5255000Y2755000D01*
X5265000Y1845000D02*
X5295000Y1815000D01*
X5295000Y1845000D02*
X5265000Y1815000D01*
X5375000Y3135000D02*
X5405000Y3105000D01*
X5405000Y3135000D02*
X5375000Y3105000D01*
X5415000Y2385100D02*
X5445000Y2355100D01*
X5445000Y2385100D02*
X5415000Y2355100D01*
X5435000Y2055000D02*
X5465000Y2025000D01*
X5465000Y2055000D02*
X5435000Y2025000D01*
X5479853Y2835000D02*
X5509853Y2805000D01*
X5509853Y2835000D02*
X5479853Y2805000D01*
X5495000Y1055000D02*
X5525000Y1025000D01*
X5525000Y1055000D02*
X5495000Y1025000D01*
X5505000Y1305000D02*
X5535000Y1275000D01*
X5535000Y1305000D02*
X5505000Y1275000D01*
X5515000Y2385000D02*
X5545000Y2355000D01*
X5545000Y2385000D02*
X5515000Y2355000D01*
X5615000Y1595000D02*
X5645000Y1565000D01*
X5645000Y1595000D02*
X5615000Y1565000D01*
X5635000Y3135000D02*
X5665000Y3105000D01*
X5665000Y3135000D02*
X5635000Y3105000D01*
X5645000Y724900D02*
X5675000Y694900D01*
X5675000Y724900D02*
X5645000Y694900D01*
X5785000Y1495000D02*
X5815000Y1465000D01*
X5815000Y1495000D02*
X5785000Y1465000D01*
X5791000Y564800D02*
X5821000Y534800D01*
X5821000Y564800D02*
X5791000Y534800D01*
X5823577Y2385100D02*
X5853577Y2355100D01*
X5853577Y2385100D02*
X5823577Y2355100D01*
X5865000Y2625000D02*
X5895000Y2595000D01*
X5895000Y2625000D02*
X5865000Y2595000D01*
X5915000Y2895000D02*
X5945000Y2865000D01*
X5945000Y2895000D02*
X5915000Y2865000D01*
X5945000Y2065000D02*
X5975000Y2035000D01*
X5975000Y2065000D02*
X5945000Y2035000D01*
X6035000Y335000D02*
X6065000Y305000D01*
X6065000Y335000D02*
X6035000Y305000D01*
X6073024Y1974393D02*
X6103024Y1944393D01*
X6103024Y1974393D02*
X6073024Y1944393D01*
X6195000Y1925000D02*
X6225000Y1895000D01*
X6225000Y1925000D02*
X6195000Y1895000D01*
X6195000Y935000D02*
X6225000Y905000D01*
X6225000Y935000D02*
X6195000Y905000D01*
X6265000Y415000D02*
X6295000Y385000D01*
X6295000Y415000D02*
X6265000Y385000D01*
X6435000Y3146250D02*
X6465000Y3116250D01*
X6465000Y3146250D02*
X6435000Y3116250D01*
X6435000Y3035000D02*
X6465000Y3005000D01*
X6465000Y3035000D02*
X6435000Y3005000D01*
X6455000Y3296250D02*
X6485000Y3266250D01*
X6485000Y3296250D02*
X6455000Y3266250D01*
X6495000Y355000D02*
X6525000Y325000D01*
X6525000Y355000D02*
X6495000Y325000D01*
X6510000Y2657114D02*
X6540000Y2627114D01*
X6540000Y2657114D02*
X6510000Y2627114D01*
X6630000Y2675000D02*
X6660000Y2645000D01*
X6660000Y2675000D02*
X6630000Y2645000D01*
X6675000Y695000D02*
X6705000Y665000D01*
X6705000Y695000D02*
X6675000Y665000D01*
X6695000Y2065000D02*
X6725000Y2035000D01*
X6725000Y2065000D02*
X6695000Y2035000D01*
X6725000Y355000D02*
X6755000Y325000D01*
X6755000Y355000D02*
X6725000Y325000D01*
X7045000Y2855000D02*
X7075000Y2825000D01*
X7075000Y2855000D02*
X7045000Y2825000D01*
X7067500Y747500D02*
X7097500Y717500D01*
X7097500Y747500D02*
X7067500Y717500D01*
X7075000Y995000D02*
X7105000Y965000D01*
X7105000Y995000D02*
X7075000Y965000D01*
X7085000Y1505000D02*
X7115000Y1475000D01*
X7115000Y1505000D02*
X7085000Y1475000D01*
X7085000Y1250000D02*
X7115000Y1220000D01*
X7115000Y1250000D02*
X7085000Y1220000D01*
X7135000Y1775000D02*
X7165000Y1745000D01*
X7165000Y1775000D02*
X7135000Y1745000D01*
X675000Y2190000D02*
G75*
G02*
X625000Y2190000I-25000J0D01*
G01*
X625000Y2190000D02*
G75*
G02*
X675000Y2190000I25000J0D01*
G01*
X1025000Y1790000D02*
G75*
G02*
X975000Y1790000I-25000J0D01*
G01*
X975000Y1790000D02*
G75*
G02*
X1025000Y1790000I25000J0D01*
G01*
X1715000Y2910000D02*
G75*
G02*
X1665000Y2910000I-25000J0D01*
G01*
X1665000Y2910000D02*
G75*
G02*
X1715000Y2910000I25000J0D01*
G01*
X2595000Y2460000D02*
G75*
G02*
X2545000Y2460000I-25000J0D01*
G01*
X2545000Y2460000D02*
G75*
G02*
X2595000Y2460000I25000J0D01*
G01*
X5845000Y1250000D02*
G75*
G02*
X5795000Y1250000I-25000J0D01*
G01*
X5795000Y1250000D02*
G75*
G02*
X5845000Y1250000I25000J0D01*
G01*
X6355000Y1640000D02*
G75*
G02*
X6305000Y1640000I-25000J0D01*
G01*
X6305000Y1640000D02*
G75*
G02*
X6355000Y1640000I25000J0D01*
G01*
X6715000Y1780000D02*
G75*
G02*
X6665000Y1780000I-25000J0D01*
G01*
X6665000Y1780000D02*
G75*
G02*
X6715000Y1780000I25000J0D01*
G01*
X1758000Y611500D02*
X1758000Y551500D01*
X1728000Y581500D02*
X1788000Y581500D01*
X1728000Y636500D02*
X1728000Y526500D01*
X1788000Y526500D02*
G75*
G02*
X1728000Y526500I-30000J0D01*
G01*
X1788000Y526500D02*
X1788000Y636500D01*
X1788000Y636500D02*
G75*
G03*
X1728000Y636500I-30000J0D01*
G01*
X1758000Y193500D02*
X1758000Y133500D01*
X1728000Y163500D02*
X1788000Y163500D01*
X1728000Y203500D02*
X1728000Y123500D01*
X1788000Y123500D02*
G75*
G02*
X1728000Y123500I-30000J0D01*
G01*
X1788000Y123500D02*
X1788000Y203500D01*
X1788000Y203500D02*
G75*
G03*
X1728000Y203500I-30000J0D01*
G01*
X2622000Y611500D02*
X2622000Y551500D01*
X2592000Y581500D02*
X2652000Y581500D01*
X2592000Y636500D02*
X2592000Y526500D01*
X2652000Y526500D02*
G75*
G02*
X2592000Y526500I-30000J0D01*
G01*
X2652000Y526500D02*
X2652000Y636500D01*
X2652000Y636500D02*
G75*
G03*
X2592000Y636500I-30000J0D01*
G01*
X2622000Y193500D02*
X2622000Y133500D01*
X2592000Y163500D02*
X2652000Y163500D01*
X2592000Y203500D02*
X2592000Y123500D01*
X2652000Y123500D02*
G75*
G02*
X2592000Y123500I-30000J0D01*
G01*
X2652000Y123500D02*
X2652000Y203500D01*
X2652000Y203500D02*
G75*
G03*
X2592000Y203500I-30000J0D01*
G01*
D11*
X252777Y-319484D02*
X252777Y-119484D01*
X252777Y-119484D02*
X300396Y-119484D01*
X300396Y-119484D02*
X328967Y-129008D01*
X328967Y-129008D02*
X348015Y-148055D01*
X348015Y-148055D02*
X357539Y-167103D01*
X357539Y-167103D02*
X367062Y-205198D01*
X367062Y-205198D02*
X367062Y-233769D01*
X367062Y-233769D02*
X357539Y-271865D01*
X357539Y-271865D02*
X348015Y-290912D01*
X348015Y-290912D02*
X328967Y-309960D01*
X328967Y-309960D02*
X300396Y-319484D01*
X300396Y-319484D02*
X252777Y-319484D01*
X452777Y-319484D02*
X452777Y-186150D01*
X452777Y-224246D02*
X462301Y-205198D01*
X462301Y-205198D02*
X471824Y-195674D01*
X471824Y-195674D02*
X490872Y-186150D01*
X490872Y-186150D02*
X509920Y-186150D01*
X576586Y-319484D02*
X576586Y-186150D01*
X576586Y-119484D02*
X567063Y-129008D01*
X567063Y-129008D02*
X576586Y-138531D01*
X576586Y-138531D02*
X586110Y-129008D01*
X586110Y-129008D02*
X576586Y-119484D01*
X576586Y-119484D02*
X576586Y-138531D01*
X700396Y-319484D02*
X681348Y-309960D01*
X681348Y-309960D02*
X671824Y-290912D01*
X671824Y-290912D02*
X671824Y-119484D01*
X805158Y-319484D02*
X786110Y-309960D01*
X786110Y-309960D02*
X776586Y-290912D01*
X776586Y-290912D02*
X776586Y-119484D01*
X1033729Y-319484D02*
X1033729Y-119484D01*
X1033729Y-119484D02*
X1100396Y-262341D01*
X1100396Y-262341D02*
X1167063Y-119484D01*
X1167063Y-119484D02*
X1167063Y-319484D01*
X1348015Y-319484D02*
X1348015Y-214722D01*
X1348015Y-214722D02*
X1338491Y-195674D01*
X1338491Y-195674D02*
X1319444Y-186150D01*
X1319444Y-186150D02*
X1281348Y-186150D01*
X1281348Y-186150D02*
X1262301Y-195674D01*
X1348015Y-309960D02*
X1328967Y-319484D01*
X1328967Y-319484D02*
X1281348Y-319484D01*
X1281348Y-319484D02*
X1262301Y-309960D01*
X1262301Y-309960D02*
X1252777Y-290912D01*
X1252777Y-290912D02*
X1252777Y-271865D01*
X1252777Y-271865D02*
X1262301Y-252817D01*
X1262301Y-252817D02*
X1281348Y-243293D01*
X1281348Y-243293D02*
X1328967Y-243293D01*
X1328967Y-243293D02*
X1348015Y-233769D01*
X1443253Y-186150D02*
X1443253Y-386150D01*
X1443253Y-195674D02*
X1462301Y-186150D01*
X1462301Y-186150D02*
X1500396Y-186150D01*
X1500396Y-186150D02*
X1519443Y-195674D01*
X1519443Y-195674D02*
X1528967Y-205198D01*
X1528967Y-205198D02*
X1538491Y-224246D01*
X1538491Y-224246D02*
X1538491Y-281389D01*
X1538491Y-281389D02*
X1528967Y-300436D01*
X1528967Y-300436D02*
X1519443Y-309960D01*
X1519443Y-309960D02*
X1500396Y-319484D01*
X1500396Y-319484D02*
X1462301Y-319484D01*
X1462301Y-319484D02*
X1443253Y-309960D01*
X1624205Y-300436D02*
X1633729Y-309960D01*
X1633729Y-309960D02*
X1624205Y-319484D01*
X1624205Y-319484D02*
X1614682Y-309960D01*
X1614682Y-309960D02*
X1624205Y-300436D01*
X1624205Y-300436D02*
X1624205Y-319484D01*
X1624205Y-195674D02*
X1633729Y-205198D01*
X1633729Y-205198D02*
X1624205Y-214722D01*
X1624205Y-214722D02*
X1614682Y-205198D01*
X1614682Y-205198D02*
X1624205Y-195674D01*
X1624205Y-195674D02*
X1624205Y-214722D01*
D12*
X-38000Y-633000D02*
X-8000Y-663000D01*
X-8000Y-633000D02*
X-38000Y-663000D01*
D11*
X290872Y-539484D02*
X309920Y-539484D01*
X309920Y-539484D02*
X328967Y-549008D01*
X328967Y-549008D02*
X338491Y-558531D01*
X338491Y-558531D02*
X348015Y-577579D01*
X348015Y-577579D02*
X357539Y-615674D01*
X357539Y-615674D02*
X357539Y-663293D01*
X357539Y-663293D02*
X348015Y-701388D01*
X348015Y-701388D02*
X338491Y-720436D01*
X338491Y-720436D02*
X328967Y-729960D01*
X328967Y-729960D02*
X309920Y-739484D01*
X309920Y-739484D02*
X290872Y-739484D01*
X290872Y-739484D02*
X271824Y-729960D01*
X271824Y-729960D02*
X262301Y-720436D01*
X262301Y-720436D02*
X252777Y-701388D01*
X252777Y-701388D02*
X243253Y-663293D01*
X243253Y-663293D02*
X243253Y-615674D01*
X243253Y-615674D02*
X252777Y-577579D01*
X252777Y-577579D02*
X262301Y-558531D01*
X262301Y-558531D02*
X271824Y-549008D01*
X271824Y-549008D02*
X290872Y-539484D01*
X443253Y-720436D02*
X452777Y-729960D01*
X452777Y-729960D02*
X443253Y-739484D01*
X443253Y-739484D02*
X433729Y-729960D01*
X433729Y-729960D02*
X443253Y-720436D01*
X443253Y-720436D02*
X443253Y-739484D01*
X519443Y-539484D02*
X643253Y-539484D01*
X643253Y-539484D02*
X576586Y-615674D01*
X576586Y-615674D02*
X605158Y-615674D01*
X605158Y-615674D02*
X624205Y-625198D01*
X624205Y-625198D02*
X633729Y-634722D01*
X633729Y-634722D02*
X643253Y-653770D01*
X643253Y-653770D02*
X643253Y-701388D01*
X643253Y-701388D02*
X633729Y-720436D01*
X633729Y-720436D02*
X624205Y-729960D01*
X624205Y-729960D02*
X605158Y-739484D01*
X605158Y-739484D02*
X548015Y-739484D01*
X548015Y-739484D02*
X528967Y-729960D01*
X528967Y-729960D02*
X519443Y-720436D01*
X767062Y-539484D02*
X786110Y-539484D01*
X786110Y-539484D02*
X805158Y-549008D01*
X805158Y-549008D02*
X814682Y-558531D01*
X814682Y-558531D02*
X824205Y-577579D01*
X824205Y-577579D02*
X833729Y-615674D01*
X833729Y-615674D02*
X833729Y-663293D01*
X833729Y-663293D02*
X824205Y-701388D01*
X824205Y-701388D02*
X814682Y-720436D01*
X814682Y-720436D02*
X805158Y-729960D01*
X805158Y-729960D02*
X786110Y-739484D01*
X786110Y-739484D02*
X767062Y-739484D01*
X767062Y-739484D02*
X748015Y-729960D01*
X748015Y-729960D02*
X738491Y-720436D01*
X738491Y-720436D02*
X728967Y-701388D01*
X728967Y-701388D02*
X719443Y-663293D01*
X719443Y-663293D02*
X719443Y-615674D01*
X719443Y-615674D02*
X728967Y-577579D01*
X728967Y-577579D02*
X738491Y-558531D01*
X738491Y-558531D02*
X748015Y-549008D01*
X748015Y-549008D02*
X767062Y-539484D01*
X957539Y-539484D02*
X976586Y-539484D01*
X976586Y-539484D02*
X995634Y-549008D01*
X995634Y-549008D02*
X1005158Y-558531D01*
X1005158Y-558531D02*
X1014682Y-577579D01*
X1014682Y-577579D02*
X1024205Y-615674D01*
X1024205Y-615674D02*
X1024205Y-663293D01*
X1024205Y-663293D02*
X1014682Y-701388D01*
X1014682Y-701388D02*
X1005158Y-720436D01*
X1005158Y-720436D02*
X995634Y-729960D01*
X995634Y-729960D02*
X976586Y-739484D01*
X976586Y-739484D02*
X957539Y-739484D01*
X957539Y-739484D02*
X938491Y-729960D01*
X938491Y-729960D02*
X928967Y-720436D01*
X928967Y-720436D02*
X919443Y-701388D01*
X919443Y-701388D02*
X909920Y-663293D01*
X909920Y-663293D02*
X909920Y-615674D01*
X909920Y-615674D02*
X919443Y-577579D01*
X919443Y-577579D02*
X928967Y-558531D01*
X928967Y-558531D02*
X938491Y-549008D01*
X938491Y-549008D02*
X957539Y-539484D01*
X1109920Y-739484D02*
X1109920Y-606150D01*
X1109920Y-625198D02*
X1119444Y-615674D01*
X1119444Y-615674D02*
X1138491Y-606150D01*
X1138491Y-606150D02*
X1167063Y-606150D01*
X1167063Y-606150D02*
X1186110Y-615674D01*
X1186110Y-615674D02*
X1195634Y-634722D01*
X1195634Y-634722D02*
X1195634Y-739484D01*
X1195634Y-634722D02*
X1205158Y-615674D01*
X1205158Y-615674D02*
X1224205Y-606150D01*
X1224205Y-606150D02*
X1252777Y-606150D01*
X1252777Y-606150D02*
X1271825Y-615674D01*
X1271825Y-615674D02*
X1281348Y-634722D01*
X1281348Y-634722D02*
X1281348Y-739484D01*
X1376586Y-739484D02*
X1376586Y-606150D01*
X1376586Y-625198D02*
X1386110Y-615674D01*
X1386110Y-615674D02*
X1405158Y-606150D01*
X1405158Y-606150D02*
X1433729Y-606150D01*
X1433729Y-606150D02*
X1452777Y-615674D01*
X1452777Y-615674D02*
X1462301Y-634722D01*
X1462301Y-634722D02*
X1462301Y-739484D01*
X1462301Y-634722D02*
X1471824Y-615674D01*
X1471824Y-615674D02*
X1490872Y-606150D01*
X1490872Y-606150D02*
X1519443Y-606150D01*
X1519443Y-606150D02*
X1538491Y-615674D01*
X1538491Y-615674D02*
X1548015Y-634722D01*
X1548015Y-634722D02*
X1548015Y-739484D01*
X1938491Y-529960D02*
X1767063Y-787103D01*
X2195634Y-539484D02*
X2214682Y-539484D01*
X2214682Y-539484D02*
X2233729Y-549008D01*
X2233729Y-549008D02*
X2243253Y-558531D01*
X2243253Y-558531D02*
X2252777Y-577579D01*
X2252777Y-577579D02*
X2262301Y-615674D01*
X2262301Y-615674D02*
X2262301Y-663293D01*
X2262301Y-663293D02*
X2252777Y-701388D01*
X2252777Y-701388D02*
X2243253Y-720436D01*
X2243253Y-720436D02*
X2233729Y-729960D01*
X2233729Y-729960D02*
X2214682Y-739484D01*
X2214682Y-739484D02*
X2195634Y-739484D01*
X2195634Y-739484D02*
X2176587Y-729960D01*
X2176587Y-729960D02*
X2167063Y-720436D01*
X2167063Y-720436D02*
X2157539Y-701388D01*
X2157539Y-701388D02*
X2148015Y-663293D01*
X2148015Y-663293D02*
X2148015Y-615674D01*
X2148015Y-615674D02*
X2157539Y-577579D01*
X2157539Y-577579D02*
X2167063Y-558531D01*
X2167063Y-558531D02*
X2176587Y-549008D01*
X2176587Y-549008D02*
X2195634Y-539484D01*
X2348015Y-720436D02*
X2357539Y-729960D01*
X2357539Y-729960D02*
X2348015Y-739484D01*
X2348015Y-739484D02*
X2338491Y-729960D01*
X2338491Y-729960D02*
X2348015Y-720436D01*
X2348015Y-720436D02*
X2348015Y-739484D01*
X2481348Y-539484D02*
X2500396Y-539484D01*
X2500396Y-539484D02*
X2519444Y-549008D01*
X2519444Y-549008D02*
X2528968Y-558531D01*
X2528968Y-558531D02*
X2538491Y-577579D01*
X2538491Y-577579D02*
X2548015Y-615674D01*
X2548015Y-615674D02*
X2548015Y-663293D01*
X2548015Y-663293D02*
X2538491Y-701388D01*
X2538491Y-701388D02*
X2528968Y-720436D01*
X2528968Y-720436D02*
X2519444Y-729960D01*
X2519444Y-729960D02*
X2500396Y-739484D01*
X2500396Y-739484D02*
X2481348Y-739484D01*
X2481348Y-739484D02*
X2462301Y-729960D01*
X2462301Y-729960D02*
X2452777Y-720436D01*
X2452777Y-720436D02*
X2443253Y-701388D01*
X2443253Y-701388D02*
X2433729Y-663293D01*
X2433729Y-663293D02*
X2433729Y-615674D01*
X2433729Y-615674D02*
X2443253Y-577579D01*
X2443253Y-577579D02*
X2452777Y-558531D01*
X2452777Y-558531D02*
X2462301Y-549008D01*
X2462301Y-549008D02*
X2481348Y-539484D01*
X2738491Y-739484D02*
X2624206Y-739484D01*
X2681348Y-739484D02*
X2681348Y-539484D01*
X2681348Y-539484D02*
X2662301Y-568055D01*
X2662301Y-568055D02*
X2643253Y-587103D01*
X2643253Y-587103D02*
X2624206Y-596627D01*
X2928967Y-739484D02*
X2814682Y-739484D01*
X2871825Y-739484D02*
X2871825Y-539484D01*
X2871825Y-539484D02*
X2852777Y-568055D01*
X2852777Y-568055D02*
X2833729Y-587103D01*
X2833729Y-587103D02*
X2814682Y-596627D01*
X3043253Y-625198D02*
X3024206Y-615674D01*
X3024206Y-615674D02*
X3014682Y-606150D01*
X3014682Y-606150D02*
X3005158Y-587103D01*
X3005158Y-587103D02*
X3005158Y-577579D01*
X3005158Y-577579D02*
X3014682Y-558531D01*
X3014682Y-558531D02*
X3024206Y-549008D01*
X3024206Y-549008D02*
X3043253Y-539484D01*
X3043253Y-539484D02*
X3081348Y-539484D01*
X3081348Y-539484D02*
X3100396Y-549008D01*
X3100396Y-549008D02*
X3109920Y-558531D01*
X3109920Y-558531D02*
X3119444Y-577579D01*
X3119444Y-577579D02*
X3119444Y-587103D01*
X3119444Y-587103D02*
X3109920Y-606150D01*
X3109920Y-606150D02*
X3100396Y-615674D01*
X3100396Y-615674D02*
X3081348Y-625198D01*
X3081348Y-625198D02*
X3043253Y-625198D01*
X3043253Y-625198D02*
X3024206Y-634722D01*
X3024206Y-634722D02*
X3014682Y-644246D01*
X3014682Y-644246D02*
X3005158Y-663293D01*
X3005158Y-663293D02*
X3005158Y-701388D01*
X3005158Y-701388D02*
X3014682Y-720436D01*
X3014682Y-720436D02*
X3024206Y-729960D01*
X3024206Y-729960D02*
X3043253Y-739484D01*
X3043253Y-739484D02*
X3081348Y-739484D01*
X3081348Y-739484D02*
X3100396Y-729960D01*
X3100396Y-729960D02*
X3109920Y-720436D01*
X3109920Y-720436D02*
X3119444Y-701388D01*
X3119444Y-701388D02*
X3119444Y-663293D01*
X3119444Y-663293D02*
X3109920Y-644246D01*
X3109920Y-644246D02*
X3100396Y-634722D01*
X3100396Y-634722D02*
X3081348Y-625198D01*
X3195634Y-539484D02*
X3195634Y-577579D01*
X3271825Y-539484D02*
X3271825Y-577579D01*
X3567063Y-815674D02*
X3557539Y-806150D01*
X3557539Y-806150D02*
X3538491Y-777579D01*
X3538491Y-777579D02*
X3528968Y-758531D01*
X3528968Y-758531D02*
X3519444Y-729960D01*
X3519444Y-729960D02*
X3509920Y-682341D01*
X3509920Y-682341D02*
X3509920Y-644246D01*
X3509920Y-644246D02*
X3519444Y-596627D01*
X3519444Y-596627D02*
X3528968Y-568055D01*
X3528968Y-568055D02*
X3538491Y-549008D01*
X3538491Y-549008D02*
X3557539Y-520436D01*
X3557539Y-520436D02*
X3567063Y-510912D01*
X3748015Y-739484D02*
X3633729Y-739484D01*
X3690872Y-739484D02*
X3690872Y-539484D01*
X3690872Y-539484D02*
X3671825Y-568055D01*
X3671825Y-568055D02*
X3652777Y-587103D01*
X3652777Y-587103D02*
X3633729Y-596627D01*
X3919444Y-539484D02*
X3881348Y-539484D01*
X3881348Y-539484D02*
X3862301Y-549008D01*
X3862301Y-549008D02*
X3852777Y-558531D01*
X3852777Y-558531D02*
X3833729Y-587103D01*
X3833729Y-587103D02*
X3824206Y-625198D01*
X3824206Y-625198D02*
X3824206Y-701388D01*
X3824206Y-701388D02*
X3833729Y-720436D01*
X3833729Y-720436D02*
X3843253Y-729960D01*
X3843253Y-729960D02*
X3862301Y-739484D01*
X3862301Y-739484D02*
X3900396Y-739484D01*
X3900396Y-739484D02*
X3919444Y-729960D01*
X3919444Y-729960D02*
X3928968Y-720436D01*
X3928968Y-720436D02*
X3938491Y-701388D01*
X3938491Y-701388D02*
X3938491Y-653770D01*
X3938491Y-653770D02*
X3928968Y-634722D01*
X3928968Y-634722D02*
X3919444Y-625198D01*
X3919444Y-625198D02*
X3900396Y-615674D01*
X3900396Y-615674D02*
X3862301Y-615674D01*
X3862301Y-615674D02*
X3843253Y-625198D01*
X3843253Y-625198D02*
X3833729Y-634722D01*
X3833729Y-634722D02*
X3824206Y-653770D01*
X4109920Y-539484D02*
X4071825Y-539484D01*
X4071825Y-539484D02*
X4052777Y-549008D01*
X4052777Y-549008D02*
X4043253Y-558531D01*
X4043253Y-558531D02*
X4024206Y-587103D01*
X4024206Y-587103D02*
X4014682Y-625198D01*
X4014682Y-625198D02*
X4014682Y-701388D01*
X4014682Y-701388D02*
X4024206Y-720436D01*
X4024206Y-720436D02*
X4033729Y-729960D01*
X4033729Y-729960D02*
X4052777Y-739484D01*
X4052777Y-739484D02*
X4090872Y-739484D01*
X4090872Y-739484D02*
X4109920Y-729960D01*
X4109920Y-729960D02*
X4119444Y-720436D01*
X4119444Y-720436D02*
X4128968Y-701388D01*
X4128968Y-701388D02*
X4128968Y-653770D01*
X4128968Y-653770D02*
X4119444Y-634722D01*
X4119444Y-634722D02*
X4109920Y-625198D01*
X4109920Y-625198D02*
X4090872Y-615674D01*
X4090872Y-615674D02*
X4052777Y-615674D01*
X4052777Y-615674D02*
X4033729Y-625198D01*
X4033729Y-625198D02*
X4024206Y-634722D01*
X4024206Y-634722D02*
X4014682Y-653770D01*
X4367063Y-739484D02*
X4367063Y-539484D01*
X4452777Y-739484D02*
X4452777Y-634722D01*
X4452777Y-634722D02*
X4443253Y-615674D01*
X4443253Y-615674D02*
X4424206Y-606150D01*
X4424206Y-606150D02*
X4395634Y-606150D01*
X4395634Y-606150D02*
X4376587Y-615674D01*
X4376587Y-615674D02*
X4367063Y-625198D01*
X4576587Y-739484D02*
X4557539Y-729960D01*
X4557539Y-729960D02*
X4548015Y-720436D01*
X4548015Y-720436D02*
X4538492Y-701388D01*
X4538492Y-701388D02*
X4538492Y-644246D01*
X4538492Y-644246D02*
X4548015Y-625198D01*
X4548015Y-625198D02*
X4557539Y-615674D01*
X4557539Y-615674D02*
X4576587Y-606150D01*
X4576587Y-606150D02*
X4605158Y-606150D01*
X4605158Y-606150D02*
X4624206Y-615674D01*
X4624206Y-615674D02*
X4633730Y-625198D01*
X4633730Y-625198D02*
X4643253Y-644246D01*
X4643253Y-644246D02*
X4643253Y-701388D01*
X4643253Y-701388D02*
X4633730Y-720436D01*
X4633730Y-720436D02*
X4624206Y-729960D01*
X4624206Y-729960D02*
X4605158Y-739484D01*
X4605158Y-739484D02*
X4576587Y-739484D01*
X4757539Y-739484D02*
X4738492Y-729960D01*
X4738492Y-729960D02*
X4728968Y-710912D01*
X4728968Y-710912D02*
X4728968Y-539484D01*
X4909920Y-729960D02*
X4890873Y-739484D01*
X4890873Y-739484D02*
X4852777Y-739484D01*
X4852777Y-739484D02*
X4833730Y-729960D01*
X4833730Y-729960D02*
X4824206Y-710912D01*
X4824206Y-710912D02*
X4824206Y-634722D01*
X4824206Y-634722D02*
X4833730Y-615674D01*
X4833730Y-615674D02*
X4852777Y-606150D01*
X4852777Y-606150D02*
X4890873Y-606150D01*
X4890873Y-606150D02*
X4909920Y-615674D01*
X4909920Y-615674D02*
X4919444Y-634722D01*
X4919444Y-634722D02*
X4919444Y-653770D01*
X4919444Y-653770D02*
X4824206Y-672817D01*
X4995634Y-729960D02*
X5014682Y-739484D01*
X5014682Y-739484D02*
X5052777Y-739484D01*
X5052777Y-739484D02*
X5071825Y-729960D01*
X5071825Y-729960D02*
X5081349Y-710912D01*
X5081349Y-710912D02*
X5081349Y-701388D01*
X5081349Y-701388D02*
X5071825Y-682341D01*
X5071825Y-682341D02*
X5052777Y-672817D01*
X5052777Y-672817D02*
X5024206Y-672817D01*
X5024206Y-672817D02*
X5005158Y-663293D01*
X5005158Y-663293D02*
X4995634Y-644246D01*
X4995634Y-644246D02*
X4995634Y-634722D01*
X4995634Y-634722D02*
X5005158Y-615674D01*
X5005158Y-615674D02*
X5024206Y-606150D01*
X5024206Y-606150D02*
X5052777Y-606150D01*
X5052777Y-606150D02*
X5071825Y-615674D01*
X5148015Y-815674D02*
X5157539Y-806150D01*
X5157539Y-806150D02*
X5176587Y-777579D01*
X5176587Y-777579D02*
X5186111Y-758531D01*
X5186111Y-758531D02*
X5195634Y-729960D01*
X5195634Y-729960D02*
X5205158Y-682341D01*
X5205158Y-682341D02*
X5205158Y-644246D01*
X5205158Y-644246D02*
X5195634Y-596627D01*
X5195634Y-596627D02*
X5186111Y-568055D01*
X5186111Y-568055D02*
X5176587Y-549008D01*
X5176587Y-549008D02*
X5157539Y-520436D01*
X5157539Y-520436D02*
X5148015Y-510912D01*
D12*
X-8000Y-912000D02*
G75*
G02*
X-58000Y-912000I-25000J0D01*
G01*
X-58000Y-912000D02*
G75*
G02*
X-8000Y-912000I25000J0D01*
G01*
D11*
X290872Y-803484D02*
X309920Y-803484D01*
X309920Y-803484D02*
X328967Y-813008D01*
X328967Y-813008D02*
X338491Y-822531D01*
X338491Y-822531D02*
X348015Y-841579D01*
X348015Y-841579D02*
X357539Y-879674D01*
X357539Y-879674D02*
X357539Y-927293D01*
X357539Y-927293D02*
X348015Y-965388D01*
X348015Y-965388D02*
X338491Y-984436D01*
X338491Y-984436D02*
X328967Y-993960D01*
X328967Y-993960D02*
X309920Y-1003484D01*
X309920Y-1003484D02*
X290872Y-1003484D01*
X290872Y-1003484D02*
X271824Y-993960D01*
X271824Y-993960D02*
X262301Y-984436D01*
X262301Y-984436D02*
X252777Y-965388D01*
X252777Y-965388D02*
X243253Y-927293D01*
X243253Y-927293D02*
X243253Y-879674D01*
X243253Y-879674D02*
X252777Y-841579D01*
X252777Y-841579D02*
X262301Y-822531D01*
X262301Y-822531D02*
X271824Y-813008D01*
X271824Y-813008D02*
X290872Y-803484D01*
X443253Y-984436D02*
X452777Y-993960D01*
X452777Y-993960D02*
X443253Y-1003484D01*
X443253Y-1003484D02*
X433729Y-993960D01*
X433729Y-993960D02*
X443253Y-984436D01*
X443253Y-984436D02*
X443253Y-1003484D01*
X633729Y-803484D02*
X538491Y-803484D01*
X538491Y-803484D02*
X528967Y-898722D01*
X528967Y-898722D02*
X538491Y-889198D01*
X538491Y-889198D02*
X557539Y-879674D01*
X557539Y-879674D02*
X605158Y-879674D01*
X605158Y-879674D02*
X624205Y-889198D01*
X624205Y-889198D02*
X633729Y-898722D01*
X633729Y-898722D02*
X643253Y-917769D01*
X643253Y-917769D02*
X643253Y-965388D01*
X643253Y-965388D02*
X633729Y-984436D01*
X633729Y-984436D02*
X624205Y-993960D01*
X624205Y-993960D02*
X605158Y-1003484D01*
X605158Y-1003484D02*
X557539Y-1003484D01*
X557539Y-1003484D02*
X538491Y-993960D01*
X538491Y-993960D02*
X528967Y-984436D01*
X767062Y-803484D02*
X786110Y-803484D01*
X786110Y-803484D02*
X805158Y-813008D01*
X805158Y-813008D02*
X814682Y-822531D01*
X814682Y-822531D02*
X824205Y-841579D01*
X824205Y-841579D02*
X833729Y-879674D01*
X833729Y-879674D02*
X833729Y-927293D01*
X833729Y-927293D02*
X824205Y-965388D01*
X824205Y-965388D02*
X814682Y-984436D01*
X814682Y-984436D02*
X805158Y-993960D01*
X805158Y-993960D02*
X786110Y-1003484D01*
X786110Y-1003484D02*
X767062Y-1003484D01*
X767062Y-1003484D02*
X748015Y-993960D01*
X748015Y-993960D02*
X738491Y-984436D01*
X738491Y-984436D02*
X728967Y-965388D01*
X728967Y-965388D02*
X719443Y-927293D01*
X719443Y-927293D02*
X719443Y-879674D01*
X719443Y-879674D02*
X728967Y-841579D01*
X728967Y-841579D02*
X738491Y-822531D01*
X738491Y-822531D02*
X748015Y-813008D01*
X748015Y-813008D02*
X767062Y-803484D01*
X957539Y-803484D02*
X976586Y-803484D01*
X976586Y-803484D02*
X995634Y-813008D01*
X995634Y-813008D02*
X1005158Y-822531D01*
X1005158Y-822531D02*
X1014682Y-841579D01*
X1014682Y-841579D02*
X1024205Y-879674D01*
X1024205Y-879674D02*
X1024205Y-927293D01*
X1024205Y-927293D02*
X1014682Y-965388D01*
X1014682Y-965388D02*
X1005158Y-984436D01*
X1005158Y-984436D02*
X995634Y-993960D01*
X995634Y-993960D02*
X976586Y-1003484D01*
X976586Y-1003484D02*
X957539Y-1003484D01*
X957539Y-1003484D02*
X938491Y-993960D01*
X938491Y-993960D02*
X928967Y-984436D01*
X928967Y-984436D02*
X919443Y-965388D01*
X919443Y-965388D02*
X909920Y-927293D01*
X909920Y-927293D02*
X909920Y-879674D01*
X909920Y-879674D02*
X919443Y-841579D01*
X919443Y-841579D02*
X928967Y-822531D01*
X928967Y-822531D02*
X938491Y-813008D01*
X938491Y-813008D02*
X957539Y-803484D01*
X1109920Y-1003484D02*
X1109920Y-870150D01*
X1109920Y-889198D02*
X1119444Y-879674D01*
X1119444Y-879674D02*
X1138491Y-870150D01*
X1138491Y-870150D02*
X1167063Y-870150D01*
X1167063Y-870150D02*
X1186110Y-879674D01*
X1186110Y-879674D02*
X1195634Y-898722D01*
X1195634Y-898722D02*
X1195634Y-1003484D01*
X1195634Y-898722D02*
X1205158Y-879674D01*
X1205158Y-879674D02*
X1224205Y-870150D01*
X1224205Y-870150D02*
X1252777Y-870150D01*
X1252777Y-870150D02*
X1271825Y-879674D01*
X1271825Y-879674D02*
X1281348Y-898722D01*
X1281348Y-898722D02*
X1281348Y-1003484D01*
X1376586Y-1003484D02*
X1376586Y-870150D01*
X1376586Y-889198D02*
X1386110Y-879674D01*
X1386110Y-879674D02*
X1405158Y-870150D01*
X1405158Y-870150D02*
X1433729Y-870150D01*
X1433729Y-870150D02*
X1452777Y-879674D01*
X1452777Y-879674D02*
X1462301Y-898722D01*
X1462301Y-898722D02*
X1462301Y-1003484D01*
X1462301Y-898722D02*
X1471824Y-879674D01*
X1471824Y-879674D02*
X1490872Y-870150D01*
X1490872Y-870150D02*
X1519443Y-870150D01*
X1519443Y-870150D02*
X1538491Y-879674D01*
X1538491Y-879674D02*
X1548015Y-898722D01*
X1548015Y-898722D02*
X1548015Y-1003484D01*
X1938491Y-793960D02*
X1767063Y-1051103D01*
X2195634Y-803484D02*
X2214682Y-803484D01*
X2214682Y-803484D02*
X2233729Y-813008D01*
X2233729Y-813008D02*
X2243253Y-822531D01*
X2243253Y-822531D02*
X2252777Y-841579D01*
X2252777Y-841579D02*
X2262301Y-879674D01*
X2262301Y-879674D02*
X2262301Y-927293D01*
X2262301Y-927293D02*
X2252777Y-965388D01*
X2252777Y-965388D02*
X2243253Y-984436D01*
X2243253Y-984436D02*
X2233729Y-993960D01*
X2233729Y-993960D02*
X2214682Y-1003484D01*
X2214682Y-1003484D02*
X2195634Y-1003484D01*
X2195634Y-1003484D02*
X2176587Y-993960D01*
X2176587Y-993960D02*
X2167063Y-984436D01*
X2167063Y-984436D02*
X2157539Y-965388D01*
X2157539Y-965388D02*
X2148015Y-927293D01*
X2148015Y-927293D02*
X2148015Y-879674D01*
X2148015Y-879674D02*
X2157539Y-841579D01*
X2157539Y-841579D02*
X2167063Y-822531D01*
X2167063Y-822531D02*
X2176587Y-813008D01*
X2176587Y-813008D02*
X2195634Y-803484D01*
X2348015Y-984436D02*
X2357539Y-993960D01*
X2357539Y-993960D02*
X2348015Y-1003484D01*
X2348015Y-1003484D02*
X2338491Y-993960D01*
X2338491Y-993960D02*
X2348015Y-984436D01*
X2348015Y-984436D02*
X2348015Y-1003484D01*
X2481348Y-803484D02*
X2500396Y-803484D01*
X2500396Y-803484D02*
X2519444Y-813008D01*
X2519444Y-813008D02*
X2528968Y-822531D01*
X2528968Y-822531D02*
X2538491Y-841579D01*
X2538491Y-841579D02*
X2548015Y-879674D01*
X2548015Y-879674D02*
X2548015Y-927293D01*
X2548015Y-927293D02*
X2538491Y-965388D01*
X2538491Y-965388D02*
X2528968Y-984436D01*
X2528968Y-984436D02*
X2519444Y-993960D01*
X2519444Y-993960D02*
X2500396Y-1003484D01*
X2500396Y-1003484D02*
X2481348Y-1003484D01*
X2481348Y-1003484D02*
X2462301Y-993960D01*
X2462301Y-993960D02*
X2452777Y-984436D01*
X2452777Y-984436D02*
X2443253Y-965388D01*
X2443253Y-965388D02*
X2433729Y-927293D01*
X2433729Y-927293D02*
X2433729Y-879674D01*
X2433729Y-879674D02*
X2443253Y-841579D01*
X2443253Y-841579D02*
X2452777Y-822531D01*
X2452777Y-822531D02*
X2462301Y-813008D01*
X2462301Y-813008D02*
X2481348Y-803484D01*
X2738491Y-1003484D02*
X2624206Y-1003484D01*
X2681348Y-1003484D02*
X2681348Y-803484D01*
X2681348Y-803484D02*
X2662301Y-832055D01*
X2662301Y-832055D02*
X2643253Y-851103D01*
X2643253Y-851103D02*
X2624206Y-860627D01*
X2833729Y-1003484D02*
X2871825Y-1003484D01*
X2871825Y-1003484D02*
X2890872Y-993960D01*
X2890872Y-993960D02*
X2900396Y-984436D01*
X2900396Y-984436D02*
X2919444Y-955865D01*
X2919444Y-955865D02*
X2928967Y-917769D01*
X2928967Y-917769D02*
X2928967Y-841579D01*
X2928967Y-841579D02*
X2919444Y-822531D01*
X2919444Y-822531D02*
X2909920Y-813008D01*
X2909920Y-813008D02*
X2890872Y-803484D01*
X2890872Y-803484D02*
X2852777Y-803484D01*
X2852777Y-803484D02*
X2833729Y-813008D01*
X2833729Y-813008D02*
X2824206Y-822531D01*
X2824206Y-822531D02*
X2814682Y-841579D01*
X2814682Y-841579D02*
X2814682Y-889198D01*
X2814682Y-889198D02*
X2824206Y-908246D01*
X2824206Y-908246D02*
X2833729Y-917769D01*
X2833729Y-917769D02*
X2852777Y-927293D01*
X2852777Y-927293D02*
X2890872Y-927293D01*
X2890872Y-927293D02*
X2909920Y-917769D01*
X2909920Y-917769D02*
X2919444Y-908246D01*
X2919444Y-908246D02*
X2928967Y-889198D01*
X2995634Y-803484D02*
X3128967Y-803484D01*
X3128967Y-803484D02*
X3043253Y-1003484D01*
X3195634Y-803484D02*
X3195634Y-841579D01*
X3271825Y-803484D02*
X3271825Y-841579D01*
X3567063Y-1079674D02*
X3557539Y-1070150D01*
X3557539Y-1070150D02*
X3538491Y-1041579D01*
X3538491Y-1041579D02*
X3528968Y-1022531D01*
X3528968Y-1022531D02*
X3519444Y-993960D01*
X3519444Y-993960D02*
X3509920Y-946341D01*
X3509920Y-946341D02*
X3509920Y-908246D01*
X3509920Y-908246D02*
X3519444Y-860627D01*
X3519444Y-860627D02*
X3528968Y-832055D01*
X3528968Y-832055D02*
X3538491Y-813008D01*
X3538491Y-813008D02*
X3557539Y-784436D01*
X3557539Y-784436D02*
X3567063Y-774912D01*
X3624206Y-803484D02*
X3757539Y-803484D01*
X3757539Y-803484D02*
X3671825Y-1003484D01*
X3986110Y-1003484D02*
X3986110Y-803484D01*
X4071825Y-1003484D02*
X4071825Y-898722D01*
X4071825Y-898722D02*
X4062301Y-879674D01*
X4062301Y-879674D02*
X4043253Y-870150D01*
X4043253Y-870150D02*
X4014682Y-870150D01*
X4014682Y-870150D02*
X3995634Y-879674D01*
X3995634Y-879674D02*
X3986110Y-889198D01*
X4195634Y-1003484D02*
X4176587Y-993960D01*
X4176587Y-993960D02*
X4167063Y-984436D01*
X4167063Y-984436D02*
X4157539Y-965388D01*
X4157539Y-965388D02*
X4157539Y-908246D01*
X4157539Y-908246D02*
X4167063Y-889198D01*
X4167063Y-889198D02*
X4176587Y-879674D01*
X4176587Y-879674D02*
X4195634Y-870150D01*
X4195634Y-870150D02*
X4224206Y-870150D01*
X4224206Y-870150D02*
X4243253Y-879674D01*
X4243253Y-879674D02*
X4252777Y-889198D01*
X4252777Y-889198D02*
X4262301Y-908246D01*
X4262301Y-908246D02*
X4262301Y-965388D01*
X4262301Y-965388D02*
X4252777Y-984436D01*
X4252777Y-984436D02*
X4243253Y-993960D01*
X4243253Y-993960D02*
X4224206Y-1003484D01*
X4224206Y-1003484D02*
X4195634Y-1003484D01*
X4376587Y-1003484D02*
X4357539Y-993960D01*
X4357539Y-993960D02*
X4348015Y-974912D01*
X4348015Y-974912D02*
X4348015Y-803484D01*
X4528968Y-993960D02*
X4509920Y-1003484D01*
X4509920Y-1003484D02*
X4471825Y-1003484D01*
X4471825Y-1003484D02*
X4452777Y-993960D01*
X4452777Y-993960D02*
X4443253Y-974912D01*
X4443253Y-974912D02*
X4443253Y-898722D01*
X4443253Y-898722D02*
X4452777Y-879674D01*
X4452777Y-879674D02*
X4471825Y-870150D01*
X4471825Y-870150D02*
X4509920Y-870150D01*
X4509920Y-870150D02*
X4528968Y-879674D01*
X4528968Y-879674D02*
X4538492Y-898722D01*
X4538492Y-898722D02*
X4538492Y-917769D01*
X4538492Y-917769D02*
X4443253Y-936817D01*
X4614682Y-993960D02*
X4633730Y-1003484D01*
X4633730Y-1003484D02*
X4671825Y-1003484D01*
X4671825Y-1003484D02*
X4690873Y-993960D01*
X4690873Y-993960D02*
X4700396Y-974912D01*
X4700396Y-974912D02*
X4700396Y-965388D01*
X4700396Y-965388D02*
X4690873Y-946341D01*
X4690873Y-946341D02*
X4671825Y-936817D01*
X4671825Y-936817D02*
X4643253Y-936817D01*
X4643253Y-936817D02*
X4624206Y-927293D01*
X4624206Y-927293D02*
X4614682Y-908246D01*
X4614682Y-908246D02*
X4614682Y-898722D01*
X4614682Y-898722D02*
X4624206Y-879674D01*
X4624206Y-879674D02*
X4643253Y-870150D01*
X4643253Y-870150D02*
X4671825Y-870150D01*
X4671825Y-870150D02*
X4690873Y-879674D01*
X4767063Y-1079674D02*
X4776587Y-1070150D01*
X4776587Y-1070150D02*
X4795634Y-1041579D01*
X4795634Y-1041579D02*
X4805158Y-1022531D01*
X4805158Y-1022531D02*
X4814682Y-993960D01*
X4814682Y-993960D02*
X4824206Y-946341D01*
X4824206Y-946341D02*
X4824206Y-908246D01*
X4824206Y-908246D02*
X4814682Y-860627D01*
X4814682Y-860627D02*
X4805158Y-832055D01*
X4805158Y-832055D02*
X4795634Y-813008D01*
X4795634Y-813008D02*
X4776587Y-784436D01*
X4776587Y-784436D02*
X4767063Y-774912D01*
D12*
X-38000Y-1146000D02*
X-38000Y-1206000D01*
X-68000Y-1176000D02*
X-8000Y-1176000D01*
D11*
X290872Y-1067484D02*
X309920Y-1067484D01*
X309920Y-1067484D02*
X328967Y-1077008D01*
X328967Y-1077008D02*
X338491Y-1086531D01*
X338491Y-1086531D02*
X348015Y-1105579D01*
X348015Y-1105579D02*
X357539Y-1143674D01*
X357539Y-1143674D02*
X357539Y-1191293D01*
X357539Y-1191293D02*
X348015Y-1229389D01*
X348015Y-1229389D02*
X338491Y-1248436D01*
X338491Y-1248436D02*
X328967Y-1257960D01*
X328967Y-1257960D02*
X309920Y-1267484D01*
X309920Y-1267484D02*
X290872Y-1267484D01*
X290872Y-1267484D02*
X271824Y-1257960D01*
X271824Y-1257960D02*
X262301Y-1248436D01*
X262301Y-1248436D02*
X252777Y-1229389D01*
X252777Y-1229389D02*
X243253Y-1191293D01*
X243253Y-1191293D02*
X243253Y-1143674D01*
X243253Y-1143674D02*
X252777Y-1105579D01*
X252777Y-1105579D02*
X262301Y-1086531D01*
X262301Y-1086531D02*
X271824Y-1077008D01*
X271824Y-1077008D02*
X290872Y-1067484D01*
X443253Y-1248436D02*
X452777Y-1257960D01*
X452777Y-1257960D02*
X443253Y-1267484D01*
X443253Y-1267484D02*
X433729Y-1257960D01*
X433729Y-1257960D02*
X443253Y-1248436D01*
X443253Y-1248436D02*
X443253Y-1267484D01*
X624205Y-1067484D02*
X586110Y-1067484D01*
X586110Y-1067484D02*
X567063Y-1077008D01*
X567063Y-1077008D02*
X557539Y-1086531D01*
X557539Y-1086531D02*
X538491Y-1115103D01*
X538491Y-1115103D02*
X528967Y-1153198D01*
X528967Y-1153198D02*
X528967Y-1229389D01*
X528967Y-1229389D02*
X538491Y-1248436D01*
X538491Y-1248436D02*
X548015Y-1257960D01*
X548015Y-1257960D02*
X567063Y-1267484D01*
X567063Y-1267484D02*
X605158Y-1267484D01*
X605158Y-1267484D02*
X624205Y-1257960D01*
X624205Y-1257960D02*
X633729Y-1248436D01*
X633729Y-1248436D02*
X643253Y-1229389D01*
X643253Y-1229389D02*
X643253Y-1181770D01*
X643253Y-1181770D02*
X633729Y-1162722D01*
X633729Y-1162722D02*
X624205Y-1153198D01*
X624205Y-1153198D02*
X605158Y-1143674D01*
X605158Y-1143674D02*
X567063Y-1143674D01*
X567063Y-1143674D02*
X548015Y-1153198D01*
X548015Y-1153198D02*
X538491Y-1162722D01*
X538491Y-1162722D02*
X528967Y-1181770D01*
X767062Y-1067484D02*
X786110Y-1067484D01*
X786110Y-1067484D02*
X805158Y-1077008D01*
X805158Y-1077008D02*
X814682Y-1086531D01*
X814682Y-1086531D02*
X824205Y-1105579D01*
X824205Y-1105579D02*
X833729Y-1143674D01*
X833729Y-1143674D02*
X833729Y-1191293D01*
X833729Y-1191293D02*
X824205Y-1229389D01*
X824205Y-1229389D02*
X814682Y-1248436D01*
X814682Y-1248436D02*
X805158Y-1257960D01*
X805158Y-1257960D02*
X786110Y-1267484D01*
X786110Y-1267484D02*
X767062Y-1267484D01*
X767062Y-1267484D02*
X748015Y-1257960D01*
X748015Y-1257960D02*
X738491Y-1248436D01*
X738491Y-1248436D02*
X728967Y-1229389D01*
X728967Y-1229389D02*
X719443Y-1191293D01*
X719443Y-1191293D02*
X719443Y-1143674D01*
X719443Y-1143674D02*
X728967Y-1105579D01*
X728967Y-1105579D02*
X738491Y-1086531D01*
X738491Y-1086531D02*
X748015Y-1077008D01*
X748015Y-1077008D02*
X767062Y-1067484D01*
X957539Y-1067484D02*
X976586Y-1067484D01*
X976586Y-1067484D02*
X995634Y-1077008D01*
X995634Y-1077008D02*
X1005158Y-1086531D01*
X1005158Y-1086531D02*
X1014682Y-1105579D01*
X1014682Y-1105579D02*
X1024205Y-1143674D01*
X1024205Y-1143674D02*
X1024205Y-1191293D01*
X1024205Y-1191293D02*
X1014682Y-1229389D01*
X1014682Y-1229389D02*
X1005158Y-1248436D01*
X1005158Y-1248436D02*
X995634Y-1257960D01*
X995634Y-1257960D02*
X976586Y-1267484D01*
X976586Y-1267484D02*
X957539Y-1267484D01*
X957539Y-1267484D02*
X938491Y-1257960D01*
X938491Y-1257960D02*
X928967Y-1248436D01*
X928967Y-1248436D02*
X919443Y-1229389D01*
X919443Y-1229389D02*
X909920Y-1191293D01*
X909920Y-1191293D02*
X909920Y-1143674D01*
X909920Y-1143674D02*
X919443Y-1105579D01*
X919443Y-1105579D02*
X928967Y-1086531D01*
X928967Y-1086531D02*
X938491Y-1077008D01*
X938491Y-1077008D02*
X957539Y-1067484D01*
X1109920Y-1267484D02*
X1109920Y-1134150D01*
X1109920Y-1153198D02*
X1119444Y-1143674D01*
X1119444Y-1143674D02*
X1138491Y-1134150D01*
X1138491Y-1134150D02*
X1167063Y-1134150D01*
X1167063Y-1134150D02*
X1186110Y-1143674D01*
X1186110Y-1143674D02*
X1195634Y-1162722D01*
X1195634Y-1162722D02*
X1195634Y-1267484D01*
X1195634Y-1162722D02*
X1205158Y-1143674D01*
X1205158Y-1143674D02*
X1224205Y-1134150D01*
X1224205Y-1134150D02*
X1252777Y-1134150D01*
X1252777Y-1134150D02*
X1271825Y-1143674D01*
X1271825Y-1143674D02*
X1281348Y-1162722D01*
X1281348Y-1162722D02*
X1281348Y-1267484D01*
X1376586Y-1267484D02*
X1376586Y-1134150D01*
X1376586Y-1153198D02*
X1386110Y-1143674D01*
X1386110Y-1143674D02*
X1405158Y-1134150D01*
X1405158Y-1134150D02*
X1433729Y-1134150D01*
X1433729Y-1134150D02*
X1452777Y-1143674D01*
X1452777Y-1143674D02*
X1462301Y-1162722D01*
X1462301Y-1162722D02*
X1462301Y-1267484D01*
X1462301Y-1162722D02*
X1471824Y-1143674D01*
X1471824Y-1143674D02*
X1490872Y-1134150D01*
X1490872Y-1134150D02*
X1519443Y-1134150D01*
X1519443Y-1134150D02*
X1538491Y-1143674D01*
X1538491Y-1143674D02*
X1548015Y-1162722D01*
X1548015Y-1162722D02*
X1548015Y-1267484D01*
X1938491Y-1057960D02*
X1767063Y-1315103D01*
X2195634Y-1067484D02*
X2214682Y-1067484D01*
X2214682Y-1067484D02*
X2233729Y-1077008D01*
X2233729Y-1077008D02*
X2243253Y-1086531D01*
X2243253Y-1086531D02*
X2252777Y-1105579D01*
X2252777Y-1105579D02*
X2262301Y-1143674D01*
X2262301Y-1143674D02*
X2262301Y-1191293D01*
X2262301Y-1191293D02*
X2252777Y-1229389D01*
X2252777Y-1229389D02*
X2243253Y-1248436D01*
X2243253Y-1248436D02*
X2233729Y-1257960D01*
X2233729Y-1257960D02*
X2214682Y-1267484D01*
X2214682Y-1267484D02*
X2195634Y-1267484D01*
X2195634Y-1267484D02*
X2176587Y-1257960D01*
X2176587Y-1257960D02*
X2167063Y-1248436D01*
X2167063Y-1248436D02*
X2157539Y-1229389D01*
X2157539Y-1229389D02*
X2148015Y-1191293D01*
X2148015Y-1191293D02*
X2148015Y-1143674D01*
X2148015Y-1143674D02*
X2157539Y-1105579D01*
X2157539Y-1105579D02*
X2167063Y-1086531D01*
X2167063Y-1086531D02*
X2176587Y-1077008D01*
X2176587Y-1077008D02*
X2195634Y-1067484D01*
X2348015Y-1248436D02*
X2357539Y-1257960D01*
X2357539Y-1257960D02*
X2348015Y-1267484D01*
X2348015Y-1267484D02*
X2338491Y-1257960D01*
X2338491Y-1257960D02*
X2348015Y-1248436D01*
X2348015Y-1248436D02*
X2348015Y-1267484D01*
X2481348Y-1067484D02*
X2500396Y-1067484D01*
X2500396Y-1067484D02*
X2519444Y-1077008D01*
X2519444Y-1077008D02*
X2528968Y-1086531D01*
X2528968Y-1086531D02*
X2538491Y-1105579D01*
X2538491Y-1105579D02*
X2548015Y-1143674D01*
X2548015Y-1143674D02*
X2548015Y-1191293D01*
X2548015Y-1191293D02*
X2538491Y-1229389D01*
X2538491Y-1229389D02*
X2528968Y-1248436D01*
X2528968Y-1248436D02*
X2519444Y-1257960D01*
X2519444Y-1257960D02*
X2500396Y-1267484D01*
X2500396Y-1267484D02*
X2481348Y-1267484D01*
X2481348Y-1267484D02*
X2462301Y-1257960D01*
X2462301Y-1257960D02*
X2452777Y-1248436D01*
X2452777Y-1248436D02*
X2443253Y-1229389D01*
X2443253Y-1229389D02*
X2433729Y-1191293D01*
X2433729Y-1191293D02*
X2433729Y-1143674D01*
X2433729Y-1143674D02*
X2443253Y-1105579D01*
X2443253Y-1105579D02*
X2452777Y-1086531D01*
X2452777Y-1086531D02*
X2462301Y-1077008D01*
X2462301Y-1077008D02*
X2481348Y-1067484D01*
X2624206Y-1086531D02*
X2633729Y-1077008D01*
X2633729Y-1077008D02*
X2652777Y-1067484D01*
X2652777Y-1067484D02*
X2700396Y-1067484D01*
X2700396Y-1067484D02*
X2719444Y-1077008D01*
X2719444Y-1077008D02*
X2728968Y-1086531D01*
X2728968Y-1086531D02*
X2738491Y-1105579D01*
X2738491Y-1105579D02*
X2738491Y-1124627D01*
X2738491Y-1124627D02*
X2728968Y-1153198D01*
X2728968Y-1153198D02*
X2614682Y-1267484D01*
X2614682Y-1267484D02*
X2738491Y-1267484D01*
X2805158Y-1067484D02*
X2928967Y-1067484D01*
X2928967Y-1067484D02*
X2862301Y-1143674D01*
X2862301Y-1143674D02*
X2890872Y-1143674D01*
X2890872Y-1143674D02*
X2909920Y-1153198D01*
X2909920Y-1153198D02*
X2919444Y-1162722D01*
X2919444Y-1162722D02*
X2928967Y-1181770D01*
X2928967Y-1181770D02*
X2928967Y-1229389D01*
X2928967Y-1229389D02*
X2919444Y-1248436D01*
X2919444Y-1248436D02*
X2909920Y-1257960D01*
X2909920Y-1257960D02*
X2890872Y-1267484D01*
X2890872Y-1267484D02*
X2833729Y-1267484D01*
X2833729Y-1267484D02*
X2814682Y-1257960D01*
X2814682Y-1257960D02*
X2805158Y-1248436D01*
X3100396Y-1067484D02*
X3062301Y-1067484D01*
X3062301Y-1067484D02*
X3043253Y-1077008D01*
X3043253Y-1077008D02*
X3033729Y-1086531D01*
X3033729Y-1086531D02*
X3014682Y-1115103D01*
X3014682Y-1115103D02*
X3005158Y-1153198D01*
X3005158Y-1153198D02*
X3005158Y-1229389D01*
X3005158Y-1229389D02*
X3014682Y-1248436D01*
X3014682Y-1248436D02*
X3024206Y-1257960D01*
X3024206Y-1257960D02*
X3043253Y-1267484D01*
X3043253Y-1267484D02*
X3081348Y-1267484D01*
X3081348Y-1267484D02*
X3100396Y-1257960D01*
X3100396Y-1257960D02*
X3109920Y-1248436D01*
X3109920Y-1248436D02*
X3119444Y-1229389D01*
X3119444Y-1229389D02*
X3119444Y-1181770D01*
X3119444Y-1181770D02*
X3109920Y-1162722D01*
X3109920Y-1162722D02*
X3100396Y-1153198D01*
X3100396Y-1153198D02*
X3081348Y-1143674D01*
X3081348Y-1143674D02*
X3043253Y-1143674D01*
X3043253Y-1143674D02*
X3024206Y-1153198D01*
X3024206Y-1153198D02*
X3014682Y-1162722D01*
X3014682Y-1162722D02*
X3005158Y-1181770D01*
X3195634Y-1067484D02*
X3195634Y-1105579D01*
X3271825Y-1067484D02*
X3271825Y-1105579D01*
X3567063Y-1343674D02*
X3557539Y-1334150D01*
X3557539Y-1334150D02*
X3538491Y-1305579D01*
X3538491Y-1305579D02*
X3528968Y-1286531D01*
X3528968Y-1286531D02*
X3519444Y-1257960D01*
X3519444Y-1257960D02*
X3509920Y-1210341D01*
X3509920Y-1210341D02*
X3509920Y-1172246D01*
X3509920Y-1172246D02*
X3519444Y-1124627D01*
X3519444Y-1124627D02*
X3528968Y-1096055D01*
X3528968Y-1096055D02*
X3538491Y-1077008D01*
X3538491Y-1077008D02*
X3557539Y-1048436D01*
X3557539Y-1048436D02*
X3567063Y-1038912D01*
X3681348Y-1067484D02*
X3700396Y-1067484D01*
X3700396Y-1067484D02*
X3719444Y-1077008D01*
X3719444Y-1077008D02*
X3728968Y-1086531D01*
X3728968Y-1086531D02*
X3738491Y-1105579D01*
X3738491Y-1105579D02*
X3748015Y-1143674D01*
X3748015Y-1143674D02*
X3748015Y-1191293D01*
X3748015Y-1191293D02*
X3738491Y-1229389D01*
X3738491Y-1229389D02*
X3728968Y-1248436D01*
X3728968Y-1248436D02*
X3719444Y-1257960D01*
X3719444Y-1257960D02*
X3700396Y-1267484D01*
X3700396Y-1267484D02*
X3681348Y-1267484D01*
X3681348Y-1267484D02*
X3662301Y-1257960D01*
X3662301Y-1257960D02*
X3652777Y-1248436D01*
X3652777Y-1248436D02*
X3643253Y-1229389D01*
X3643253Y-1229389D02*
X3633729Y-1191293D01*
X3633729Y-1191293D02*
X3633729Y-1143674D01*
X3633729Y-1143674D02*
X3643253Y-1105579D01*
X3643253Y-1105579D02*
X3652777Y-1086531D01*
X3652777Y-1086531D02*
X3662301Y-1077008D01*
X3662301Y-1077008D02*
X3681348Y-1067484D01*
X3986110Y-1267484D02*
X3986110Y-1067484D01*
X4071825Y-1267484D02*
X4071825Y-1162722D01*
X4071825Y-1162722D02*
X4062301Y-1143674D01*
X4062301Y-1143674D02*
X4043253Y-1134150D01*
X4043253Y-1134150D02*
X4014682Y-1134150D01*
X4014682Y-1134150D02*
X3995634Y-1143674D01*
X3995634Y-1143674D02*
X3986110Y-1153198D01*
X4195634Y-1267484D02*
X4176587Y-1257960D01*
X4176587Y-1257960D02*
X4167063Y-1248436D01*
X4167063Y-1248436D02*
X4157539Y-1229389D01*
X4157539Y-1229389D02*
X4157539Y-1172246D01*
X4157539Y-1172246D02*
X4167063Y-1153198D01*
X4167063Y-1153198D02*
X4176587Y-1143674D01*
X4176587Y-1143674D02*
X4195634Y-1134150D01*
X4195634Y-1134150D02*
X4224206Y-1134150D01*
X4224206Y-1134150D02*
X4243253Y-1143674D01*
X4243253Y-1143674D02*
X4252777Y-1153198D01*
X4252777Y-1153198D02*
X4262301Y-1172246D01*
X4262301Y-1172246D02*
X4262301Y-1229389D01*
X4262301Y-1229389D02*
X4252777Y-1248436D01*
X4252777Y-1248436D02*
X4243253Y-1257960D01*
X4243253Y-1257960D02*
X4224206Y-1267484D01*
X4224206Y-1267484D02*
X4195634Y-1267484D01*
X4376587Y-1267484D02*
X4357539Y-1257960D01*
X4357539Y-1257960D02*
X4348015Y-1238912D01*
X4348015Y-1238912D02*
X4348015Y-1067484D01*
X4528968Y-1257960D02*
X4509920Y-1267484D01*
X4509920Y-1267484D02*
X4471825Y-1267484D01*
X4471825Y-1267484D02*
X4452777Y-1257960D01*
X4452777Y-1257960D02*
X4443253Y-1238912D01*
X4443253Y-1238912D02*
X4443253Y-1162722D01*
X4443253Y-1162722D02*
X4452777Y-1143674D01*
X4452777Y-1143674D02*
X4471825Y-1134150D01*
X4471825Y-1134150D02*
X4509920Y-1134150D01*
X4509920Y-1134150D02*
X4528968Y-1143674D01*
X4528968Y-1143674D02*
X4538492Y-1162722D01*
X4538492Y-1162722D02*
X4538492Y-1181770D01*
X4538492Y-1181770D02*
X4443253Y-1200817D01*
X4614682Y-1257960D02*
X4633730Y-1267484D01*
X4633730Y-1267484D02*
X4671825Y-1267484D01*
X4671825Y-1267484D02*
X4690873Y-1257960D01*
X4690873Y-1257960D02*
X4700396Y-1238912D01*
X4700396Y-1238912D02*
X4700396Y-1229389D01*
X4700396Y-1229389D02*
X4690873Y-1210341D01*
X4690873Y-1210341D02*
X4671825Y-1200817D01*
X4671825Y-1200817D02*
X4643253Y-1200817D01*
X4643253Y-1200817D02*
X4624206Y-1191293D01*
X4624206Y-1191293D02*
X4614682Y-1172246D01*
X4614682Y-1172246D02*
X4614682Y-1162722D01*
X4614682Y-1162722D02*
X4624206Y-1143674D01*
X4624206Y-1143674D02*
X4643253Y-1134150D01*
X4643253Y-1134150D02*
X4671825Y-1134150D01*
X4671825Y-1134150D02*
X4690873Y-1143674D01*
X4938492Y-1191293D02*
X5090873Y-1191293D01*
X5014682Y-1267484D02*
X5014682Y-1115103D01*
X5424206Y-1134150D02*
X5424206Y-1267484D01*
X5376587Y-1057960D02*
X5328968Y-1200817D01*
X5328968Y-1200817D02*
X5452777Y-1200817D01*
X5671825Y-1257960D02*
X5690873Y-1267484D01*
X5690873Y-1267484D02*
X5728968Y-1267484D01*
X5728968Y-1267484D02*
X5748015Y-1257960D01*
X5748015Y-1257960D02*
X5757539Y-1238912D01*
X5757539Y-1238912D02*
X5757539Y-1229389D01*
X5757539Y-1229389D02*
X5748015Y-1210341D01*
X5748015Y-1210341D02*
X5728968Y-1200817D01*
X5728968Y-1200817D02*
X5700396Y-1200817D01*
X5700396Y-1200817D02*
X5681349Y-1191293D01*
X5681349Y-1191293D02*
X5671825Y-1172246D01*
X5671825Y-1172246D02*
X5671825Y-1162722D01*
X5671825Y-1162722D02*
X5681349Y-1143674D01*
X5681349Y-1143674D02*
X5700396Y-1134150D01*
X5700396Y-1134150D02*
X5728968Y-1134150D01*
X5728968Y-1134150D02*
X5748015Y-1143674D01*
X5871825Y-1267484D02*
X5852777Y-1257960D01*
X5852777Y-1257960D02*
X5843254Y-1238912D01*
X5843254Y-1238912D02*
X5843254Y-1067484D01*
X5976587Y-1267484D02*
X5957539Y-1257960D01*
X5957539Y-1257960D02*
X5948015Y-1248436D01*
X5948015Y-1248436D02*
X5938492Y-1229389D01*
X5938492Y-1229389D02*
X5938492Y-1172246D01*
X5938492Y-1172246D02*
X5948015Y-1153198D01*
X5948015Y-1153198D02*
X5957539Y-1143674D01*
X5957539Y-1143674D02*
X5976587Y-1134150D01*
X5976587Y-1134150D02*
X6005158Y-1134150D01*
X6005158Y-1134150D02*
X6024206Y-1143674D01*
X6024206Y-1143674D02*
X6033730Y-1153198D01*
X6033730Y-1153198D02*
X6043254Y-1172246D01*
X6043254Y-1172246D02*
X6043254Y-1229389D01*
X6043254Y-1229389D02*
X6033730Y-1248436D01*
X6033730Y-1248436D02*
X6024206Y-1257960D01*
X6024206Y-1257960D02*
X6005158Y-1267484D01*
X6005158Y-1267484D02*
X5976587Y-1267484D01*
X6100396Y-1134150D02*
X6176587Y-1134150D01*
X6128968Y-1067484D02*
X6128968Y-1238912D01*
X6128968Y-1238912D02*
X6138492Y-1257960D01*
X6138492Y-1257960D02*
X6157539Y-1267484D01*
X6157539Y-1267484D02*
X6176587Y-1267484D01*
X6233730Y-1257960D02*
X6252777Y-1267484D01*
X6252777Y-1267484D02*
X6290873Y-1267484D01*
X6290873Y-1267484D02*
X6309920Y-1257960D01*
X6309920Y-1257960D02*
X6319444Y-1238912D01*
X6319444Y-1238912D02*
X6319444Y-1229389D01*
X6319444Y-1229389D02*
X6309920Y-1210341D01*
X6309920Y-1210341D02*
X6290873Y-1200817D01*
X6290873Y-1200817D02*
X6262301Y-1200817D01*
X6262301Y-1200817D02*
X6243254Y-1191293D01*
X6243254Y-1191293D02*
X6233730Y-1172246D01*
X6233730Y-1172246D02*
X6233730Y-1162722D01*
X6233730Y-1162722D02*
X6243254Y-1143674D01*
X6243254Y-1143674D02*
X6262301Y-1134150D01*
X6262301Y-1134150D02*
X6290873Y-1134150D01*
X6290873Y-1134150D02*
X6309920Y-1143674D01*
X6386111Y-1343674D02*
X6395635Y-1334150D01*
X6395635Y-1334150D02*
X6414682Y-1305579D01*
X6414682Y-1305579D02*
X6424206Y-1286531D01*
X6424206Y-1286531D02*
X6433730Y-1257960D01*
X6433730Y-1257960D02*
X6443254Y-1210341D01*
X6443254Y-1210341D02*
X6443254Y-1172246D01*
X6443254Y-1172246D02*
X6433730Y-1124627D01*
X6433730Y-1124627D02*
X6424206Y-1096055D01*
X6424206Y-1096055D02*
X6414682Y-1077008D01*
X6414682Y-1077008D02*
X6395635Y-1048436D01*
X6395635Y-1048436D02*
X6386111Y-1038912D01*
M02*
