%TF.GenerationSoftware,KiCad,Pcbnew,9.0.7*%
%TF.CreationDate,2026-04-28T12:13:44+02:00*%
%TF.ProjectId,Custom_ESC,43757374-6f6d-45f4-9553-432e6b696361,v2.0*%
%TF.SameCoordinates,PX5f5e100PY6422c40*%
%TF.FileFunction,Drillmap*%
%TF.FilePolarity,Positive*%
%FSLAX45Y45*%
G04 Gerber Fmt 4.5, Leading zero omitted, Abs format (unit mm)*
G04 Created by KiCad (PCBNEW 9.0.7) date 2026-04-28 12:13:44*
%MOMM*%
%LPD*%
G01*
G04 APERTURE LIST*
%ADD10C,0.160000*%
%ADD11C,0.200000*%
%ADD12C,0.100000*%
%ADD13C,0.220000*%
G04 APERTURE END LIST*
D10*
X7500000Y3300000D02*
X7500000Y200000D01*
X7300000Y0D02*
X200000Y0D01*
X200000Y3500000D02*
X7300000Y3500000D01*
X7300000Y3500000D02*
G75*
G02*
X7500000Y3300000I0J-200000D01*
G01*
X0Y3300000D02*
G75*
G02*
X200000Y3500000I200000J0D01*
G01*
X0Y200000D02*
X0Y3300000D01*
X200000Y0D02*
G75*
G02*
X0Y200000I0J200000D01*
G01*
X7500000Y200000D02*
G75*
G02*
X7300000Y0I-200000J0D01*
G01*
D11*
D12*
X1868500Y564000D02*
X1933500Y499000D01*
X1933500Y564000D02*
X1868500Y499000D01*
X2446500Y564000D02*
X2511500Y499000D01*
X2511500Y564000D02*
X2446500Y499000D01*
D13*
X340000Y1300000D02*
G75*
G02*
X120000Y1300000I-110000J0D01*
G01*
X120000Y1300000D02*
G75*
G02*
X340000Y1300000I110000J0D01*
G01*
X2240000Y3260000D02*
G75*
G02*
X2020000Y3260000I-110000J0D01*
G01*
X2020000Y3260000D02*
G75*
G02*
X2240000Y3260000I110000J0D01*
G01*
X7370000Y3260000D02*
G75*
G02*
X7150000Y3260000I-110000J0D01*
G01*
X7150000Y3260000D02*
G75*
G02*
X7370000Y3260000I110000J0D01*
G01*
X7370000Y240000D02*
G75*
G02*
X7150000Y240000I-110000J0D01*
G01*
X7150000Y240000D02*
G75*
G02*
X7370000Y240000I110000J0D01*
G01*
D11*
X252777Y-319484D02*
X252777Y-119484D01*
X252777Y-119484D02*
X300396Y-119484D01*
X300396Y-119484D02*
X328967Y-129008D01*
X328967Y-129008D02*
X348015Y-148055D01*
X348015Y-148055D02*
X357539Y-167103D01*
X357539Y-167103D02*
X367062Y-205198D01*
X367062Y-205198D02*
X367062Y-233769D01*
X367062Y-233769D02*
X357539Y-271865D01*
X357539Y-271865D02*
X348015Y-290912D01*
X348015Y-290912D02*
X328967Y-309960D01*
X328967Y-309960D02*
X300396Y-319484D01*
X300396Y-319484D02*
X252777Y-319484D01*
X452777Y-319484D02*
X452777Y-186150D01*
X452777Y-224246D02*
X462301Y-205198D01*
X462301Y-205198D02*
X471824Y-195674D01*
X471824Y-195674D02*
X490872Y-186150D01*
X490872Y-186150D02*
X509920Y-186150D01*
X576586Y-319484D02*
X576586Y-186150D01*
X576586Y-119484D02*
X567063Y-129008D01*
X567063Y-129008D02*
X576586Y-138531D01*
X576586Y-138531D02*
X586110Y-129008D01*
X586110Y-129008D02*
X576586Y-119484D01*
X576586Y-119484D02*
X576586Y-138531D01*
X700396Y-319484D02*
X681348Y-309960D01*
X681348Y-309960D02*
X671824Y-290912D01*
X671824Y-290912D02*
X671824Y-119484D01*
X805158Y-319484D02*
X786110Y-309960D01*
X786110Y-309960D02*
X776586Y-290912D01*
X776586Y-290912D02*
X776586Y-119484D01*
X1033729Y-319484D02*
X1033729Y-119484D01*
X1033729Y-119484D02*
X1100396Y-262341D01*
X1100396Y-262341D02*
X1167063Y-119484D01*
X1167063Y-119484D02*
X1167063Y-319484D01*
X1348015Y-319484D02*
X1348015Y-214722D01*
X1348015Y-214722D02*
X1338491Y-195674D01*
X1338491Y-195674D02*
X1319444Y-186150D01*
X1319444Y-186150D02*
X1281348Y-186150D01*
X1281348Y-186150D02*
X1262301Y-195674D01*
X1348015Y-309960D02*
X1328967Y-319484D01*
X1328967Y-319484D02*
X1281348Y-319484D01*
X1281348Y-319484D02*
X1262301Y-309960D01*
X1262301Y-309960D02*
X1252777Y-290912D01*
X1252777Y-290912D02*
X1252777Y-271865D01*
X1252777Y-271865D02*
X1262301Y-252817D01*
X1262301Y-252817D02*
X1281348Y-243293D01*
X1281348Y-243293D02*
X1328967Y-243293D01*
X1328967Y-243293D02*
X1348015Y-233769D01*
X1443253Y-186150D02*
X1443253Y-386150D01*
X1443253Y-195674D02*
X1462301Y-186150D01*
X1462301Y-186150D02*
X1500396Y-186150D01*
X1500396Y-186150D02*
X1519443Y-195674D01*
X1519443Y-195674D02*
X1528967Y-205198D01*
X1528967Y-205198D02*
X1538491Y-224246D01*
X1538491Y-224246D02*
X1538491Y-281389D01*
X1538491Y-281389D02*
X1528967Y-300436D01*
X1528967Y-300436D02*
X1519443Y-309960D01*
X1519443Y-309960D02*
X1500396Y-319484D01*
X1500396Y-319484D02*
X1462301Y-319484D01*
X1462301Y-319484D02*
X1443253Y-309960D01*
X1624205Y-300436D02*
X1633729Y-309960D01*
X1633729Y-309960D02*
X1624205Y-319484D01*
X1624205Y-319484D02*
X1614682Y-309960D01*
X1614682Y-309960D02*
X1624205Y-300436D01*
X1624205Y-300436D02*
X1624205Y-319484D01*
X1624205Y-195674D02*
X1633729Y-205198D01*
X1633729Y-205198D02*
X1624205Y-214722D01*
X1624205Y-214722D02*
X1614682Y-205198D01*
X1614682Y-205198D02*
X1624205Y-195674D01*
X1624205Y-195674D02*
X1624205Y-214722D01*
D12*
X-73000Y-615500D02*
X-8000Y-680500D01*
X-8000Y-615500D02*
X-73000Y-680500D01*
D11*
X290872Y-539484D02*
X309920Y-539484D01*
X309920Y-539484D02*
X328967Y-549008D01*
X328967Y-549008D02*
X338491Y-558531D01*
X338491Y-558531D02*
X348015Y-577579D01*
X348015Y-577579D02*
X357539Y-615674D01*
X357539Y-615674D02*
X357539Y-663293D01*
X357539Y-663293D02*
X348015Y-701388D01*
X348015Y-701388D02*
X338491Y-720436D01*
X338491Y-720436D02*
X328967Y-729960D01*
X328967Y-729960D02*
X309920Y-739484D01*
X309920Y-739484D02*
X290872Y-739484D01*
X290872Y-739484D02*
X271824Y-729960D01*
X271824Y-729960D02*
X262301Y-720436D01*
X262301Y-720436D02*
X252777Y-701388D01*
X252777Y-701388D02*
X243253Y-663293D01*
X243253Y-663293D02*
X243253Y-615674D01*
X243253Y-615674D02*
X252777Y-577579D01*
X252777Y-577579D02*
X262301Y-558531D01*
X262301Y-558531D02*
X271824Y-549008D01*
X271824Y-549008D02*
X290872Y-539484D01*
X443253Y-720436D02*
X452777Y-729960D01*
X452777Y-729960D02*
X443253Y-739484D01*
X443253Y-739484D02*
X433729Y-729960D01*
X433729Y-729960D02*
X443253Y-720436D01*
X443253Y-720436D02*
X443253Y-739484D01*
X624205Y-539484D02*
X586110Y-539484D01*
X586110Y-539484D02*
X567063Y-549008D01*
X567063Y-549008D02*
X557539Y-558531D01*
X557539Y-558531D02*
X538491Y-587103D01*
X538491Y-587103D02*
X528967Y-625198D01*
X528967Y-625198D02*
X528967Y-701388D01*
X528967Y-701388D02*
X538491Y-720436D01*
X538491Y-720436D02*
X548015Y-729960D01*
X548015Y-729960D02*
X567063Y-739484D01*
X567063Y-739484D02*
X605158Y-739484D01*
X605158Y-739484D02*
X624205Y-729960D01*
X624205Y-729960D02*
X633729Y-720436D01*
X633729Y-720436D02*
X643253Y-701388D01*
X643253Y-701388D02*
X643253Y-653770D01*
X643253Y-653770D02*
X633729Y-634722D01*
X633729Y-634722D02*
X624205Y-625198D01*
X624205Y-625198D02*
X605158Y-615674D01*
X605158Y-615674D02*
X567063Y-615674D01*
X567063Y-615674D02*
X548015Y-625198D01*
X548015Y-625198D02*
X538491Y-634722D01*
X538491Y-634722D02*
X528967Y-653770D01*
X824205Y-539484D02*
X728967Y-539484D01*
X728967Y-539484D02*
X719443Y-634722D01*
X719443Y-634722D02*
X728967Y-625198D01*
X728967Y-625198D02*
X748015Y-615674D01*
X748015Y-615674D02*
X795634Y-615674D01*
X795634Y-615674D02*
X814682Y-625198D01*
X814682Y-625198D02*
X824205Y-634722D01*
X824205Y-634722D02*
X833729Y-653770D01*
X833729Y-653770D02*
X833729Y-701388D01*
X833729Y-701388D02*
X824205Y-720436D01*
X824205Y-720436D02*
X814682Y-729960D01*
X814682Y-729960D02*
X795634Y-739484D01*
X795634Y-739484D02*
X748015Y-739484D01*
X748015Y-739484D02*
X728967Y-729960D01*
X728967Y-729960D02*
X719443Y-720436D01*
X957539Y-539484D02*
X976586Y-539484D01*
X976586Y-539484D02*
X995634Y-549008D01*
X995634Y-549008D02*
X1005158Y-558531D01*
X1005158Y-558531D02*
X1014682Y-577579D01*
X1014682Y-577579D02*
X1024205Y-615674D01*
X1024205Y-615674D02*
X1024205Y-663293D01*
X1024205Y-663293D02*
X1014682Y-701388D01*
X1014682Y-701388D02*
X1005158Y-720436D01*
X1005158Y-720436D02*
X995634Y-729960D01*
X995634Y-729960D02*
X976586Y-739484D01*
X976586Y-739484D02*
X957539Y-739484D01*
X957539Y-739484D02*
X938491Y-729960D01*
X938491Y-729960D02*
X928967Y-720436D01*
X928967Y-720436D02*
X919443Y-701388D01*
X919443Y-701388D02*
X909920Y-663293D01*
X909920Y-663293D02*
X909920Y-615674D01*
X909920Y-615674D02*
X919443Y-577579D01*
X919443Y-577579D02*
X928967Y-558531D01*
X928967Y-558531D02*
X938491Y-549008D01*
X938491Y-549008D02*
X957539Y-539484D01*
X1109920Y-739484D02*
X1109920Y-606150D01*
X1109920Y-625198D02*
X1119444Y-615674D01*
X1119444Y-615674D02*
X1138491Y-606150D01*
X1138491Y-606150D02*
X1167063Y-606150D01*
X1167063Y-606150D02*
X1186110Y-615674D01*
X1186110Y-615674D02*
X1195634Y-634722D01*
X1195634Y-634722D02*
X1195634Y-739484D01*
X1195634Y-634722D02*
X1205158Y-615674D01*
X1205158Y-615674D02*
X1224205Y-606150D01*
X1224205Y-606150D02*
X1252777Y-606150D01*
X1252777Y-606150D02*
X1271825Y-615674D01*
X1271825Y-615674D02*
X1281348Y-634722D01*
X1281348Y-634722D02*
X1281348Y-739484D01*
X1376586Y-739484D02*
X1376586Y-606150D01*
X1376586Y-625198D02*
X1386110Y-615674D01*
X1386110Y-615674D02*
X1405158Y-606150D01*
X1405158Y-606150D02*
X1433729Y-606150D01*
X1433729Y-606150D02*
X1452777Y-615674D01*
X1452777Y-615674D02*
X1462301Y-634722D01*
X1462301Y-634722D02*
X1462301Y-739484D01*
X1462301Y-634722D02*
X1471824Y-615674D01*
X1471824Y-615674D02*
X1490872Y-606150D01*
X1490872Y-606150D02*
X1519443Y-606150D01*
X1519443Y-606150D02*
X1538491Y-615674D01*
X1538491Y-615674D02*
X1548015Y-634722D01*
X1548015Y-634722D02*
X1548015Y-739484D01*
X1938491Y-529960D02*
X1767063Y-787103D01*
X2195634Y-539484D02*
X2214682Y-539484D01*
X2214682Y-539484D02*
X2233729Y-549008D01*
X2233729Y-549008D02*
X2243253Y-558531D01*
X2243253Y-558531D02*
X2252777Y-577579D01*
X2252777Y-577579D02*
X2262301Y-615674D01*
X2262301Y-615674D02*
X2262301Y-663293D01*
X2262301Y-663293D02*
X2252777Y-701388D01*
X2252777Y-701388D02*
X2243253Y-720436D01*
X2243253Y-720436D02*
X2233729Y-729960D01*
X2233729Y-729960D02*
X2214682Y-739484D01*
X2214682Y-739484D02*
X2195634Y-739484D01*
X2195634Y-739484D02*
X2176587Y-729960D01*
X2176587Y-729960D02*
X2167063Y-720436D01*
X2167063Y-720436D02*
X2157539Y-701388D01*
X2157539Y-701388D02*
X2148015Y-663293D01*
X2148015Y-663293D02*
X2148015Y-615674D01*
X2148015Y-615674D02*
X2157539Y-577579D01*
X2157539Y-577579D02*
X2167063Y-558531D01*
X2167063Y-558531D02*
X2176587Y-549008D01*
X2176587Y-549008D02*
X2195634Y-539484D01*
X2348015Y-720436D02*
X2357539Y-729960D01*
X2357539Y-729960D02*
X2348015Y-739484D01*
X2348015Y-739484D02*
X2338491Y-729960D01*
X2338491Y-729960D02*
X2348015Y-720436D01*
X2348015Y-720436D02*
X2348015Y-739484D01*
X2481348Y-539484D02*
X2500396Y-539484D01*
X2500396Y-539484D02*
X2519444Y-549008D01*
X2519444Y-549008D02*
X2528968Y-558531D01*
X2528968Y-558531D02*
X2538491Y-577579D01*
X2538491Y-577579D02*
X2548015Y-615674D01*
X2548015Y-615674D02*
X2548015Y-663293D01*
X2548015Y-663293D02*
X2538491Y-701388D01*
X2538491Y-701388D02*
X2528968Y-720436D01*
X2528968Y-720436D02*
X2519444Y-729960D01*
X2519444Y-729960D02*
X2500396Y-739484D01*
X2500396Y-739484D02*
X2481348Y-739484D01*
X2481348Y-739484D02*
X2462301Y-729960D01*
X2462301Y-729960D02*
X2452777Y-720436D01*
X2452777Y-720436D02*
X2443253Y-701388D01*
X2443253Y-701388D02*
X2433729Y-663293D01*
X2433729Y-663293D02*
X2433729Y-615674D01*
X2433729Y-615674D02*
X2443253Y-577579D01*
X2443253Y-577579D02*
X2452777Y-558531D01*
X2452777Y-558531D02*
X2462301Y-549008D01*
X2462301Y-549008D02*
X2481348Y-539484D01*
X2624206Y-558531D02*
X2633729Y-549008D01*
X2633729Y-549008D02*
X2652777Y-539484D01*
X2652777Y-539484D02*
X2700396Y-539484D01*
X2700396Y-539484D02*
X2719444Y-549008D01*
X2719444Y-549008D02*
X2728968Y-558531D01*
X2728968Y-558531D02*
X2738491Y-577579D01*
X2738491Y-577579D02*
X2738491Y-596627D01*
X2738491Y-596627D02*
X2728968Y-625198D01*
X2728968Y-625198D02*
X2614682Y-739484D01*
X2614682Y-739484D02*
X2738491Y-739484D01*
X2919444Y-539484D02*
X2824206Y-539484D01*
X2824206Y-539484D02*
X2814682Y-634722D01*
X2814682Y-634722D02*
X2824206Y-625198D01*
X2824206Y-625198D02*
X2843253Y-615674D01*
X2843253Y-615674D02*
X2890872Y-615674D01*
X2890872Y-615674D02*
X2909920Y-625198D01*
X2909920Y-625198D02*
X2919444Y-634722D01*
X2919444Y-634722D02*
X2928967Y-653770D01*
X2928967Y-653770D02*
X2928967Y-701388D01*
X2928967Y-701388D02*
X2919444Y-720436D01*
X2919444Y-720436D02*
X2909920Y-729960D01*
X2909920Y-729960D02*
X2890872Y-739484D01*
X2890872Y-739484D02*
X2843253Y-739484D01*
X2843253Y-739484D02*
X2824206Y-729960D01*
X2824206Y-729960D02*
X2814682Y-720436D01*
X3100396Y-539484D02*
X3062301Y-539484D01*
X3062301Y-539484D02*
X3043253Y-549008D01*
X3043253Y-549008D02*
X3033729Y-558531D01*
X3033729Y-558531D02*
X3014682Y-587103D01*
X3014682Y-587103D02*
X3005158Y-625198D01*
X3005158Y-625198D02*
X3005158Y-701388D01*
X3005158Y-701388D02*
X3014682Y-720436D01*
X3014682Y-720436D02*
X3024206Y-729960D01*
X3024206Y-729960D02*
X3043253Y-739484D01*
X3043253Y-739484D02*
X3081348Y-739484D01*
X3081348Y-739484D02*
X3100396Y-729960D01*
X3100396Y-729960D02*
X3109920Y-720436D01*
X3109920Y-720436D02*
X3119444Y-701388D01*
X3119444Y-701388D02*
X3119444Y-653770D01*
X3119444Y-653770D02*
X3109920Y-634722D01*
X3109920Y-634722D02*
X3100396Y-625198D01*
X3100396Y-625198D02*
X3081348Y-615674D01*
X3081348Y-615674D02*
X3043253Y-615674D01*
X3043253Y-615674D02*
X3024206Y-625198D01*
X3024206Y-625198D02*
X3014682Y-634722D01*
X3014682Y-634722D02*
X3005158Y-653770D01*
X3195634Y-539484D02*
X3195634Y-577579D01*
X3271825Y-539484D02*
X3271825Y-577579D01*
X3567063Y-815674D02*
X3557539Y-806150D01*
X3557539Y-806150D02*
X3538491Y-777579D01*
X3538491Y-777579D02*
X3528968Y-758531D01*
X3528968Y-758531D02*
X3519444Y-729960D01*
X3519444Y-729960D02*
X3509920Y-682341D01*
X3509920Y-682341D02*
X3509920Y-644246D01*
X3509920Y-644246D02*
X3519444Y-596627D01*
X3519444Y-596627D02*
X3528968Y-568055D01*
X3528968Y-568055D02*
X3538491Y-549008D01*
X3538491Y-549008D02*
X3557539Y-520436D01*
X3557539Y-520436D02*
X3567063Y-510912D01*
X3633729Y-558531D02*
X3643253Y-549008D01*
X3643253Y-549008D02*
X3662301Y-539484D01*
X3662301Y-539484D02*
X3709920Y-539484D01*
X3709920Y-539484D02*
X3728968Y-549008D01*
X3728968Y-549008D02*
X3738491Y-558531D01*
X3738491Y-558531D02*
X3748015Y-577579D01*
X3748015Y-577579D02*
X3748015Y-596627D01*
X3748015Y-596627D02*
X3738491Y-625198D01*
X3738491Y-625198D02*
X3624206Y-739484D01*
X3624206Y-739484D02*
X3748015Y-739484D01*
X3986110Y-739484D02*
X3986110Y-539484D01*
X4071825Y-739484D02*
X4071825Y-634722D01*
X4071825Y-634722D02*
X4062301Y-615674D01*
X4062301Y-615674D02*
X4043253Y-606150D01*
X4043253Y-606150D02*
X4014682Y-606150D01*
X4014682Y-606150D02*
X3995634Y-615674D01*
X3995634Y-615674D02*
X3986110Y-625198D01*
X4195634Y-739484D02*
X4176587Y-729960D01*
X4176587Y-729960D02*
X4167063Y-720436D01*
X4167063Y-720436D02*
X4157539Y-701388D01*
X4157539Y-701388D02*
X4157539Y-644246D01*
X4157539Y-644246D02*
X4167063Y-625198D01*
X4167063Y-625198D02*
X4176587Y-615674D01*
X4176587Y-615674D02*
X4195634Y-606150D01*
X4195634Y-606150D02*
X4224206Y-606150D01*
X4224206Y-606150D02*
X4243253Y-615674D01*
X4243253Y-615674D02*
X4252777Y-625198D01*
X4252777Y-625198D02*
X4262301Y-644246D01*
X4262301Y-644246D02*
X4262301Y-701388D01*
X4262301Y-701388D02*
X4252777Y-720436D01*
X4252777Y-720436D02*
X4243253Y-729960D01*
X4243253Y-729960D02*
X4224206Y-739484D01*
X4224206Y-739484D02*
X4195634Y-739484D01*
X4376587Y-739484D02*
X4357539Y-729960D01*
X4357539Y-729960D02*
X4348015Y-710912D01*
X4348015Y-710912D02*
X4348015Y-539484D01*
X4528968Y-729960D02*
X4509920Y-739484D01*
X4509920Y-739484D02*
X4471825Y-739484D01*
X4471825Y-739484D02*
X4452777Y-729960D01*
X4452777Y-729960D02*
X4443253Y-710912D01*
X4443253Y-710912D02*
X4443253Y-634722D01*
X4443253Y-634722D02*
X4452777Y-615674D01*
X4452777Y-615674D02*
X4471825Y-606150D01*
X4471825Y-606150D02*
X4509920Y-606150D01*
X4509920Y-606150D02*
X4528968Y-615674D01*
X4528968Y-615674D02*
X4538492Y-634722D01*
X4538492Y-634722D02*
X4538492Y-653770D01*
X4538492Y-653770D02*
X4443253Y-672817D01*
X4614682Y-729960D02*
X4633730Y-739484D01*
X4633730Y-739484D02*
X4671825Y-739484D01*
X4671825Y-739484D02*
X4690873Y-729960D01*
X4690873Y-729960D02*
X4700396Y-710912D01*
X4700396Y-710912D02*
X4700396Y-701388D01*
X4700396Y-701388D02*
X4690873Y-682341D01*
X4690873Y-682341D02*
X4671825Y-672817D01*
X4671825Y-672817D02*
X4643253Y-672817D01*
X4643253Y-672817D02*
X4624206Y-663293D01*
X4624206Y-663293D02*
X4614682Y-644246D01*
X4614682Y-644246D02*
X4614682Y-634722D01*
X4614682Y-634722D02*
X4624206Y-615674D01*
X4624206Y-615674D02*
X4643253Y-606150D01*
X4643253Y-606150D02*
X4671825Y-606150D01*
X4671825Y-606150D02*
X4690873Y-615674D01*
X4767063Y-815674D02*
X4776587Y-806150D01*
X4776587Y-806150D02*
X4795634Y-777579D01*
X4795634Y-777579D02*
X4805158Y-758531D01*
X4805158Y-758531D02*
X4814682Y-729960D01*
X4814682Y-729960D02*
X4824206Y-682341D01*
X4824206Y-682341D02*
X4824206Y-644246D01*
X4824206Y-644246D02*
X4814682Y-596627D01*
X4814682Y-596627D02*
X4805158Y-568055D01*
X4805158Y-568055D02*
X4795634Y-549008D01*
X4795634Y-549008D02*
X4776587Y-520436D01*
X4776587Y-520436D02*
X4767063Y-510912D01*
X5128968Y-815674D02*
X5119444Y-806150D01*
X5119444Y-806150D02*
X5100396Y-777579D01*
X5100396Y-777579D02*
X5090873Y-758531D01*
X5090873Y-758531D02*
X5081349Y-729960D01*
X5081349Y-729960D02*
X5071825Y-682341D01*
X5071825Y-682341D02*
X5071825Y-644246D01*
X5071825Y-644246D02*
X5081349Y-596627D01*
X5081349Y-596627D02*
X5090873Y-568055D01*
X5090873Y-568055D02*
X5100396Y-549008D01*
X5100396Y-549008D02*
X5119444Y-520436D01*
X5119444Y-520436D02*
X5128968Y-510912D01*
X5205158Y-606150D02*
X5205158Y-739484D01*
X5205158Y-625198D02*
X5214682Y-615674D01*
X5214682Y-615674D02*
X5233730Y-606150D01*
X5233730Y-606150D02*
X5262301Y-606150D01*
X5262301Y-606150D02*
X5281349Y-615674D01*
X5281349Y-615674D02*
X5290873Y-634722D01*
X5290873Y-634722D02*
X5290873Y-739484D01*
X5414682Y-739484D02*
X5395634Y-729960D01*
X5395634Y-729960D02*
X5386111Y-720436D01*
X5386111Y-720436D02*
X5376587Y-701388D01*
X5376587Y-701388D02*
X5376587Y-644246D01*
X5376587Y-644246D02*
X5386111Y-625198D01*
X5386111Y-625198D02*
X5395634Y-615674D01*
X5395634Y-615674D02*
X5414682Y-606150D01*
X5414682Y-606150D02*
X5443254Y-606150D01*
X5443254Y-606150D02*
X5462301Y-615674D01*
X5462301Y-615674D02*
X5471825Y-625198D01*
X5471825Y-625198D02*
X5481349Y-644246D01*
X5481349Y-644246D02*
X5481349Y-701388D01*
X5481349Y-701388D02*
X5471825Y-720436D01*
X5471825Y-720436D02*
X5462301Y-729960D01*
X5462301Y-729960D02*
X5443254Y-739484D01*
X5443254Y-739484D02*
X5414682Y-739484D01*
X5538492Y-606150D02*
X5614682Y-606150D01*
X5567063Y-539484D02*
X5567063Y-710912D01*
X5567063Y-710912D02*
X5576587Y-729960D01*
X5576587Y-729960D02*
X5595634Y-739484D01*
X5595634Y-739484D02*
X5614682Y-739484D01*
X5833730Y-606150D02*
X5833730Y-806150D01*
X5833730Y-615674D02*
X5852777Y-606150D01*
X5852777Y-606150D02*
X5890873Y-606150D01*
X5890873Y-606150D02*
X5909920Y-615674D01*
X5909920Y-615674D02*
X5919444Y-625198D01*
X5919444Y-625198D02*
X5928968Y-644246D01*
X5928968Y-644246D02*
X5928968Y-701388D01*
X5928968Y-701388D02*
X5919444Y-720436D01*
X5919444Y-720436D02*
X5909920Y-729960D01*
X5909920Y-729960D02*
X5890873Y-739484D01*
X5890873Y-739484D02*
X5852777Y-739484D01*
X5852777Y-739484D02*
X5833730Y-729960D01*
X6043253Y-739484D02*
X6024206Y-729960D01*
X6024206Y-729960D02*
X6014682Y-710912D01*
X6014682Y-710912D02*
X6014682Y-539484D01*
X6205158Y-739484D02*
X6205158Y-634722D01*
X6205158Y-634722D02*
X6195634Y-615674D01*
X6195634Y-615674D02*
X6176587Y-606150D01*
X6176587Y-606150D02*
X6138492Y-606150D01*
X6138492Y-606150D02*
X6119444Y-615674D01*
X6205158Y-729960D02*
X6186111Y-739484D01*
X6186111Y-739484D02*
X6138492Y-739484D01*
X6138492Y-739484D02*
X6119444Y-729960D01*
X6119444Y-729960D02*
X6109920Y-710912D01*
X6109920Y-710912D02*
X6109920Y-691865D01*
X6109920Y-691865D02*
X6119444Y-672817D01*
X6119444Y-672817D02*
X6138492Y-663293D01*
X6138492Y-663293D02*
X6186111Y-663293D01*
X6186111Y-663293D02*
X6205158Y-653770D01*
X6271825Y-606150D02*
X6348015Y-606150D01*
X6300396Y-539484D02*
X6300396Y-710912D01*
X6300396Y-710912D02*
X6309920Y-729960D01*
X6309920Y-729960D02*
X6328968Y-739484D01*
X6328968Y-739484D02*
X6348015Y-739484D01*
X6490873Y-729960D02*
X6471825Y-739484D01*
X6471825Y-739484D02*
X6433730Y-739484D01*
X6433730Y-739484D02*
X6414682Y-729960D01*
X6414682Y-729960D02*
X6405158Y-710912D01*
X6405158Y-710912D02*
X6405158Y-634722D01*
X6405158Y-634722D02*
X6414682Y-615674D01*
X6414682Y-615674D02*
X6433730Y-606150D01*
X6433730Y-606150D02*
X6471825Y-606150D01*
X6471825Y-606150D02*
X6490873Y-615674D01*
X6490873Y-615674D02*
X6500396Y-634722D01*
X6500396Y-634722D02*
X6500396Y-653770D01*
X6500396Y-653770D02*
X6405158Y-672817D01*
X6671825Y-739484D02*
X6671825Y-539484D01*
X6671825Y-729960D02*
X6652777Y-739484D01*
X6652777Y-739484D02*
X6614682Y-739484D01*
X6614682Y-739484D02*
X6595634Y-729960D01*
X6595634Y-729960D02*
X6586111Y-720436D01*
X6586111Y-720436D02*
X6576587Y-701388D01*
X6576587Y-701388D02*
X6576587Y-644246D01*
X6576587Y-644246D02*
X6586111Y-625198D01*
X6586111Y-625198D02*
X6595634Y-615674D01*
X6595634Y-615674D02*
X6614682Y-606150D01*
X6614682Y-606150D02*
X6652777Y-606150D01*
X6652777Y-606150D02*
X6671825Y-615674D01*
X6748015Y-815674D02*
X6757539Y-806150D01*
X6757539Y-806150D02*
X6776587Y-777579D01*
X6776587Y-777579D02*
X6786111Y-758531D01*
X6786111Y-758531D02*
X6795634Y-729960D01*
X6795634Y-729960D02*
X6805158Y-682341D01*
X6805158Y-682341D02*
X6805158Y-644246D01*
X6805158Y-644246D02*
X6795634Y-596627D01*
X6795634Y-596627D02*
X6786111Y-568055D01*
X6786111Y-568055D02*
X6776587Y-549008D01*
X6776587Y-549008D02*
X6757539Y-520436D01*
X6757539Y-520436D02*
X6748015Y-510912D01*
X-8000Y-912000D02*
G75*
G02*
X-208000Y-912000I-100000J0D01*
G01*
X-208000Y-912000D02*
G75*
G02*
X-8000Y-912000I100000J0D01*
G01*
X243253Y-822531D02*
X252777Y-813008D01*
X252777Y-813008D02*
X271824Y-803484D01*
X271824Y-803484D02*
X319444Y-803484D01*
X319444Y-803484D02*
X338491Y-813008D01*
X338491Y-813008D02*
X348015Y-822531D01*
X348015Y-822531D02*
X357539Y-841579D01*
X357539Y-841579D02*
X357539Y-860627D01*
X357539Y-860627D02*
X348015Y-889198D01*
X348015Y-889198D02*
X233729Y-1003484D01*
X233729Y-1003484D02*
X357539Y-1003484D01*
X443253Y-984436D02*
X452777Y-993960D01*
X452777Y-993960D02*
X443253Y-1003484D01*
X443253Y-1003484D02*
X433729Y-993960D01*
X433729Y-993960D02*
X443253Y-984436D01*
X443253Y-984436D02*
X443253Y-1003484D01*
X528967Y-822531D02*
X538491Y-813008D01*
X538491Y-813008D02*
X557539Y-803484D01*
X557539Y-803484D02*
X605158Y-803484D01*
X605158Y-803484D02*
X624205Y-813008D01*
X624205Y-813008D02*
X633729Y-822531D01*
X633729Y-822531D02*
X643253Y-841579D01*
X643253Y-841579D02*
X643253Y-860627D01*
X643253Y-860627D02*
X633729Y-889198D01*
X633729Y-889198D02*
X519443Y-1003484D01*
X519443Y-1003484D02*
X643253Y-1003484D01*
X767062Y-803484D02*
X786110Y-803484D01*
X786110Y-803484D02*
X805158Y-813008D01*
X805158Y-813008D02*
X814682Y-822531D01*
X814682Y-822531D02*
X824205Y-841579D01*
X824205Y-841579D02*
X833729Y-879674D01*
X833729Y-879674D02*
X833729Y-927293D01*
X833729Y-927293D02*
X824205Y-965388D01*
X824205Y-965388D02*
X814682Y-984436D01*
X814682Y-984436D02*
X805158Y-993960D01*
X805158Y-993960D02*
X786110Y-1003484D01*
X786110Y-1003484D02*
X767062Y-1003484D01*
X767062Y-1003484D02*
X748015Y-993960D01*
X748015Y-993960D02*
X738491Y-984436D01*
X738491Y-984436D02*
X728967Y-965388D01*
X728967Y-965388D02*
X719443Y-927293D01*
X719443Y-927293D02*
X719443Y-879674D01*
X719443Y-879674D02*
X728967Y-841579D01*
X728967Y-841579D02*
X738491Y-822531D01*
X738491Y-822531D02*
X748015Y-813008D01*
X748015Y-813008D02*
X767062Y-803484D01*
X957539Y-803484D02*
X976586Y-803484D01*
X976586Y-803484D02*
X995634Y-813008D01*
X995634Y-813008D02*
X1005158Y-822531D01*
X1005158Y-822531D02*
X1014682Y-841579D01*
X1014682Y-841579D02*
X1024205Y-879674D01*
X1024205Y-879674D02*
X1024205Y-927293D01*
X1024205Y-927293D02*
X1014682Y-965388D01*
X1014682Y-965388D02*
X1005158Y-984436D01*
X1005158Y-984436D02*
X995634Y-993960D01*
X995634Y-993960D02*
X976586Y-1003484D01*
X976586Y-1003484D02*
X957539Y-1003484D01*
X957539Y-1003484D02*
X938491Y-993960D01*
X938491Y-993960D02*
X928967Y-984436D01*
X928967Y-984436D02*
X919443Y-965388D01*
X919443Y-965388D02*
X909920Y-927293D01*
X909920Y-927293D02*
X909920Y-879674D01*
X909920Y-879674D02*
X919443Y-841579D01*
X919443Y-841579D02*
X928967Y-822531D01*
X928967Y-822531D02*
X938491Y-813008D01*
X938491Y-813008D02*
X957539Y-803484D01*
X1109920Y-1003484D02*
X1109920Y-870150D01*
X1109920Y-889198D02*
X1119444Y-879674D01*
X1119444Y-879674D02*
X1138491Y-870150D01*
X1138491Y-870150D02*
X1167063Y-870150D01*
X1167063Y-870150D02*
X1186110Y-879674D01*
X1186110Y-879674D02*
X1195634Y-898722D01*
X1195634Y-898722D02*
X1195634Y-1003484D01*
X1195634Y-898722D02*
X1205158Y-879674D01*
X1205158Y-879674D02*
X1224205Y-870150D01*
X1224205Y-870150D02*
X1252777Y-870150D01*
X1252777Y-870150D02*
X1271825Y-879674D01*
X1271825Y-879674D02*
X1281348Y-898722D01*
X1281348Y-898722D02*
X1281348Y-1003484D01*
X1376586Y-1003484D02*
X1376586Y-870150D01*
X1376586Y-889198D02*
X1386110Y-879674D01*
X1386110Y-879674D02*
X1405158Y-870150D01*
X1405158Y-870150D02*
X1433729Y-870150D01*
X1433729Y-870150D02*
X1452777Y-879674D01*
X1452777Y-879674D02*
X1462301Y-898722D01*
X1462301Y-898722D02*
X1462301Y-1003484D01*
X1462301Y-898722D02*
X1471824Y-879674D01*
X1471824Y-879674D02*
X1490872Y-870150D01*
X1490872Y-870150D02*
X1519443Y-870150D01*
X1519443Y-870150D02*
X1538491Y-879674D01*
X1538491Y-879674D02*
X1548015Y-898722D01*
X1548015Y-898722D02*
X1548015Y-1003484D01*
X1938491Y-793960D02*
X1767063Y-1051103D01*
X2195634Y-803484D02*
X2214682Y-803484D01*
X2214682Y-803484D02*
X2233729Y-813008D01*
X2233729Y-813008D02*
X2243253Y-822531D01*
X2243253Y-822531D02*
X2252777Y-841579D01*
X2252777Y-841579D02*
X2262301Y-879674D01*
X2262301Y-879674D02*
X2262301Y-927293D01*
X2262301Y-927293D02*
X2252777Y-965388D01*
X2252777Y-965388D02*
X2243253Y-984436D01*
X2243253Y-984436D02*
X2233729Y-993960D01*
X2233729Y-993960D02*
X2214682Y-1003484D01*
X2214682Y-1003484D02*
X2195634Y-1003484D01*
X2195634Y-1003484D02*
X2176587Y-993960D01*
X2176587Y-993960D02*
X2167063Y-984436D01*
X2167063Y-984436D02*
X2157539Y-965388D01*
X2157539Y-965388D02*
X2148015Y-927293D01*
X2148015Y-927293D02*
X2148015Y-879674D01*
X2148015Y-879674D02*
X2157539Y-841579D01*
X2157539Y-841579D02*
X2167063Y-822531D01*
X2167063Y-822531D02*
X2176587Y-813008D01*
X2176587Y-813008D02*
X2195634Y-803484D01*
X2348015Y-984436D02*
X2357539Y-993960D01*
X2357539Y-993960D02*
X2348015Y-1003484D01*
X2348015Y-1003484D02*
X2338491Y-993960D01*
X2338491Y-993960D02*
X2348015Y-984436D01*
X2348015Y-984436D02*
X2348015Y-1003484D01*
X2481348Y-803484D02*
X2500396Y-803484D01*
X2500396Y-803484D02*
X2519444Y-813008D01*
X2519444Y-813008D02*
X2528968Y-822531D01*
X2528968Y-822531D02*
X2538491Y-841579D01*
X2538491Y-841579D02*
X2548015Y-879674D01*
X2548015Y-879674D02*
X2548015Y-927293D01*
X2548015Y-927293D02*
X2538491Y-965388D01*
X2538491Y-965388D02*
X2528968Y-984436D01*
X2528968Y-984436D02*
X2519444Y-993960D01*
X2519444Y-993960D02*
X2500396Y-1003484D01*
X2500396Y-1003484D02*
X2481348Y-1003484D01*
X2481348Y-1003484D02*
X2462301Y-993960D01*
X2462301Y-993960D02*
X2452777Y-984436D01*
X2452777Y-984436D02*
X2443253Y-965388D01*
X2443253Y-965388D02*
X2433729Y-927293D01*
X2433729Y-927293D02*
X2433729Y-879674D01*
X2433729Y-879674D02*
X2443253Y-841579D01*
X2443253Y-841579D02*
X2452777Y-822531D01*
X2452777Y-822531D02*
X2462301Y-813008D01*
X2462301Y-813008D02*
X2481348Y-803484D01*
X2662301Y-889198D02*
X2643253Y-879674D01*
X2643253Y-879674D02*
X2633729Y-870150D01*
X2633729Y-870150D02*
X2624206Y-851103D01*
X2624206Y-851103D02*
X2624206Y-841579D01*
X2624206Y-841579D02*
X2633729Y-822531D01*
X2633729Y-822531D02*
X2643253Y-813008D01*
X2643253Y-813008D02*
X2662301Y-803484D01*
X2662301Y-803484D02*
X2700396Y-803484D01*
X2700396Y-803484D02*
X2719444Y-813008D01*
X2719444Y-813008D02*
X2728968Y-822531D01*
X2728968Y-822531D02*
X2738491Y-841579D01*
X2738491Y-841579D02*
X2738491Y-851103D01*
X2738491Y-851103D02*
X2728968Y-870150D01*
X2728968Y-870150D02*
X2719444Y-879674D01*
X2719444Y-879674D02*
X2700396Y-889198D01*
X2700396Y-889198D02*
X2662301Y-889198D01*
X2662301Y-889198D02*
X2643253Y-898722D01*
X2643253Y-898722D02*
X2633729Y-908246D01*
X2633729Y-908246D02*
X2624206Y-927293D01*
X2624206Y-927293D02*
X2624206Y-965388D01*
X2624206Y-965388D02*
X2633729Y-984436D01*
X2633729Y-984436D02*
X2643253Y-993960D01*
X2643253Y-993960D02*
X2662301Y-1003484D01*
X2662301Y-1003484D02*
X2700396Y-1003484D01*
X2700396Y-1003484D02*
X2719444Y-993960D01*
X2719444Y-993960D02*
X2728968Y-984436D01*
X2728968Y-984436D02*
X2738491Y-965388D01*
X2738491Y-965388D02*
X2738491Y-927293D01*
X2738491Y-927293D02*
X2728968Y-908246D01*
X2728968Y-908246D02*
X2719444Y-898722D01*
X2719444Y-898722D02*
X2700396Y-889198D01*
X2909920Y-803484D02*
X2871825Y-803484D01*
X2871825Y-803484D02*
X2852777Y-813008D01*
X2852777Y-813008D02*
X2843253Y-822531D01*
X2843253Y-822531D02*
X2824206Y-851103D01*
X2824206Y-851103D02*
X2814682Y-889198D01*
X2814682Y-889198D02*
X2814682Y-965388D01*
X2814682Y-965388D02*
X2824206Y-984436D01*
X2824206Y-984436D02*
X2833729Y-993960D01*
X2833729Y-993960D02*
X2852777Y-1003484D01*
X2852777Y-1003484D02*
X2890872Y-1003484D01*
X2890872Y-1003484D02*
X2909920Y-993960D01*
X2909920Y-993960D02*
X2919444Y-984436D01*
X2919444Y-984436D02*
X2928967Y-965388D01*
X2928967Y-965388D02*
X2928967Y-917769D01*
X2928967Y-917769D02*
X2919444Y-898722D01*
X2919444Y-898722D02*
X2909920Y-889198D01*
X2909920Y-889198D02*
X2890872Y-879674D01*
X2890872Y-879674D02*
X2852777Y-879674D01*
X2852777Y-879674D02*
X2833729Y-889198D01*
X2833729Y-889198D02*
X2824206Y-898722D01*
X2824206Y-898722D02*
X2814682Y-917769D01*
X3100396Y-803484D02*
X3062301Y-803484D01*
X3062301Y-803484D02*
X3043253Y-813008D01*
X3043253Y-813008D02*
X3033729Y-822531D01*
X3033729Y-822531D02*
X3014682Y-851103D01*
X3014682Y-851103D02*
X3005158Y-889198D01*
X3005158Y-889198D02*
X3005158Y-965388D01*
X3005158Y-965388D02*
X3014682Y-984436D01*
X3014682Y-984436D02*
X3024206Y-993960D01*
X3024206Y-993960D02*
X3043253Y-1003484D01*
X3043253Y-1003484D02*
X3081348Y-1003484D01*
X3081348Y-1003484D02*
X3100396Y-993960D01*
X3100396Y-993960D02*
X3109920Y-984436D01*
X3109920Y-984436D02*
X3119444Y-965388D01*
X3119444Y-965388D02*
X3119444Y-917769D01*
X3119444Y-917769D02*
X3109920Y-898722D01*
X3109920Y-898722D02*
X3100396Y-889198D01*
X3100396Y-889198D02*
X3081348Y-879674D01*
X3081348Y-879674D02*
X3043253Y-879674D01*
X3043253Y-879674D02*
X3024206Y-889198D01*
X3024206Y-889198D02*
X3014682Y-898722D01*
X3014682Y-898722D02*
X3005158Y-917769D01*
X3195634Y-803484D02*
X3195634Y-841579D01*
X3271825Y-803484D02*
X3271825Y-841579D01*
X3567063Y-1079674D02*
X3557539Y-1070150D01*
X3557539Y-1070150D02*
X3538491Y-1041579D01*
X3538491Y-1041579D02*
X3528968Y-1022531D01*
X3528968Y-1022531D02*
X3519444Y-993960D01*
X3519444Y-993960D02*
X3509920Y-946341D01*
X3509920Y-946341D02*
X3509920Y-908246D01*
X3509920Y-908246D02*
X3519444Y-860627D01*
X3519444Y-860627D02*
X3528968Y-832055D01*
X3528968Y-832055D02*
X3538491Y-813008D01*
X3538491Y-813008D02*
X3557539Y-784436D01*
X3557539Y-784436D02*
X3567063Y-774912D01*
X3728968Y-870150D02*
X3728968Y-1003484D01*
X3681348Y-793960D02*
X3633729Y-936817D01*
X3633729Y-936817D02*
X3757539Y-936817D01*
X3986110Y-1003484D02*
X3986110Y-803484D01*
X4071825Y-1003484D02*
X4071825Y-898722D01*
X4071825Y-898722D02*
X4062301Y-879674D01*
X4062301Y-879674D02*
X4043253Y-870150D01*
X4043253Y-870150D02*
X4014682Y-870150D01*
X4014682Y-870150D02*
X3995634Y-879674D01*
X3995634Y-879674D02*
X3986110Y-889198D01*
X4195634Y-1003484D02*
X4176587Y-993960D01*
X4176587Y-993960D02*
X4167063Y-984436D01*
X4167063Y-984436D02*
X4157539Y-965388D01*
X4157539Y-965388D02*
X4157539Y-908246D01*
X4157539Y-908246D02*
X4167063Y-889198D01*
X4167063Y-889198D02*
X4176587Y-879674D01*
X4176587Y-879674D02*
X4195634Y-870150D01*
X4195634Y-870150D02*
X4224206Y-870150D01*
X4224206Y-870150D02*
X4243253Y-879674D01*
X4243253Y-879674D02*
X4252777Y-889198D01*
X4252777Y-889198D02*
X4262301Y-908246D01*
X4262301Y-908246D02*
X4262301Y-965388D01*
X4262301Y-965388D02*
X4252777Y-984436D01*
X4252777Y-984436D02*
X4243253Y-993960D01*
X4243253Y-993960D02*
X4224206Y-1003484D01*
X4224206Y-1003484D02*
X4195634Y-1003484D01*
X4376587Y-1003484D02*
X4357539Y-993960D01*
X4357539Y-993960D02*
X4348015Y-974912D01*
X4348015Y-974912D02*
X4348015Y-803484D01*
X4528968Y-993960D02*
X4509920Y-1003484D01*
X4509920Y-1003484D02*
X4471825Y-1003484D01*
X4471825Y-1003484D02*
X4452777Y-993960D01*
X4452777Y-993960D02*
X4443253Y-974912D01*
X4443253Y-974912D02*
X4443253Y-898722D01*
X4443253Y-898722D02*
X4452777Y-879674D01*
X4452777Y-879674D02*
X4471825Y-870150D01*
X4471825Y-870150D02*
X4509920Y-870150D01*
X4509920Y-870150D02*
X4528968Y-879674D01*
X4528968Y-879674D02*
X4538492Y-898722D01*
X4538492Y-898722D02*
X4538492Y-917769D01*
X4538492Y-917769D02*
X4443253Y-936817D01*
X4614682Y-993960D02*
X4633730Y-1003484D01*
X4633730Y-1003484D02*
X4671825Y-1003484D01*
X4671825Y-1003484D02*
X4690873Y-993960D01*
X4690873Y-993960D02*
X4700396Y-974912D01*
X4700396Y-974912D02*
X4700396Y-965388D01*
X4700396Y-965388D02*
X4690873Y-946341D01*
X4690873Y-946341D02*
X4671825Y-936817D01*
X4671825Y-936817D02*
X4643253Y-936817D01*
X4643253Y-936817D02*
X4624206Y-927293D01*
X4624206Y-927293D02*
X4614682Y-908246D01*
X4614682Y-908246D02*
X4614682Y-898722D01*
X4614682Y-898722D02*
X4624206Y-879674D01*
X4624206Y-879674D02*
X4643253Y-870150D01*
X4643253Y-870150D02*
X4671825Y-870150D01*
X4671825Y-870150D02*
X4690873Y-879674D01*
X4767063Y-1079674D02*
X4776587Y-1070150D01*
X4776587Y-1070150D02*
X4795634Y-1041579D01*
X4795634Y-1041579D02*
X4805158Y-1022531D01*
X4805158Y-1022531D02*
X4814682Y-993960D01*
X4814682Y-993960D02*
X4824206Y-946341D01*
X4824206Y-946341D02*
X4824206Y-908246D01*
X4824206Y-908246D02*
X4814682Y-860627D01*
X4814682Y-860627D02*
X4805158Y-832055D01*
X4805158Y-832055D02*
X4795634Y-813008D01*
X4795634Y-813008D02*
X4776587Y-784436D01*
X4776587Y-784436D02*
X4767063Y-774912D01*
X5128968Y-1079674D02*
X5119444Y-1070150D01*
X5119444Y-1070150D02*
X5100396Y-1041579D01*
X5100396Y-1041579D02*
X5090873Y-1022531D01*
X5090873Y-1022531D02*
X5081349Y-993960D01*
X5081349Y-993960D02*
X5071825Y-946341D01*
X5071825Y-946341D02*
X5071825Y-908246D01*
X5071825Y-908246D02*
X5081349Y-860627D01*
X5081349Y-860627D02*
X5090873Y-832055D01*
X5090873Y-832055D02*
X5100396Y-813008D01*
X5100396Y-813008D02*
X5119444Y-784436D01*
X5119444Y-784436D02*
X5128968Y-774912D01*
X5205158Y-870150D02*
X5205158Y-1003484D01*
X5205158Y-889198D02*
X5214682Y-879674D01*
X5214682Y-879674D02*
X5233730Y-870150D01*
X5233730Y-870150D02*
X5262301Y-870150D01*
X5262301Y-870150D02*
X5281349Y-879674D01*
X5281349Y-879674D02*
X5290873Y-898722D01*
X5290873Y-898722D02*
X5290873Y-1003484D01*
X5414682Y-1003484D02*
X5395634Y-993960D01*
X5395634Y-993960D02*
X5386111Y-984436D01*
X5386111Y-984436D02*
X5376587Y-965388D01*
X5376587Y-965388D02*
X5376587Y-908246D01*
X5376587Y-908246D02*
X5386111Y-889198D01*
X5386111Y-889198D02*
X5395634Y-879674D01*
X5395634Y-879674D02*
X5414682Y-870150D01*
X5414682Y-870150D02*
X5443254Y-870150D01*
X5443254Y-870150D02*
X5462301Y-879674D01*
X5462301Y-879674D02*
X5471825Y-889198D01*
X5471825Y-889198D02*
X5481349Y-908246D01*
X5481349Y-908246D02*
X5481349Y-965388D01*
X5481349Y-965388D02*
X5471825Y-984436D01*
X5471825Y-984436D02*
X5462301Y-993960D01*
X5462301Y-993960D02*
X5443254Y-1003484D01*
X5443254Y-1003484D02*
X5414682Y-1003484D01*
X5538492Y-870150D02*
X5614682Y-870150D01*
X5567063Y-803484D02*
X5567063Y-974912D01*
X5567063Y-974912D02*
X5576587Y-993960D01*
X5576587Y-993960D02*
X5595634Y-1003484D01*
X5595634Y-1003484D02*
X5614682Y-1003484D01*
X5833730Y-870150D02*
X5833730Y-1070150D01*
X5833730Y-879674D02*
X5852777Y-870150D01*
X5852777Y-870150D02*
X5890873Y-870150D01*
X5890873Y-870150D02*
X5909920Y-879674D01*
X5909920Y-879674D02*
X5919444Y-889198D01*
X5919444Y-889198D02*
X5928968Y-908246D01*
X5928968Y-908246D02*
X5928968Y-965388D01*
X5928968Y-965388D02*
X5919444Y-984436D01*
X5919444Y-984436D02*
X5909920Y-993960D01*
X5909920Y-993960D02*
X5890873Y-1003484D01*
X5890873Y-1003484D02*
X5852777Y-1003484D01*
X5852777Y-1003484D02*
X5833730Y-993960D01*
X6043253Y-1003484D02*
X6024206Y-993960D01*
X6024206Y-993960D02*
X6014682Y-974912D01*
X6014682Y-974912D02*
X6014682Y-803484D01*
X6205158Y-1003484D02*
X6205158Y-898722D01*
X6205158Y-898722D02*
X6195634Y-879674D01*
X6195634Y-879674D02*
X6176587Y-870150D01*
X6176587Y-870150D02*
X6138492Y-870150D01*
X6138492Y-870150D02*
X6119444Y-879674D01*
X6205158Y-993960D02*
X6186111Y-1003484D01*
X6186111Y-1003484D02*
X6138492Y-1003484D01*
X6138492Y-1003484D02*
X6119444Y-993960D01*
X6119444Y-993960D02*
X6109920Y-974912D01*
X6109920Y-974912D02*
X6109920Y-955865D01*
X6109920Y-955865D02*
X6119444Y-936817D01*
X6119444Y-936817D02*
X6138492Y-927293D01*
X6138492Y-927293D02*
X6186111Y-927293D01*
X6186111Y-927293D02*
X6205158Y-917769D01*
X6271825Y-870150D02*
X6348015Y-870150D01*
X6300396Y-803484D02*
X6300396Y-974912D01*
X6300396Y-974912D02*
X6309920Y-993960D01*
X6309920Y-993960D02*
X6328968Y-1003484D01*
X6328968Y-1003484D02*
X6348015Y-1003484D01*
X6490873Y-993960D02*
X6471825Y-1003484D01*
X6471825Y-1003484D02*
X6433730Y-1003484D01*
X6433730Y-1003484D02*
X6414682Y-993960D01*
X6414682Y-993960D02*
X6405158Y-974912D01*
X6405158Y-974912D02*
X6405158Y-898722D01*
X6405158Y-898722D02*
X6414682Y-879674D01*
X6414682Y-879674D02*
X6433730Y-870150D01*
X6433730Y-870150D02*
X6471825Y-870150D01*
X6471825Y-870150D02*
X6490873Y-879674D01*
X6490873Y-879674D02*
X6500396Y-898722D01*
X6500396Y-898722D02*
X6500396Y-917769D01*
X6500396Y-917769D02*
X6405158Y-936817D01*
X6671825Y-1003484D02*
X6671825Y-803484D01*
X6671825Y-993960D02*
X6652777Y-1003484D01*
X6652777Y-1003484D02*
X6614682Y-1003484D01*
X6614682Y-1003484D02*
X6595634Y-993960D01*
X6595634Y-993960D02*
X6586111Y-984436D01*
X6586111Y-984436D02*
X6576587Y-965388D01*
X6576587Y-965388D02*
X6576587Y-908246D01*
X6576587Y-908246D02*
X6586111Y-889198D01*
X6586111Y-889198D02*
X6595634Y-879674D01*
X6595634Y-879674D02*
X6614682Y-870150D01*
X6614682Y-870150D02*
X6652777Y-870150D01*
X6652777Y-870150D02*
X6671825Y-879674D01*
X6748015Y-1079674D02*
X6757539Y-1070150D01*
X6757539Y-1070150D02*
X6776587Y-1041579D01*
X6776587Y-1041579D02*
X6786111Y-1022531D01*
X6786111Y-1022531D02*
X6795634Y-993960D01*
X6795634Y-993960D02*
X6805158Y-946341D01*
X6805158Y-946341D02*
X6805158Y-908246D01*
X6805158Y-908246D02*
X6795634Y-860627D01*
X6795634Y-860627D02*
X6786111Y-832055D01*
X6786111Y-832055D02*
X6776587Y-813008D01*
X6776587Y-813008D02*
X6757539Y-784436D01*
X6757539Y-784436D02*
X6748015Y-774912D01*
M02*
